solid 4040EndCap
facet normal 4.509978680201543e-05 0.999999998912972 -1.1834924131744914e-05
  outer loop
    vertex 37.87209178442448 22.46075218217315 -0.0001775236336088781
    vertex 41.87209182627248 22.46104517998962 39.99982247485407
    vertex 41.87209178053391 22.46059071890463 -0.0001775246799461616
  endloop
endfacet
facet normal 4.509978680201543e-05 0.999999998912972 -1.1834924131744914e-05
  outer loop
    vertex 41.87209182627248 22.46104517998962 39.99982247485407
    vertex 37.87209178442448 22.46075218217315 -0.0001775236336088781
    vertex 37.872091833918375 22.461244515015416 39.9998224763665
  endloop
endfacet
facet normal 0.9999999990926391 -4.2527395158954835e-05 2.4784271407942493e-06
  outer loop
    vertex 41.87118367709063 -0.5342050439160875 1.500000000251211
    vertex 41.87112666522365 0.96579495607858 39.99326500025098
    vertex 41.871126665232076 -0.5342050439214624 38.486514880252166
  endloop
endfacet
facet normal 0.9999999990926391 -4.2527395158954835e-05 2.4784271407942493e-06
  outer loop
    vertex 41.87112666522365 0.96579495607858 39.99326500025098
    vertex 41.87118367709063 -0.5342050439160875 1.500000000251211
    vertex 41.87118367709912 0.9657949560838929 2.511913343994365e-10
  endloop
endfacet
facet normal 0.9999999990926391 -4.2527395158954835e-05 2.4784271407942493e-06
  outer loop
    vertex 41.87112666522365 0.96579495607858 39.99326500025098
    vertex 41.87118367709912 0.9657949560838929 2.511913343994365e-10
    vertex 41.87105474539417 2.695726015982011 39.993278292692864
  endloop
endfacet
facet normal 0.9999999990926391 -4.2527395158954835e-05 2.4784271407942493e-06
  outer loop
    vertex 41.87105474539417 2.695726015982011 39.993278292692864
    vertex 41.87118367709912 0.9657949560838929 2.511913343994365e-10
    vertex 41.87164027921587 12.449297196531063 9.326981719340091
  endloop
endfacet
facet normal 0.9999999990926391 -4.2527395158954835e-05 2.4784271407942493e-06
  outer loop
    vertex 41.87164027921587 12.449297196531063 9.326981719340091
    vertex 41.87118367709912 0.9657949560838929 2.511913343994365e-10
    vertex 41.87165199308831 12.709038294778967 8.699911236606615
  endloop
endfacet
facet normal 0.9999999990926391 -4.2527395158954835e-05 2.4784271407942493e-06
  outer loop
    vertex 41.87165199308831 12.709038294778967 8.699911236606615
    vertex 41.87118367709912 0.9657949560838929 2.511913343994365e-10
    vertex 41.8716706274581 13.122226713113296 8.161433605521662
  endloop
endfacet
facet normal 0.9999999990926391 -4.2527395158954835e-05 2.4784271407942493e-06
  outer loop
    vertex 41.8716706274581 13.122226713113296 8.161433605521662
    vertex 41.87118367709912 0.9657949560838929 2.511913343994365e-10
    vertex 41.87209178053391 22.46059071890463 -0.0001775246799461616
  endloop
endfacet
facet normal 0.9999999990926391 -4.2527395158954835e-05 2.4784271407942493e-06
  outer loop
    vertex 41.87105474539417 2.695726015982011 39.993278292692864
    vertex 41.87164027921587 12.449297196531063 9.326981719340091
    vertex 41.871636284121806 12.360704344972717 9.99991123660668
  endloop
endfacet
facet normal 0.9999999990926391 -4.2527395158954835e-05 2.4784271407942493e-06
  outer loop
    vertex 41.8716706274581 13.122226713113296 8.161433605521662
    vertex 41.87209178053391 22.46059071890463 -0.0001775246799461616
    vertex 41.87169491242373 13.660704343650709 7.748245186767072
  endloop
endfacet
facet normal 0.9999999990926391 -4.2527395158954835e-05 2.4784271407942493e-06
  outer loop
    vertex 41.87169491242373 13.660704343650709 7.748245186767072
    vertex 41.87209178053391 22.46059071890463 -0.0001775246799461616
    vertex 41.871723193004904 14.287774825746444 7.488504088255073
  endloop
endfacet
facet normal 0.9999999990926391 -4.2527395158954835e-05 2.4784271407942493e-06
  outer loop
    vertex 41.871723193004904 14.287774825746444 7.488504088255073
    vertex 41.87209178053391 22.46059071890463 -0.0001775246799461616
    vertex 41.871753541926765 14.960704342328643 7.39991123660664
  endloop
endfacet
facet normal 0.9999999990926391 -4.2527395158954835e-05 2.4784271407942493e-06
  outer loop
    vertex 41.871753541926765 14.960704342328643 7.39991123660664
    vertex 41.87209178053391 22.46059071890463 -0.0001775246799461616
    vertex 41.87178389096045 15.633633858910839 7.488504088255073
  endloop
endfacet
facet normal 0.9999999990926391 -4.2527395158954835e-05 2.4784271407942493e-06
  outer loop
    vertex 41.87178389096045 15.633633858910839 7.488504088255073
    vertex 41.87209178053391 22.46059071890463 -0.0001775246799461616
    vertex 41.87181217186944 16.260704341006562 7.748245186767072
  endloop
endfacet
facet normal 0.9999999990926391 -4.2527395158954835e-05 2.4784271407942493e-06
  outer loop
    vertex 41.87181217186944 16.260704341006562 7.748245186767072
    vertex 41.87209178053391 22.46059071890463 -0.0001775246799461616
    vertex 41.87183645735656 16.799181971543952 8.161433605521662
  endloop
endfacet
facet normal 0.9999999990926391 -4.2527395158954835e-05 2.4784271407942493e-06
  outer loop
    vertex 41.87183645735656 16.799181971543952 8.161433605521662
    vertex 41.87209178053391 22.46059071890463 -0.0001775246799461616
    vertex 41.871855092405944 17.21237038987825 8.699911236606615
  endloop
endfacet
facet normal 0.9999999990926391 -4.2527395158954835e-05 2.4784271407942493e-06
  outer loop
    vertex 41.871855092405944 17.21237038987825 8.699911236606615
    vertex 41.87209178053391 22.46059071890463 -0.0001775246799461616
    vertex 41.87186680706986 17.472111488126117 9.326981719340091
  endloop
endfacet
facet normal 0.9999999990926391 -4.2527395158954835e-05 2.4784271407942493e-06
  outer loop
    vertex 41.87186680706986 17.472111488126117 9.326981719340091
    vertex 41.87209178053391 22.46059071890463 -0.0001775246799461616
    vertex 41.871870803013245 17.560704339684424 9.99991123660668
  endloop
endfacet
facet normal 0.9999999990926391 -4.2527395158954835e-05 2.4784271407942493e-06
  outer loop
    vertex 41.871870803013245 17.560704339684424 9.99991123660668
    vertex 41.87209178053391 22.46059071890463 -0.0001775246799461616
    vertex 41.871870825882525 17.560931570226938 29.999911237429444
  endloop
endfacet
facet normal 0.9999999990926391 -4.2527395158954835e-05 2.4784271407942493e-06
  outer loop
    vertex 41.87105474539417 2.695726015982011 39.993278292692864
    vertex 41.871670652647786 13.122453943655701 31.83838886851446
    vertex 41.87209182627248 22.46104517998962 39.99982247485407
  endloop
endfacet
facet normal 0.9999999990926391 -4.2527395158954835e-05 2.4784271407942493e-06
  outer loop
    vertex 41.871670652647786 13.122453943655701 31.83838886851446
    vertex 41.87105474539417 2.695726015982011 39.993278292692864
    vertex 41.87165201759837 12.709265525321406 31.29991123742951
  endloop
endfacet
facet normal 0.9999999990926391 -4.2527395158954835e-05 2.4784271407942493e-06
  outer loop
    vertex 41.87165201759837 12.709265525321406 31.29991123742951
    vertex 41.87105474539417 2.695726015982011 39.993278292692864
    vertex 41.87164030293448 12.449524427073536 30.672840754696033
  endloop
endfacet
facet normal 0.9999999990926391 -4.2527395158954835e-05 2.4784271407942493e-06
  outer loop
    vertex 41.87164030293448 12.449524427073536 30.672840754696033
    vertex 41.87105474539417 2.695726015982011 39.993278292692864
    vertex 41.871636306991086 12.36093157551523 29.999911237429444
  endloop
endfacet
facet normal 0.9999999990926391 -4.2527395158954835e-05 2.4784271407942493e-06
  outer loop
    vertex 41.871636306991086 12.36093157551523 29.999911237429444
    vertex 41.87105474539417 2.695726015982011 39.993278292692864
    vertex 41.871636284121806 12.360704344972717 9.99991123660668
  endloop
endfacet
facet normal 0.9999999990926391 -4.2527395158954835e-05 2.4784271407942493e-06
  outer loop
    vertex 41.87209182627248 22.46104517998962 39.99982247485407
    vertex 41.871670652647786 13.122453943655701 31.83838886851446
    vertex 41.87169493813489 13.660931574193091 32.25157728726905
  endloop
endfacet
facet normal 0.9999999990926391 -4.2527395158954835e-05 2.4784271407942493e-06
  outer loop
    vertex 41.87209182627248 22.46104517998962 39.99982247485407
    vertex 41.87169493813489 13.660931574193091 32.25157728726905
    vertex 41.87172321904389 14.288002056288816 32.51131838578105
  endloop
endfacet
facet normal 0.9999999990926391 -4.2527395158954835e-05 2.4784271407942493e-06
  outer loop
    vertex 41.87209182627248 22.46104517998962 39.99982247485407
    vertex 41.87172321904389 14.288002056288816 32.51131838578105
    vertex 41.87175356807757 14.96093157287101 32.59991123742948
  endloop
endfacet
facet normal 0.9999999990926391 -4.2527395158954835e-05 2.4784271407942493e-06
  outer loop
    vertex 41.87209182627248 22.46104517998962 39.99982247485407
    vertex 41.87175356807757 14.96093157287101 32.59991123742948
    vertex 41.871783916999426 15.633861089453209 32.51131838578105
  endloop
endfacet
facet normal 0.9999999990926391 -4.2527395158954835e-05 2.4784271407942493e-06
  outer loop
    vertex 41.87209182627248 22.46104517998962 39.99982247485407
    vertex 41.871783916999426 15.633861089453209 32.51131838578105
    vertex 41.87181219758061 16.260931571548944 32.25157728726905
  endloop
endfacet
facet normal 0.9999999990926391 -4.2527395158954835e-05 2.4784271407942493e-06
  outer loop
    vertex 41.87209182627248 22.46104517998962 39.99982247485407
    vertex 41.87181219758061 16.260931571548944 32.25157728726905
    vertex 41.87183648254623 16.799409202086355 31.83838886851446
  endloop
endfacet
facet normal 0.9999999990926391 -4.2527395158954835e-05 2.4784271407942493e-06
  outer loop
    vertex 41.87209182627248 22.46104517998962 39.99982247485407
    vertex 41.87183648254623 16.799409202086355 31.83838886851446
    vertex 41.871855116916024 17.212597620420688 31.29991123742951
  endloop
endfacet
facet normal 0.9999999990926391 -4.2527395158954835e-05 2.4784271407942493e-06
  outer loop
    vertex 41.87209182627248 22.46104517998962 39.99982247485407
    vertex 41.871855116916024 17.212597620420688 31.29991123742951
    vertex 41.87186683078846 17.472338718668592 30.672840754696033
  endloop
endfacet
facet normal 0.9999999990926391 -4.2527395158954835e-05 2.4784271407942493e-06
  outer loop
    vertex 41.87209182627248 22.46104517998962 39.99982247485407
    vertex 41.87186683078846 17.472338718668592 30.672840754696033
    vertex 41.871870825882525 17.560931570226938 29.999911237429444
  endloop
endfacet
facet normal 0.9999999990926391 -4.2527395158954835e-05 2.4784271407942493e-06
  outer loop
    vertex 41.87209182627248 22.46104517998962 39.99982247485407
    vertex 41.871870825882525 17.560931570226938 29.999911237429444
    vertex 41.87209178053391 22.46059071890463 -0.0001775246799461616
  endloop
endfacet
facet normal 0.9999999990926391 -4.2527395158954835e-05 2.4784271407942493e-06
  outer loop
    vertex 41.87164028006519 12.449297196531024 10.672840753873269
    vertex 41.871636306991086 12.36093157551523 29.999911237429444
    vertex 41.871636284121806 12.360704344972717 9.99991123660668
  endloop
endfacet
facet normal 0.9999999990926391 -4.2527395158954835e-05 2.4784271407942493e-06
  outer loop
    vertex 41.871636306991086 12.36093157551523 29.999911237429444
    vertex 41.87164028006519 12.449297196531024 10.672840753873269
    vertex 41.871640302085154 12.449524427073575 29.326981720162856
  endloop
endfacet
facet normal 0.9999999990926391 -4.2527395158954835e-05 2.4784271407942493e-06
  outer loop
    vertex 41.871640302085154 12.449524427073575 29.326981720162856
    vertex 41.87164028006519 12.449297196531024 10.672840753873269
    vertex 41.87165199472908 12.709038294778894 11.299911236606656
  endloop
endfacet
facet normal 0.9999999990926391 -4.2527395158954835e-05 2.4784271407942493e-06
  outer loop
    vertex 41.871640302085154 12.449524427073575 29.326981720162856
    vertex 41.87165199472908 12.709038294778894 11.299911236606656
    vertex 41.87165201595761 12.709265525321479 28.69991123742947
  endloop
endfacet
facet normal 0.9999999990926391 -4.2527395158954835e-05 2.4784271407942493e-06
  outer loop
    vertex 41.87165201595761 12.709265525321479 28.69991123742947
    vertex 41.87165199472908 12.709038294778894 11.299911236606656
    vertex 41.87167062977849 13.12222671311319 11.8383888676917
  endloop
endfacet
facet normal 0.9999999990926391 -4.2527395158954835e-05 2.4784271407942493e-06
  outer loop
    vertex 41.87165201595761 12.709265525321479 28.69991123742947
    vertex 41.87167062977849 13.12222671311319 11.8383888676917
    vertex 41.87167065032739 13.122453943655803 28.161433606344424
  endloop
endfacet
facet normal 0.9999999990926391 -4.2527395158954835e-05 2.4784271407942493e-06
  outer loop
    vertex 41.87167065032739 13.122453943655803 28.161433606344424
    vertex 41.87167062977849 13.12222671311319 11.8383888676917
    vertex 41.87169491526561 13.660704343650579 12.251577286446288
  endloop
endfacet
facet normal 0.9999999990926391 -4.2527395158954835e-05 2.4784271407942493e-06
  outer loop
    vertex 41.87167065032739 13.122453943655803 28.161433606344424
    vertex 41.87169491526561 13.660704343650579 12.251577286446288
    vertex 41.871694935292986 13.66093157419322 27.748245187589834
  endloop
endfacet
facet normal 0.9999999990926391 -4.2527395158954835e-05 2.4784271407942493e-06
  outer loop
    vertex 41.871694935292986 13.66093157419322 27.748245187589834
    vertex 41.87169491526561 13.660704343650579 12.251577286446288
    vertex 41.87172319617461 14.287774825746299 12.511318384958289
  endloop
endfacet
facet normal 0.9999999990926391 -4.2527395158954835e-05 2.4784271407942493e-06
  outer loop
    vertex 41.871694935292986 13.66093157419322 27.748245187589834
    vertex 41.87172319617461 14.287774825746299 12.511318384958289
    vertex 41.87172321587417 14.288002056288956 27.488504089077836
  endloop
endfacet
facet normal 0.9999999990926391 -4.2527395158954835e-05 2.4784271407942493e-06
  outer loop
    vertex 41.87172321587417 14.288002056288956 27.488504089077836
    vertex 41.87172319617461 14.287774825746299 12.511318384958289
    vertex 41.87175354520827 14.960704342328498 12.59991123660672
  endloop
endfacet
facet normal 0.9999999990926391 -4.2527395158954835e-05 2.4784271407942493e-06
  outer loop
    vertex 41.87172321587417 14.288002056288956 27.488504089077836
    vertex 41.87175354520827 14.960704342328498 12.59991123660672
    vertex 41.87175356479605 14.960931572871157 27.399911237429404
  endloop
endfacet
facet normal 0.9999999990926391 -4.2527395158954835e-05 2.4784271407942493e-06
  outer loop
    vertex 41.87175356479605 14.960931572871157 27.399911237429404
    vertex 41.87175354520827 14.960704342328498 12.59991123660672
    vertex 41.87178389413015 15.633633858910697 12.511318384958289
  endloop
endfacet
facet normal 0.9999999990926391 -4.2527395158954835e-05 2.4784271407942493e-06
  outer loop
    vertex 41.87175356479605 14.960931572871157 27.399911237429404
    vertex 41.87178389413015 15.633633858910697 12.511318384958289
    vertex 41.87178391382971 15.633861089453356 27.488504089077836
  endloop
endfacet
facet normal 0.9999999990926391 -4.2527395158954835e-05 2.4784271407942493e-06
  outer loop
    vertex 41.87178391382971 15.633861089453356 27.488504089077836
    vertex 41.87178389413015 15.633633858910697 12.511318384958289
    vertex 41.87181217471133 16.260704341006434 12.251577286446288
  endloop
endfacet
facet normal 0.9999999990926391 -4.2527395158954835e-05 2.4784271407942493e-06
  outer loop
    vertex 41.87178391382971 15.633861089453356 27.488504089077836
    vertex 41.87181217471133 16.260704341006434 12.251577286446288
    vertex 41.87181219473871 16.260931571549076 27.748245187589834
  endloop
endfacet
facet normal 0.9999999990926391 -4.2527395158954835e-05 2.4784271407942493e-06
  outer loop
    vertex 41.87181219473871 16.260931571549076 27.748245187589834
    vertex 41.87181217471133 16.260704341006434 12.251577286446288
    vertex 41.871836459676935 16.799181971543852 11.8383888676917
  endloop
endfacet
facet normal 0.9999999990926391 -4.2527395158954835e-05 2.4784271407942493e-06
  outer loop
    vertex 41.87181219473871 16.260931571549076 27.748245187589834
    vertex 41.871836459676935 16.799181971543852 11.8383888676917
    vertex 41.871836480225845 16.799409202086466 28.161433606344424
  endloop
endfacet
facet normal 0.9999999990926391 -4.2527395158954835e-05 2.4784271407942493e-06
  outer loop
    vertex 41.871836480225845 16.799409202086466 28.161433606344424
    vertex 41.871836459676935 16.799181971543852 11.8383888676917
    vertex 41.87185509404672 17.212370389878174 11.299911236606656
  endloop
endfacet
facet normal 0.9999999990926391 -4.2527395158954835e-05 2.4784271407942493e-06
  outer loop
    vertex 41.871836480225845 16.799409202086466 28.161433606344424
    vertex 41.87185509404672 17.212370389878174 11.299911236606656
    vertex 41.87185511527526 17.21259762042076 28.69991123742947
  endloop
endfacet
facet normal 0.9999999990926391 -4.2527395158954835e-05 2.4784271407942493e-06
  outer loop
    vertex 41.87185511527526 17.21259762042076 28.69991123742947
    vertex 41.87185509404672 17.212370389878174 11.299911236606656
    vertex 41.871866807919176 17.472111488126078 10.672840753873269
  endloop
endfacet
facet normal 0.9999999990926391 -4.2527395158954835e-05 2.4784271407942493e-06
  outer loop
    vertex 41.87185511527526 17.21259762042076 28.69991123742947
    vertex 41.871866807919176 17.472111488126078 10.672840753873269
    vertex 41.871866829939144 17.47233871866863 29.326981720162856
  endloop
endfacet
facet normal 0.9999999990926391 -4.2527395158954835e-05 2.4784271407942493e-06
  outer loop
    vertex 41.871866829939144 17.47233871866863 29.326981720162856
    vertex 41.871866807919176 17.472111488126078 10.672840753873269
    vertex 41.871870803013245 17.560704339684424 9.99991123660668
  endloop
endfacet
facet normal 0.9999999990926391 -4.2527395158954835e-05 2.4784271407942493e-06
  outer loop
    vertex 41.871866829939144 17.47233871866863 29.326981720162856
    vertex 41.871870803013245 17.560704339684424 9.99991123660668
    vertex 41.871870825882525 17.560931570226938 29.999911237429444
  endloop
endfacet
facet normal -0.9999999989830046 4.50997868141438e-05 6.822449857254918e-10
  outer loop
    vertex 37.87163631291343 12.361111974662405 29.999911239953715
    vertex 37.871640285559835 12.449477595678218 10.672840756397811
    vertex 37.87163628961647 12.360884744119911 9.999911239131222
  endloop
endfacet
facet normal -0.9999999989830046 4.50997868141438e-05 6.822449857254918e-10
  outer loop
    vertex 37.871640285559835 12.449477595678218 10.672840756397811
    vertex 37.87163631291343 12.361111974662405 29.999911239953715
    vertex 37.8716403080075 12.449704826220751 29.326981722687126
  endloop
endfacet
facet normal -0.9999999989830046 4.50997868141438e-05 6.822449857254918e-10
  outer loop
    vertex 37.871640285559835 12.449477595678218 10.672840756397811
    vertex 37.8716403080075 12.449704826220751 29.326981722687126
    vertex 37.87165200022373 12.709218693926086 11.299911239131196
  endloop
endfacet
facet normal -0.9999999989830046 4.50997868141438e-05 6.822449857254918e-10
  outer loop
    vertex 37.87165200022373 12.709218693926086 11.299911239131196
    vertex 37.8716403080075 12.449704826220751 29.326981722687126
    vertex 37.87165202187994 12.709445924468655 28.69991123995374
  endloop
endfacet
facet normal -0.9999999989830046 4.50997868141438e-05 6.822449857254918e-10
  outer loop
    vertex 37.87165200022373 12.709218693926086 11.299911239131196
    vertex 37.87165202187994 12.709445924468655 28.69991123995374
    vertex 37.87167063527315 13.122407112260383 11.83838887021624
  endloop
endfacet
facet normal -0.9999999989830046 4.50997868141438e-05 6.822449857254918e-10
  outer loop
    vertex 37.87167063527315 13.122407112260383 11.83838887021624
    vertex 37.87165202187994 12.709445924468655 28.69991123995374
    vertex 37.871670656249734 13.12263434280298 28.161433608868695
  endloop
endfacet
facet normal -0.9999999989830046 4.50997868141438e-05 6.822449857254918e-10
  outer loop
    vertex 37.87167063527315 13.122407112260383 11.83838887021624
    vertex 37.871670656249734 13.12263434280298 28.161433608868695
    vertex 37.871694920760255 13.660884742797773 12.25157728897083
  endloop
endfacet
facet normal -0.9999999989830046 4.50997868141438e-05 6.822449857254918e-10
  outer loop
    vertex 37.871694920760255 13.660884742797773 12.25157728897083
    vertex 37.871670656249734 13.12263434280298 28.161433608868695
    vertex 37.871694941215324 13.661111973340397 27.748245190114105
  endloop
endfacet
facet normal -0.9999999989830046 4.50997868141438e-05 6.822449857254918e-10
  outer loop
    vertex 37.871694920760255 13.660884742797773 12.25157728897083
    vertex 37.871694941215324 13.661111973340397 27.748245190114105
    vertex 37.87172320166926 14.28795522489349 12.511318387482829
  endloop
endfacet
facet normal -0.9999999989830046 4.50997868141438e-05 6.822449857254918e-10
  outer loop
    vertex 37.87172320166926 14.28795522489349 12.511318387482829
    vertex 37.871694941215324 13.661111973340397 27.748245190114105
    vertex 37.8717232217965 14.288182455436134 27.488504091602106
  endloop
endfacet
facet normal -0.9999999989830046 4.50997868141438e-05 6.822449857254918e-10
  outer loop
    vertex 37.87172320166926 14.28795522489349 12.511318387482829
    vertex 37.8717232217965 14.288182455436134 27.488504091602106
    vertex 37.87175355070291 14.960884741475692 12.599911239131263
  endloop
endfacet
facet normal -0.9999999989830046 4.50997868141438e-05 6.822449857254918e-10
  outer loop
    vertex 37.87175355070291 14.960884741475692 12.599911239131263
    vertex 37.8717232217965 14.288182455436134 27.488504091602106
    vertex 37.87175357071838 14.961111972018333 27.399911239953678
  endloop
endfacet
facet normal -0.9999999989830046 4.50997868141438e-05 6.822449857254918e-10
  outer loop
    vertex 37.87175355070291 14.960884741475692 12.599911239131263
    vertex 37.87175357071838 14.961111972018333 27.399911239953678
    vertex 37.871783899624795 15.63381425805789 12.511318387482829
  endloop
endfacet
facet normal -0.9999999989830046 4.50997868141438e-05 6.822449857254918e-10
  outer loop
    vertex 37.871783899624795 15.63381425805789 12.511318387482829
    vertex 37.87175357071838 14.961111972018333 27.399911239953678
    vertex 37.87178391975204 15.634041488600532 27.48850409160211
  endloop
endfacet
facet normal -0.9999999989830046 4.50997868141438e-05 6.822449857254918e-10
  outer loop
    vertex 37.871783899624795 15.63381425805789 12.511318387482829
    vertex 37.87178391975204 15.634041488600532 27.48850409160211
    vertex 37.87181218020597 16.260884740153628 12.25157728897083
  endloop
endfacet
facet normal -0.9999999989830046 4.50997868141438e-05 6.822449857254918e-10
  outer loop
    vertex 37.87181218020597 16.260884740153628 12.25157728897083
    vertex 37.87178391975204 15.634041488600532 27.48850409160211
    vertex 37.87181220066104 16.261111970696252 27.748245190114112
  endloop
endfacet
facet normal -0.9999999989830046 4.50997868141438e-05 6.822449857254918e-10
  outer loop
    vertex 37.87181218020597 16.260884740153628 12.25157728897083
    vertex 37.87181220066104 16.261111970696252 27.748245190114112
    vertex 37.87183646517159 16.799362370691043 11.83838887021624
  endloop
endfacet
facet normal -0.9999999989830046 4.50997868141438e-05 6.822449857254918e-10
  outer loop
    vertex 37.87183646517159 16.799362370691043 11.83838887021624
    vertex 37.87181220066104 16.261111970696252 27.748245190114112
    vertex 37.871836486148176 16.79958960123364 28.1614336088687
  endloop
endfacet
facet normal -0.9999999989830046 4.50997868141438e-05 6.822449857254918e-10
  outer loop
    vertex 37.87183646517159 16.799362370691043 11.83838887021624
    vertex 37.871836486148176 16.79958960123364 28.1614336088687
    vertex 37.87185509954138 17.212550789025368 11.299911239131196
  endloop
endfacet
facet normal -0.9999999989830046 4.50997868141438e-05 6.822449857254918e-10
  outer loop
    vertex 37.87185509954138 17.212550789025368 11.299911239131196
    vertex 37.871836486148176 16.79958960123364 28.1614336088687
    vertex 37.87185512119759 17.212778019567935 28.699911239953742
  endloop
endfacet
facet normal -0.9999999989830046 4.50997868141438e-05 6.822449857254918e-10
  outer loop
    vertex 37.87185509954138 17.212550789025368 11.299911239131196
    vertex 37.87185512119759 17.212778019567935 28.699911239953742
    vertex 37.871866813413824 17.472291887273272 10.672840756397827
  endloop
endfacet
facet normal -0.9999999989830046 4.50997868141438e-05 6.822449857254918e-10
  outer loop
    vertex 37.871866813413824 17.472291887273272 10.672840756397827
    vertex 37.87185512119759 17.212778019567935 28.699911239953742
    vertex 37.87186683586148 17.472519117815807 29.32698172268713
  endloop
endfacet
facet normal -0.9999999989830046 4.50997868141438e-05 6.822449857254918e-10
  outer loop
    vertex 37.871866813413824 17.472291887273272 10.672840756397827
    vertex 37.87186683586148 17.472519117815807 29.32698172268713
    vertex 37.87187080850789 17.560884738831618 9.999911239131238
  endloop
endfacet
facet normal -0.9999999989830046 4.50997868141438e-05 6.822449857254918e-10
  outer loop
    vertex 37.87187080850789 17.560884738831618 9.999911239131238
    vertex 37.87186683586148 17.472519117815807 29.32698172268713
    vertex 37.871870831804856 17.561111969374114 29.999911239953718
  endloop
endfacet
facet normal -0.9999999989830046 4.50997868141438e-05 6.822449857254918e-10
  outer loop
    vertex 37.871189838182495 2.4612445414907986 40.00000000022851
    vertex 37.87163631291343 12.361111974662405 29.999911239953715
    vertex 37.87163628961647 12.360884744119911 9.999911239131222
  endloop
endfacet
facet normal -0.9999999989830046 4.50997868141438e-05 6.822449857254918e-10
  outer loop
    vertex 37.87163631291343 12.361111974662405 29.999911239953715
    vertex 37.871189838182495 2.4612445414907986 40.00000000022851
    vertex 37.87164030885681 12.449704826220712 30.672840757220303
  endloop
endfacet
facet normal -0.9999999989830046 4.50997868141438e-05 6.822449857254918e-10
  outer loop
    vertex 37.87164030885681 12.449704826220712 30.672840757220303
    vertex 37.871189838182495 2.4612445414907986 40.00000000022851
    vertex 37.8716520235207 12.709445924468582 31.29991123995378
  endloop
endfacet
facet normal -0.9999999989830046 4.50997868141438e-05 6.822449857254918e-10
  outer loop
    vertex 37.8716520235207 12.709445924468582 31.29991123995378
    vertex 37.871189838182495 2.4612445414907986 40.00000000022851
    vertex 37.87167065857012 13.122634342802877 31.83838887103873
  endloop
endfacet
facet normal -0.9999999989830046 4.50997868141438e-05 6.822449857254918e-10
  outer loop
    vertex 37.87167065857012 13.122634342802877 31.83838887103873
    vertex 37.871189838182495 2.4612445414907986 40.00000000022851
    vertex 37.872091833918375 22.461244515015416 39.9998224763665
  endloop
endfacet
facet normal -0.9999999989830046 4.50997868141438e-05 6.822449857254918e-10
  outer loop
    vertex 37.87167065857012 13.122634342802877 31.83838887103873
    vertex 37.872091833918375 22.461244515015416 39.9998224763665
    vertex 37.87169494405723 13.661111973340267 32.251577289793325
  endloop
endfacet
facet normal -0.9999999989830046 4.50997868141438e-05 6.822449857254918e-10
  outer loop
    vertex 37.87169494405723 13.661111973340267 32.251577289793325
    vertex 37.872091833918375 22.461244515015416 39.9998224763665
    vertex 37.87172322496623 14.288182455435992 32.51131838830532
  endloop
endfacet
facet normal -0.9999999989830046 4.50997868141438e-05 6.822449857254918e-10
  outer loop
    vertex 37.87172322496623 14.288182455435992 32.51131838830532
    vertex 37.872091833918375 22.461244515015416 39.9998224763665
    vertex 37.871753573999904 14.961111972018186 32.59991123995376
  endloop
endfacet
facet normal -0.9999999989830046 4.50997868141438e-05 6.822449857254918e-10
  outer loop
    vertex 37.871753573999904 14.961111972018186 32.59991123995376
    vertex 37.872091833918375 22.461244515015416 39.9998224763665
    vertex 37.87178392292177 15.634041488600385 32.51131838830533
  endloop
endfacet
facet normal -0.9999999989830046 4.50997868141438e-05 6.822449857254918e-10
  outer loop
    vertex 37.87178392292177 15.634041488600385 32.51131838830533
    vertex 37.872091833918375 22.461244515015416 39.9998224763665
    vertex 37.87181220350294 16.26111197069612 32.251577289793325
  endloop
endfacet
facet normal -0.9999999989830046 4.50997868141438e-05 6.822449857254918e-10
  outer loop
    vertex 37.87181220350294 16.26111197069612 32.251577289793325
    vertex 37.872091833918375 22.461244515015416 39.9998224763665
    vertex 37.87183648846856 16.799589601233535 31.838388871038738
  endloop
endfacet
facet normal -0.9999999989830046 4.50997868141438e-05 6.822449857254918e-10
  outer loop
    vertex 37.87183648846856 16.799589601233535 31.838388871038738
    vertex 37.872091833918375 22.461244515015416 39.9998224763665
    vertex 37.871855122838355 17.212778019567864 31.299911239953783
  endloop
endfacet
facet normal -0.9999999989830046 4.50997868141438e-05 6.822449857254918e-10
  outer loop
    vertex 37.871855122838355 17.212778019567864 31.299911239953783
    vertex 37.872091833918375 22.461244515015416 39.9998224763665
    vertex 37.871866836710794 17.472519117815768 30.672840757220307
  endloop
endfacet
facet normal -0.9999999989830046 4.50997868141438e-05 6.822449857254918e-10
  outer loop
    vertex 37.871866836710794 17.472519117815768 30.672840757220307
    vertex 37.872091833918375 22.461244515015416 39.9998224763665
    vertex 37.871870831804856 17.561111969374114 29.999911239953718
  endloop
endfacet
facet normal -0.9999999989830046 4.50997868141438e-05 6.822449857254918e-10
  outer loop
    vertex 37.871870831804856 17.561111969374114 29.999911239953718
    vertex 37.872091833918375 22.461244515015416 39.9998224763665
    vertex 37.87209178442448 22.46075218217315 -0.0001775236336088781
  endloop
endfacet
facet normal -0.9999999989830046 4.50997868141438e-05 6.822449857254918e-10
  outer loop
    vertex 37.87118978868859 2.460752208648532 2.284003652874844e-10
    vertex 37.87167063295276 13.12240711226049 8.161433608046202
    vertex 37.87209178442448 22.46075218217315 -0.0001775236336088781
  endloop
endfacet
facet normal -0.9999999989830046 4.50997868141438e-05 6.822449857254918e-10
  outer loop
    vertex 37.87167063295276 13.12240711226049 8.161433608046202
    vertex 37.87118978868859 2.460752208648532 2.284003652874844e-10
    vertex 37.871651998582955 12.70921869392616 8.699911239131156
  endloop
endfacet
facet normal -0.9999999989830046 4.50997868141438e-05 6.822449857254918e-10
  outer loop
    vertex 37.871651998582955 12.70921869392616 8.699911239131156
    vertex 37.87118978868859 2.460752208648532 2.284003652874844e-10
    vertex 37.87164028471052 12.449477595678257 9.326981721864634
  endloop
endfacet
facet normal -0.9999999989830046 4.50997868141438e-05 6.822449857254918e-10
  outer loop
    vertex 37.87164028471052 12.449477595678257 9.326981721864634
    vertex 37.87118978868859 2.460752208648532 2.284003652874844e-10
    vertex 37.871189838182495 2.4612445414907986 40.00000000022851
  endloop
endfacet
facet normal -0.9999999989830046 4.50997868141438e-05 6.822449857254918e-10
  outer loop
    vertex 37.87164028471052 12.449477595678257 9.326981721864634
    vertex 37.871189838182495 2.4612445414907986 40.00000000022851
    vertex 37.87163628961647 12.360884744119911 9.999911239131222
  endloop
endfacet
facet normal -0.9999999989830046 4.50997868141438e-05 6.822449857254918e-10
  outer loop
    vertex 37.87209178442448 22.46075218217315 -0.0001775236336088781
    vertex 37.87167063295276 13.12240711226049 8.161433608046202
    vertex 37.87169491791838 13.660884742797903 7.748245189291613
  endloop
endfacet
facet normal -0.9999999989830046 4.50997868141438e-05 6.822449857254918e-10
  outer loop
    vertex 37.87209178442448 22.46075218217315 -0.0001775236336088781
    vertex 37.87169491791838 13.660884742797903 7.748245189291613
    vertex 37.87172319849955 14.287955224893638 7.488504090779614
  endloop
endfacet
facet normal -0.9999999989830046 4.50997868141438e-05 6.822449857254918e-10
  outer loop
    vertex 37.87209178442448 22.46075218217315 -0.0001775236336088781
    vertex 37.87172319849955 14.287955224893638 7.488504090779614
    vertex 37.87175354742142 14.960884741475837 7.399911239131181
  endloop
endfacet
facet normal -0.9999999989830046 4.50997868141438e-05 6.822449857254918e-10
  outer loop
    vertex 37.87209178442448 22.46075218217315 -0.0001775236336088781
    vertex 37.87175354742142 14.960884741475837 7.399911239131181
    vertex 37.87178389645509 15.633814258058031 7.488504090779614
  endloop
endfacet
facet normal -0.9999999989830046 4.50997868141438e-05 6.822449857254918e-10
  outer loop
    vertex 37.87209178442448 22.46075218217315 -0.0001775236336088781
    vertex 37.87178389645509 15.633814258058031 7.488504090779614
    vertex 37.87181217736409 16.260884740153756 7.748245189291613
  endloop
endfacet
facet normal -0.9999999989830046 4.50997868141438e-05 6.822449857254918e-10
  outer loop
    vertex 37.87209178442448 22.46075218217315 -0.0001775236336088781
    vertex 37.87181217736409 16.260884740153756 7.748245189291613
    vertex 37.871836462851206 16.799362370691146 8.161433608046202
  endloop
endfacet
facet normal -0.9999999989830046 4.50997868141438e-05 6.822449857254918e-10
  outer loop
    vertex 37.87209178442448 22.46075218217315 -0.0001775236336088781
    vertex 37.871836462851206 16.799362370691146 8.161433608046202
    vertex 37.8718550979006 17.212550789025443 8.699911239131156
  endloop
endfacet
facet normal -0.9999999989830046 4.50997868141438e-05 6.822449857254918e-10
  outer loop
    vertex 37.87209178442448 22.46075218217315 -0.0001775236336088781
    vertex 37.8718550979006 17.212550789025443 8.699911239131156
    vertex 37.87186681256451 17.47229188727331 9.32698172186465
  endloop
endfacet
facet normal -0.9999999989830046 4.50997868141438e-05 6.822449857254918e-10
  outer loop
    vertex 37.87209178442448 22.46075218217315 -0.0001775236336088781
    vertex 37.87186681256451 17.47229188727331 9.32698172186465
    vertex 37.87187080850789 17.560884738831618 9.999911239131238
  endloop
endfacet
facet normal -0.9999999989830046 4.50997868141438e-05 6.822449857254918e-10
  outer loop
    vertex 37.87209178442448 22.46075218217315 -0.0001775236336088781
    vertex 37.87187080850789 17.560884738831618 9.999911239131238
    vertex 37.871870831804856 17.561111969374114 29.999911239953718
  endloop
endfacet
facet normal 5.887329203139826e-06 0.13052619208729166 0.9914448613738088
  outer loop
    vertex 41.871723193004904 14.287774825746444 7.488504088255073
    vertex 37.87175354742142 14.960884741475837 7.399911239131181
    vertex 37.87172319849955 14.287955224893638 7.488504090779614
  endloop
endfacet
facet normal 5.887329203139826e-06 0.13052619208729166 0.9914448613738088
  outer loop
    vertex 37.87175354742142 14.960884741475837 7.399911239131181
    vertex 41.871723193004904 14.287774825746444 7.488504088255073
    vertex 41.871753541926765 14.960704342328643 7.39991123660664
  endloop
endfacet
facet normal -5.886077682681523e-06 -0.13052619208734875 0.9914448613738088
  outer loop
    vertex 41.871753541926765 14.960704342328643 7.39991123660664
    vertex 37.87178389645509 15.633814258058031 7.488504090779614
    vertex 37.87175354742142 14.960884741475837 7.399911239131181
  endloop
endfacet
facet normal -5.886077682681523e-06 -0.13052619208734875 0.9914448613738088
  outer loop
    vertex 37.87178389645509 15.633814258058031 7.488504090779614
    vertex 41.871753541926765 14.960704342328643 7.39991123660664
    vertex 41.87178389096045 15.633633858910839 7.488504088255073
  endloop
endfacet
facet normal -1.7258358101624803e-05 -0.3826834319758744 0.9238795325113094
  outer loop
    vertex 41.87178389096045 15.633633858910839 7.488504088255073
    vertex 37.87181217736409 16.260884740153756 7.748245189291613
    vertex 37.87178389645509 15.633814258058031 7.488504090779614
  endloop
endfacet
facet normal -1.7258358101624803e-05 -0.3826834319758744 0.9238795325113094
  outer loop
    vertex 37.87181217736409 16.260884740153756 7.748245189291613
    vertex 41.87178389096045 15.633633858910839 7.488504088255073
    vertex 41.87181217186944 16.260704341006562 7.748245186767072
  endloop
endfacet
facet normal -2.745450993673973e-05 -0.6087614283896978 0.7933533402911874
  outer loop
    vertex 41.87181217186944 16.260704341006562 7.748245186767072
    vertex 37.871836462851206 16.799362370691146 8.161433608046202
    vertex 37.87181217736409 16.260884740153756 7.748245189291613
  endloop
endfacet
facet normal -2.745450993673973e-05 -0.6087614283896978 0.7933533402911874
  outer loop
    vertex 37.871836462851206 16.799362370691146 8.161433608046202
    vertex 41.87181217186944 16.260704341006562 7.748245186767072
    vertex 41.87183645735656 16.799181971543952 8.161433605521662
  endloop
endfacet
facet normal -3.57796822903718e-05 -0.7933533394843743 0.6087614290087747
  outer loop
    vertex 41.871855092405944 17.21237038987825 8.699911236606615
    vertex 37.871836462851206 16.799362370691146 8.161433608046202
    vertex 41.87183645735656 16.799181971543952 8.161433605521662
  endloop
endfacet
facet normal -3.57796822903718e-05 -0.7933533394843743 0.6087614290087747
  outer loop
    vertex 37.871836462851206 16.799362370691146 8.161433608046202
    vertex 41.871855092405944 17.21237038987825 8.699911236606615
    vertex 37.8718550979006 17.212550789025443 8.699911239131156
  endloop
endfacet
facet normal -4.166652842464455e-05 -0.9238795315717199 0.3826834323650815
  outer loop
    vertex 41.87186680706986 17.472111488126117 9.326981719340091
    vertex 37.8718550979006 17.212550789025443 8.699911239131156
    vertex 41.871855092405944 17.21237038987825 8.699911236606615
  endloop
endfacet
facet normal -4.166652842464455e-05 -0.9238795315717199 0.3826834323650815
  outer loop
    vertex 37.8718550979006 17.212550789025443 8.699911239131156
    vertex 41.87186680706986 17.472111488126117 9.326981719340091
    vertex 37.87186681256451 17.47229188727331 9.32698172186465
  endloop
endfacet
facet normal -4.471386950397644e-05 -0.9914448603655198 0.1305261922200476
  outer loop
    vertex 41.871870803013245 17.560704339684424 9.99991123660668
    vertex 37.87186681256451 17.47229188727331 9.32698172186465
    vertex 41.87186680706986 17.472111488126117 9.326981719340091
  endloop
endfacet
facet normal -4.471386950397644e-05 -0.9914448603655198 0.1305261922200476
  outer loop
    vertex 37.87186681256451 17.47229188727331 9.32698172186465
    vertex 41.871870803013245 17.560704339684424 9.99991123660668
    vertex 37.87187080850789 17.560884738831618 9.999911239131238
  endloop
endfacet
facet normal -4.471403426977047e-05 -0.9914448603655122 -0.1305261922200493
  outer loop
    vertex 41.871866807919176 17.472111488126078 10.672840753873269
    vertex 37.87187080850789 17.560884738831618 9.999911239131238
    vertex 41.871870803013245 17.560704339684424 9.99991123660668
  endloop
endfacet
facet normal -4.471403426977047e-05 -0.9914448603655122 -0.1305261922200493
  outer loop
    vertex 37.87187080850789 17.560884738831618 9.999911239131238
    vertex 41.871866807919176 17.472111488126078 10.672840753873269
    vertex 37.871866813413824 17.472291887273272 10.672840756397827
  endloop
endfacet
facet normal -4.1667011493518254e-05 -0.9238795315716797 -0.3826834323651262
  outer loop
    vertex 41.87185509404672 17.212370389878174 11.299911236606656
    vertex 37.871866813413824 17.472291887273272 10.672840756397827
    vertex 41.871866807919176 17.472111488126078 10.672840753873269
  endloop
endfacet
facet normal -4.1667011493518254e-05 -0.9238795315716797 -0.3826834323651262
  outer loop
    vertex 37.871866813413824 17.472291887273272 10.672840756397827
    vertex 41.87185509404672 17.212370389878174 11.299911236606656
    vertex 37.87185509954138 17.212550789025368 11.299911239131196
  endloop
endfacet
facet normal -3.578045074197353e-05 -0.7933533394843906 -0.6087614290087084
  outer loop
    vertex 41.871836459676935 16.799181971543852 11.8383888676917
    vertex 37.87185509954138 17.212550789025368 11.299911239131196
    vertex 41.87185509404672 17.212370389878174 11.299911236606656
  endloop
endfacet
facet normal -3.578045074197353e-05 -0.7933533394843906 -0.6087614290087084
  outer loop
    vertex 37.87185509954138 17.212550789025368 11.299911239131196
    vertex 41.871836459676935 16.799181971543852 11.8383888676917
    vertex 37.87183646517159 16.799362370691043 11.83838887021624
  endloop
endfacet
facet normal -2.7455511402352768e-05 -0.6087614283896492 -0.7933533402911902
  outer loop
    vertex 37.87183646517159 16.799362370691043 11.83838887021624
    vertex 41.87181217471133 16.260704341006434 12.251577286446288
    vertex 37.87181218020597 16.260884740153628 12.25157728897083
  endloop
endfacet
facet normal -2.7455511402352768e-05 -0.6087614283896492 -0.7933533402911902
  outer loop
    vertex 41.87181217471133 16.260704341006434 12.251577286446288
    vertex 37.87183646517159 16.799362370691043 11.83838887021624
    vertex 41.871836459676935 16.799181971543852 11.8383888676917
  endloop
endfacet
facet normal -1.7259524333036162e-05 -0.38268343197582316 -0.9238795325113088
  outer loop
    vertex 37.87181218020597 16.260884740153628 12.25157728897083
    vertex 41.87178389413015 15.633633858910697 12.511318384958289
    vertex 37.871783899624795 15.63381425805789 12.511318387482829
  endloop
endfacet
facet normal -1.7259524333036162e-05 -0.38268343197582316 -0.9238795325113088
  outer loop
    vertex 41.87178389413015 15.633633858910697 12.511318384958289
    vertex 37.87181218020597 16.260884740153628 12.25157728897083
    vertex 41.87181217471133 16.260704341006434 12.251577286446288
  endloop
endfacet
facet normal -5.887329203138841e-06 -0.13052619208729166 -0.9914448613738088
  outer loop
    vertex 37.871783899624795 15.63381425805789 12.511318387482829
    vertex 41.87175354520827 14.960704342328498 12.59991123660672
    vertex 37.87175355070291 14.960884741475692 12.599911239131263
  endloop
endfacet
facet normal -5.887329203138841e-06 -0.13052619208729166 -0.9914448613738088
  outer loop
    vertex 41.87175354520827 14.960704342328498 12.59991123660672
    vertex 37.871783899624795 15.63381425805789 12.511318387482829
    vertex 41.87178389413015 15.633633858910697 12.511318384958289
  endloop
endfacet
facet normal 5.8860776826814765e-06 0.13052619208734767 -0.9914448613738089
  outer loop
    vertex 37.87175355070291 14.960884741475692 12.599911239131263
    vertex 41.87172319617461 14.287774825746299 12.511318384958289
    vertex 37.87172320166926 14.28795522489349 12.511318387482829
  endloop
endfacet
facet normal 5.8860776826814765e-06 0.13052619208734767 -0.9914448613738089
  outer loop
    vertex 41.87172319617461 14.287774825746299 12.511318384958289
    vertex 37.87175355070291 14.960884741475692 12.599911239131263
    vertex 41.87175354520827 14.960704342328498 12.59991123660672
  endloop
endfacet
facet normal 1.7258358101627968e-05 0.3826834319758773 -0.9238795325113082
  outer loop
    vertex 37.87172320166926 14.28795522489349 12.511318387482829
    vertex 41.87169491526561 13.660704343650579 12.251577286446288
    vertex 37.871694920760255 13.660884742797773 12.25157728897083
  endloop
endfacet
facet normal 1.7258358101627968e-05 0.3826834319758773 -0.9238795325113082
  outer loop
    vertex 41.87169491526561 13.660704343650579 12.251577286446288
    vertex 37.87172320166926 14.28795522489349 12.511318387482829
    vertex 41.87172319617461 14.287774825746299 12.511318384958289
  endloop
endfacet
facet normal 2.745450993673512e-05 0.6087614283896978 -0.7933533402911876
  outer loop
    vertex 37.871694920760255 13.660884742797773 12.25157728897083
    vertex 41.87167062977849 13.12222671311319 11.8383888676917
    vertex 37.87167063527315 13.122407112260383 11.83838887021624
  endloop
endfacet
facet normal 2.745450993673512e-05 0.6087614283896978 -0.7933533402911876
  outer loop
    vertex 41.87167062977849 13.12222671311319 11.8383888676917
    vertex 37.871694920760255 13.660884742797773 12.25157728897083
    vertex 41.87169491526561 13.660704343650579 12.251577286446288
  endloop
endfacet
facet normal 3.577968229036788e-05 0.7933533394844237 -0.6087614290087104
  outer loop
    vertex 37.87165200022373 12.709218693926086 11.299911239131196
    vertex 41.87167062977849 13.12222671311319 11.8383888676917
    vertex 41.87165199472908 12.709038294778894 11.299911236606656
  endloop
endfacet
facet normal 3.577968229036788e-05 0.7933533394844237 -0.6087614290087104
  outer loop
    vertex 41.87167062977849 13.12222671311319 11.8383888676917
    vertex 37.87165200022373 12.709218693926086 11.299911239131196
    vertex 37.87167063527315 13.122407112260383 11.83838887021624
  endloop
endfacet
facet normal 4.166652842465074e-05 0.9238795315717003 -0.38268343236512853
  outer loop
    vertex 37.871640285559835 12.449477595678218 10.672840756397811
    vertex 41.87165199472908 12.709038294778894 11.299911236606656
    vertex 41.87164028006519 12.449297196531024 10.672840753873269
  endloop
endfacet
facet normal 4.166652842465074e-05 0.9238795315717003 -0.38268343236512853
  outer loop
    vertex 41.87165199472908 12.709038294778894 11.299911236606656
    vertex 37.871640285559835 12.449477595678218 10.672840756397811
    vertex 37.87165200022373 12.709218693926086 11.299911239131196
  endloop
endfacet
facet normal 4.471386950397836e-05 0.9914448603655198 -0.13052619222004758
  outer loop
    vertex 37.87163628961647 12.360884744119911 9.999911239131222
    vertex 41.87164028006519 12.449297196531024 10.672840753873269
    vertex 41.871636284121806 12.360704344972717 9.99991123660668
  endloop
endfacet
facet normal 4.471386950397836e-05 0.9914448603655198 -0.13052619222004758
  outer loop
    vertex 41.87164028006519 12.449297196531024 10.672840753873269
    vertex 37.87163628961647 12.360884744119911 9.999911239131222
    vertex 37.871640285559835 12.449477595678218 10.672840756397811
  endloop
endfacet
facet normal 4.471403426977283e-05 0.9914448603655122 0.1305261922200493
  outer loop
    vertex 37.87164028471052 12.449477595678257 9.326981721864634
    vertex 41.871636284121806 12.360704344972717 9.99991123660668
    vertex 41.87164027921587 12.449297196531063 9.326981719340091
  endloop
endfacet
facet normal 4.471403426977283e-05 0.9914448603655122 0.1305261922200493
  outer loop
    vertex 41.871636284121806 12.360704344972717 9.99991123660668
    vertex 37.87164028471052 12.449477595678257 9.326981721864634
    vertex 37.87163628961647 12.360884744119911 9.999911239131222
  endloop
endfacet
facet normal 4.1667011493519094e-05 0.923879531571699 0.3826834323650792
  outer loop
    vertex 37.871651998582955 12.70921869392616 8.699911239131156
    vertex 41.87164027921587 12.449297196531063 9.326981719340091
    vertex 41.87165199308831 12.709038294778967 8.699911236606615
  endloop
endfacet
facet normal 4.1667011493519094e-05 0.923879531571699 0.3826834323650792
  outer loop
    vertex 41.87164027921587 12.449297196531063 9.326981719340091
    vertex 37.871651998582955 12.70921869392616 8.699911239131156
    vertex 37.87164028471052 12.449477595678257 9.326981721864634
  endloop
endfacet
facet normal 3.578045074195855e-05 0.7933533394843373 0.6087614290087778
  outer loop
    vertex 37.87167063295276 13.12240711226049 8.161433608046202
    vertex 41.87165199308831 12.709038294778967 8.699911236606615
    vertex 41.8716706274581 13.122226713113296 8.161433605521662
  endloop
endfacet
facet normal 3.578045074195855e-05 0.7933533394843373 0.6087614290087778
  outer loop
    vertex 41.87165199308831 12.709038294778967 8.699911236606615
    vertex 37.87167063295276 13.12240711226049 8.161433608046202
    vertex 37.871651998582955 12.70921869392616 8.699911239131156
  endloop
endfacet
facet normal 2.745551140234831e-05 0.6087614283896532 0.7933533402911872
  outer loop
    vertex 41.8716706274581 13.122226713113296 8.161433605521662
    vertex 37.87169491791838 13.660884742797903 7.748245189291613
    vertex 37.87167063295276 13.12240711226049 8.161433608046202
  endloop
endfacet
facet normal 2.745551140234831e-05 0.6087614283896532 0.7933533402911872
  outer loop
    vertex 37.87169491791838 13.660884742797903 7.748245189291613
    vertex 41.8716706274581 13.122226713113296 8.161433605521662
    vertex 41.87169491242373 13.660704343650709 7.748245186767072
  endloop
endfacet
facet normal 1.7259524333033252e-05 0.3826834319758231 0.9238795325113088
  outer loop
    vertex 41.87169491242373 13.660704343650709 7.748245186767072
    vertex 37.87172319849955 14.287955224893638 7.488504090779614
    vertex 37.87169491791838 13.660884742797903 7.748245189291613
  endloop
endfacet
facet normal 1.7259524333033252e-05 0.3826834319758231 0.9238795325113088
  outer loop
    vertex 37.87172319849955 14.287955224893638 7.488504090779614
    vertex 41.87169491242373 13.660704343650709 7.748245186767072
    vertex 41.871723193004904 14.287774825746444 7.488504088255073
  endloop
endfacet
facet normal -4.4713869516538e-05 -0.9914448603655198 0.1305261922200476
  outer loop
    vertex 41.871870825882525 17.560931570226938 29.999911237429444
    vertex 37.87186683586148 17.472519117815807 29.32698172268713
    vertex 41.871866829939144 17.47233871866863 29.326981720162856
  endloop
endfacet
facet normal -4.4713869516538e-05 -0.9914448603655198 0.1305261922200476
  outer loop
    vertex 37.87186683586148 17.472519117815807 29.32698172268713
    vertex 41.871870825882525 17.560931570226938 29.999911237429444
    vertex 37.871870831804856 17.561111969374114 29.999911239953718
  endloop
endfacet
facet normal -4.4714034258775e-05 -0.9914448603655122 -0.1305261922200493
  outer loop
    vertex 41.87186683078846 17.472338718668592 30.672840754696033
    vertex 37.871870831804856 17.561111969374114 29.999911239953718
    vertex 41.871870825882525 17.560931570226938 29.999911237429444
  endloop
endfacet
facet normal -4.4714034258775e-05 -0.9914448603655122 -0.1305261922200493
  outer loop
    vertex 37.871870831804856 17.561111969374114 29.999911239953718
    vertex 41.87186683078846 17.472338718668592 30.672840754696033
    vertex 37.871866836710794 17.472519117815768 30.672840757220307
  endloop
endfacet
facet normal -4.166701145971629e-05 -0.923879531571699 -0.3826834323650792
  outer loop
    vertex 41.871855116916024 17.212597620420688 31.29991123742951
    vertex 37.871866836710794 17.472519117815768 30.672840757220307
    vertex 41.87186683078846 17.472338718668592 30.672840754696033
  endloop
endfacet
facet normal -4.166701145971629e-05 -0.923879531571699 -0.3826834323650792
  outer loop
    vertex 37.871866836710794 17.472519117815768 30.672840757220307
    vertex 41.871855116916024 17.212597620420688 31.29991123742951
    vertex 37.871855122838355 17.212778019567864 31.299911239953783
  endloop
endfacet
facet normal -3.578045068765636e-05 -0.7933533394843373 -0.6087614290087778
  outer loop
    vertex 41.87183648254623 16.799409202086355 31.83838886851446
    vertex 37.871855122838355 17.212778019567864 31.299911239953783
    vertex 41.871855116916024 17.212597620420688 31.29991123742951
  endloop
endfacet
facet normal -3.578045068765636e-05 -0.7933533394843373 -0.6087614290087778
  outer loop
    vertex 37.871855122838355 17.212778019567864 31.299911239953783
    vertex 41.87183648254623 16.799409202086355 31.83838886851446
    vertex 37.87183648846856 16.799589601233535 31.838388871038738
  endloop
endfacet
facet normal -2.745551133123557e-05 -0.6087614283896532 -0.793353340291187
  outer loop
    vertex 37.87183648846856 16.799589601233535 31.838388871038738
    vertex 41.87181219758061 16.260931571548944 32.25157728726905
    vertex 37.87181220350294 16.26111197069612 32.251577289793325
  endloop
endfacet
facet normal -2.745551133123557e-05 -0.6087614283896532 -0.793353340291187
  outer loop
    vertex 41.87181219758061 16.260931571548944 32.25157728726905
    vertex 37.87183648846856 16.799589601233535 31.838388871038738
    vertex 41.87183648254623 16.799409202086355 31.83838886851446
  endloop
endfacet
facet normal -1.7259524249965313e-05 -0.38268343197582333 -0.9238795325113088
  outer loop
    vertex 37.87181220350294 16.26111197069612 32.251577289793325
    vertex 41.871783916999426 15.633861089453209 32.51131838578105
    vertex 37.87178392292177 15.634041488600385 32.51131838830533
  endloop
endfacet
facet normal -1.7259524249965313e-05 -0.38268343197582333 -0.9238795325113088
  outer loop
    vertex 41.871783916999426 15.633861089453209 32.51131838578105
    vertex 37.87181220350294 16.26111197069612 32.251577289793325
    vertex 41.87181219758061 16.260931571548944 32.25157728726905
  endloop
endfacet
facet normal -5.887329113776348e-06 -0.13052619208729171 -0.9914448613738088
  outer loop
    vertex 37.87178392292177 15.634041488600385 32.51131838830533
    vertex 41.87175356807757 14.96093157287101 32.59991123742948
    vertex 37.871753573999904 14.961111972018186 32.59991123995376
  endloop
endfacet
facet normal -5.887329113776348e-06 -0.13052619208729171 -0.9914448613738088
  outer loop
    vertex 41.87175356807757 14.96093157287101 32.59991123742948
    vertex 37.87178392292177 15.634041488600385 32.51131838830533
    vertex 41.871783916999426 15.633861089453209 32.51131838578105
  endloop
endfacet
facet normal 5.886077772249048e-06 0.13052619208734872 -0.9914448613738088
  outer loop
    vertex 37.871753573999904 14.961111972018186 32.59991123995376
    vertex 41.87172321904389 14.288002056288816 32.51131838578105
    vertex 37.87172322496623 14.288182455435992 32.51131838830532
  endloop
endfacet
facet normal 5.886077772249048e-06 0.13052619208734872 -0.9914448613738088
  outer loop
    vertex 41.87172321904389 14.288002056288816 32.51131838578105
    vertex 37.871753573999904 14.961111972018186 32.59991123995376
    vertex 41.87175356807757 14.96093157287101 32.59991123742948
  endloop
endfacet
facet normal 1.7258358185301572e-05 0.38268343197587434 -0.9238795325113094
  outer loop
    vertex 37.87172322496623 14.288182455435992 32.51131838830532
    vertex 41.87169493813489 13.660931574193091 32.25157728726905
    vertex 37.87169494405723 13.661111973340267 32.251577289793325
  endloop
endfacet
facet normal 1.7258358185301572e-05 0.38268343197587434 -0.9238795325113094
  outer loop
    vertex 41.87169493813489 13.660931574193091 32.25157728726905
    vertex 37.87172322496623 14.288182455435992 32.51131838830532
    vertex 41.87172321904389 14.288002056288816 32.51131838578105
  endloop
endfacet
facet normal 2.745451000881146e-05 0.6087614283896978 -0.7933533402911874
  outer loop
    vertex 37.87169494405723 13.661111973340267 32.251577289793325
    vertex 41.871670652647786 13.122453943655701 31.83838886851446
    vertex 37.87167065857012 13.122634342802877 31.83838887103873
  endloop
endfacet
facet normal 2.745451000881146e-05 0.6087614283896978 -0.7933533402911874
  outer loop
    vertex 41.871670652647786 13.122453943655701 31.83838886851446
    vertex 37.87169494405723 13.661111973340267 32.251577289793325
    vertex 41.87169493813489 13.660931574193091 32.25157728726905
  endloop
endfacet
facet normal 3.5779682345937014e-05 0.7933533394843744 -0.6087614290087748
  outer loop
    vertex 37.8716520235207 12.709445924468582 31.29991123995378
    vertex 41.871670652647786 13.122453943655701 31.83838886851446
    vertex 41.87165201759837 12.709265525321406 31.29991123742951
  endloop
endfacet
facet normal 3.5779682345937014e-05 0.7933533394843744 -0.6087614290087748
  outer loop
    vertex 41.871670652647786 13.122453943655701 31.83838886851446
    vertex 37.8716520235207 12.709445924468582 31.29991123995378
    vertex 37.87167065857012 13.122634342802877 31.83838887103873
  endloop
endfacet
facet normal 4.166652845991619e-05 0.9238795315717199 -0.3826834323650815
  outer loop
    vertex 37.87164030885681 12.449704826220712 30.672840757220303
    vertex 41.87165201759837 12.709265525321406 31.29991123742951
    vertex 41.87164030293448 12.449524427073536 30.672840754696033
  endloop
endfacet
facet normal 4.166652845991619e-05 0.9238795315717199 -0.3826834323650815
  outer loop
    vertex 41.87165201759837 12.709265525321406 31.29991123742951
    vertex 37.87164030885681 12.449704826220712 30.672840757220303
    vertex 37.8716520235207 12.709445924468582 31.29991123995378
  endloop
endfacet
facet normal 4.4713869516538e-05 0.9914448603655198 -0.13052619222004763
  outer loop
    vertex 37.87163631291343 12.361111974662405 29.999911239953715
    vertex 41.87164030293448 12.449524427073536 30.672840754696033
    vertex 41.871636306991086 12.36093157551523 29.999911237429444
  endloop
endfacet
facet normal 4.4713869516538e-05 0.9914448603655198 -0.13052619222004763
  outer loop
    vertex 41.87164030293448 12.449524427073536 30.672840754696033
    vertex 37.87163631291343 12.361111974662405 29.999911239953715
    vertex 37.87164030885681 12.449704826220712 30.672840757220303
  endloop
endfacet
facet normal 4.471403425877619e-05 0.9914448603655122 0.1305261922200493
  outer loop
    vertex 37.8716403080075 12.449704826220751 29.326981722687126
    vertex 41.871636306991086 12.36093157551523 29.999911237429444
    vertex 41.871640302085154 12.449524427073575 29.326981720162856
  endloop
endfacet
facet normal 4.471403425877619e-05 0.9914448603655122 0.1305261922200493
  outer loop
    vertex 41.871636306991086 12.36093157551523 29.999911237429444
    vertex 37.8716403080075 12.449704826220751 29.326981722687126
    vertex 37.87163631291343 12.361111974662405 29.999911239953715
  endloop
endfacet
facet normal 4.166701145970732e-05 0.9238795315716795 0.38268343236512614
  outer loop
    vertex 37.87165202187994 12.709445924468655 28.69991123995374
    vertex 41.871640302085154 12.449524427073575 29.326981720162856
    vertex 41.87165201595761 12.709265525321479 28.69991123742947
  endloop
endfacet
facet normal 4.166701145970732e-05 0.9238795315716795 0.38268343236512614
  outer loop
    vertex 41.871640302085154 12.449524427073575 29.326981720162856
    vertex 37.87165202187994 12.709445924468655 28.69991123995374
    vertex 37.8716403080075 12.449704826220751 29.326981722687126
  endloop
endfacet
facet normal 3.578045068766725e-05 0.7933533394843905 0.6087614290087084
  outer loop
    vertex 37.871670656249734 13.12263434280298 28.161433608868695
    vertex 41.87165201595761 12.709265525321479 28.69991123742947
    vertex 41.87167065032739 13.122453943655803 28.161433606344424
  endloop
endfacet
facet normal 3.578045068766725e-05 0.7933533394843905 0.6087614290087084
  outer loop
    vertex 41.87165201595761 12.709265525321479 28.69991123742947
    vertex 37.871670656249734 13.12263434280298 28.161433608868695
    vertex 37.87165202187994 12.709445924468655 28.69991123995374
  endloop
endfacet
facet normal 2.7455511331237802e-05 0.6087614283896491 0.7933533402911904
  outer loop
    vertex 41.87167065032739 13.122453943655803 28.161433606344424
    vertex 37.871694941215324 13.661111973340397 27.748245190114105
    vertex 37.871670656249734 13.12263434280298 28.161433608868695
  endloop
endfacet
facet normal 2.7455511331237802e-05 0.6087614283896491 0.7933533402911904
  outer loop
    vertex 37.871694941215324 13.661111973340397 27.748245190114105
    vertex 41.87167065032739 13.122453943655803 28.161433606344424
    vertex 41.871694935292986 13.66093157419322 27.748245187589834
  endloop
endfacet
facet normal 1.7259524249969904e-05 0.38268343197582333 0.9238795325113088
  outer loop
    vertex 41.871694935292986 13.66093157419322 27.748245187589834
    vertex 37.8717232217965 14.288182455436134 27.488504091602106
    vertex 37.871694941215324 13.661111973340397 27.748245190114105
  endloop
endfacet
facet normal 1.7259524249969904e-05 0.38268343197582333 0.9238795325113088
  outer loop
    vertex 37.8717232217965 14.288182455436134 27.488504091602106
    vertex 41.871694935292986 13.66093157419322 27.748245187589834
    vertex 41.87172321587417 14.288002056288956 27.488504089077836
  endloop
endfacet
facet normal 5.887329113775794e-06 0.1305261920872917 0.9914448613738088
  outer loop
    vertex 41.87172321587417 14.288002056288956 27.488504089077836
    vertex 37.87175357071838 14.961111972018333 27.399911239953678
    vertex 37.8717232217965 14.288182455436134 27.488504091602106
  endloop
endfacet
facet normal 5.887329113775794e-06 0.1305261920872917 0.9914448613738088
  outer loop
    vertex 37.87175357071838 14.961111972018333 27.399911239953678
    vertex 41.87172321587417 14.288002056288956 27.488504089077836
    vertex 41.87175356479605 14.960931572871157 27.399911237429404
  endloop
endfacet
facet normal -5.886077772249126e-06 -0.1305261920873477 0.9914448613738089
  outer loop
    vertex 41.87175356479605 14.960931572871157 27.399911237429404
    vertex 37.87178391975204 15.634041488600532 27.48850409160211
    vertex 37.87175357071838 14.961111972018333 27.399911239953678
  endloop
endfacet
facet normal -5.886077772249126e-06 -0.1305261920873477 0.9914448613738089
  outer loop
    vertex 37.87178391975204 15.634041488600532 27.48850409160211
    vertex 41.87175356479605 14.960931572871157 27.399911237429404
    vertex 41.87178391382971 15.633861089453356 27.488504089077836
  endloop
endfacet
facet normal -1.7258358185294064e-05 -0.3826834319758773 0.9238795325113082
  outer loop
    vertex 41.87178391382971 15.633861089453356 27.488504089077836
    vertex 37.87181220066104 16.261111970696252 27.748245190114112
    vertex 37.87178391975204 15.634041488600532 27.48850409160211
  endloop
endfacet
facet normal -1.7258358185294064e-05 -0.3826834319758773 0.9238795325113082
  outer loop
    vertex 37.87181220066104 16.261111970696252 27.748245190114112
    vertex 41.87178391382971 15.633861089453356 27.488504089077836
    vertex 41.87181219473871 16.260931571549076 27.748245187589834
  endloop
endfacet
facet normal -2.7454510008810715e-05 -0.6087614283896978 0.7933533402911874
  outer loop
    vertex 41.87181219473871 16.260931571549076 27.748245187589834
    vertex 37.871836486148176 16.79958960123364 28.1614336088687
    vertex 37.87181220066104 16.261111970696252 27.748245190114112
  endloop
endfacet
facet normal -2.7454510008810715e-05 -0.6087614283896978 0.7933533402911874
  outer loop
    vertex 37.871836486148176 16.79958960123364 28.1614336088687
    vertex 41.87181219473871 16.260931571549076 27.748245187589834
    vertex 41.871836480225845 16.799409202086466 28.161433606344424
  endloop
endfacet
facet normal -3.5779682345939114e-05 -0.7933533394844237 0.6087614290087106
  outer loop
    vertex 41.87185511527526 17.21259762042076 28.69991123742947
    vertex 37.871836486148176 16.79958960123364 28.1614336088687
    vertex 41.871836480225845 16.799409202086466 28.161433606344424
  endloop
endfacet
facet normal -3.5779682345939114e-05 -0.7933533394844237 0.6087614290087106
  outer loop
    vertex 37.871836486148176 16.79958960123364 28.1614336088687
    vertex 41.87185511527526 17.21259762042076 28.69991123742947
    vertex 37.87185512119759 17.212778019567935 28.699911239953742
  endloop
endfacet
facet normal -4.1666528459910526e-05 -0.9238795315717003 0.3826834323651284
  outer loop
    vertex 41.871866829939144 17.47233871866863 29.326981720162856
    vertex 37.87185512119759 17.212778019567935 28.699911239953742
    vertex 41.87185511527526 17.21259762042076 28.69991123742947
  endloop
endfacet
facet normal -4.1666528459910526e-05 -0.9238795315717003 0.3826834323651284
  outer loop
    vertex 37.87185512119759 17.212778019567935 28.699911239953742
    vertex 41.871866829939144 17.47233871866863 29.326981720162856
    vertex 37.87186683586148 17.472519117815807 29.32698172268713
  endloop
endfacet
facet normal -0.7048490916247883 -5.414587370936383e-12 0.7093572851784289
  outer loop
    vertex 4.742560383885272 2.4657949560385957 25.800608158151537
    vertex 2.5459566088733077 12.465794956055271 23.617964506253085
    vertex 2.545956608873296 2.465794956055267 23.617964506176744
  endloop
endfacet
facet normal -0.7048490916247883 -5.414587370936383e-12 0.7093572851784289
  outer loop
    vertex 2.5459566088733077 12.465794956055271 23.617964506253085
    vertex 4.742560383885272 2.4657949560385957 25.800608158151537
    vertex 4.742560383885283 12.4657949560386 25.800608158227877
  endloop
endfacet
facet normal -5.686300388885185e-12 -7.636815192980727e-12 1.0
  outer loop
    vertex 11.888114449589612 2.4657949560385903 25.800608158192166
    vertex 4.742560383885283 12.4657949560386 25.800608158227877
    vertex 4.742560383885272 2.4657949560385957 25.800608158151537
  endloop
endfacet
facet normal -5.686300388885185e-12 -7.636815192980727e-12 1.0
  outer loop
    vertex 4.742560383885283 12.4657949560386 25.800608158227877
    vertex 11.888114449589612 2.4657949560385903 25.800608158192166
    vertex 11.888114449589624 12.465794956038595 25.80060815826851
  endloop
endfacet
facet normal 0.7048490916167136 -5.416173461804306e-12 0.7093572851864522
  outer loop
    vertex 32.831488606553954 2.4657949560552392 23.617964506348958
    vertex 30.634884831517123 12.465794956038577 25.80060815837511
    vertex 30.634884831517113 2.465794956038573 25.80060815829877
  endloop
endfacet
facet normal 0.7048490916167136 -5.416173461804306e-12 0.7093572851864522
  outer loop
    vertex 30.634884831517123 12.465794956038577 25.80060815837511
    vertex 32.831488606553954 2.4657949560552392 23.617964506348958
    vertex 32.83148860655397 12.465794956055243 23.6179645064253
  endloop
endfacet
facet normal 5.686300388885185e-12 7.636815192980727e-12 -1.0
  outer loop
    vertex 4.742560383951249 12.465794956127198 14.199391842004685
    vertex 11.88811444965558 2.465794956127188 14.199391841968971
    vertex 4.742560383951238 2.4657949561271937 14.199391841928342
  endloop
endfacet
facet normal 5.686300388885185e-12 7.636815192980727e-12 -1.0
  outer loop
    vertex 11.88811444965558 2.465794956127188 14.199391841968971
    vertex 4.742560383951249 12.465794956127198 14.199391842004685
    vertex 11.88811444965559 12.465794956127187 14.199391842045314
  endloop
endfacet
facet normal 0.7093572851784362 -5.381770784213538e-12 0.7048490916247809
  outer loop
    vertex 23.489330765772134 2.4657949559840127 32.946162223962496
    vertex 21.30668711379739 12.465794955967239 35.142765999050795
    vertex 21.306687113797377 2.4657949559672394 35.142765998974454
  endloop
endfacet
facet normal 0.7093572851784362 -5.381770784213538e-12 0.7048490916247809
  outer loop
    vertex 21.30668711379739 12.465794955967239 35.142765999050795
    vertex 23.489330765772134 2.4657949559840127 32.946162223962496
    vertex 23.489330765772145 12.46579495598401 32.94616222403884
  endloop
endfacet
facet normal 1.0 -9.228728892196606e-16 5.686300388885178e-12
  outer loop
    vertex 23.489330765812763 2.465794956038579 25.800608158258132
    vertex 23.489330765772145 12.46579495598401 32.94616222403884
    vertex 23.489330765772134 2.4657949559840127 32.946162223962496
  endloop
endfacet
facet normal 1.0 -9.228728892196606e-16 5.686300388885178e-12
  outer loop
    vertex 23.489330765772145 12.46579495598401 32.94616222403884
    vertex 23.489330765812763 2.465794956038579 25.800608158258132
    vertex 23.489330765812774 12.465794956038582 25.800608158334473
  endloop
endfacet
facet normal 0.7048490916247809 5.4145876736636705e-12 -0.7093572851784362
  outer loop
    vertex 30.634884831583094 12.46579495612717 14.199391842151915
    vertex 32.831488606595094 2.4657949561104995 16.382035494050363
    vertex 30.634884831583083 2.465794956127171 14.199391842075572
  endloop
endfacet
facet normal 0.7048490916247809 5.4145876736636705e-12 -0.7093572851784362
  outer loop
    vertex 32.831488606595094 2.4657949561104995 16.382035494050363
    vertex 30.634884831583094 12.46579495612717 14.199391842151915
    vertex 32.83148860659511 12.465794956110503 16.382035494126704
  endloop
endfacet
facet normal -1.0 9.228728892196606e-16 -5.686300388885178e-12
  outer loop
    vertex 11.888114449548997 12.465794955984022 32.946162223972856
    vertex 11.888114449589612 2.4657949560385903 25.800608158192166
    vertex 11.888114449548985 2.4657949559840238 32.946162223896515
  endloop
endfacet
facet normal -1.0 9.228728892196606e-16 -5.686300388885178e-12
  outer loop
    vertex 11.888114449589612 2.4657949560385903 25.800608158192166
    vertex 11.888114449548997 12.465794955984022 32.946162223972856
    vertex 11.888114449589624 12.465794956038595 25.80060815826851
  endloop
endfacet
facet normal -0.7048490916167209 5.416196925453601e-12 -0.7093572851864449
  outer loop
    vertex 2.545956608914453 12.465794956110527 16.382035493954493
    vertex 4.742560383951238 2.4657949561271937 14.199391841928342
    vertex 2.5459566089144414 2.4657949561105275 16.38203549387815
  endloop
endfacet
facet normal -0.7048490916167209 5.416196925453601e-12 -0.7093572851864449
  outer loop
    vertex 4.742560383951238 2.4657949561271937 14.199391841928342
    vertex 2.545956608914453 12.465794956110527 16.382035493954493
    vertex 4.742560383951249 12.465794956127198 14.199391842004685
  endloop
endfacet
facet normal 5.686300388885185e-12 7.636815192980727e-12 -1.0
  outer loop
    vertex 23.489330765878744 12.465794956127175 14.199391842111284
    vertex 30.634884831583083 2.465794956127171 14.199391842075572
    vertex 23.489330765878734 2.4657949561271764 14.199391842034942
  endloop
endfacet
facet normal 5.686300388885185e-12 7.636815192980727e-12 -1.0
  outer loop
    vertex 30.634884831583083 2.465794956127171 14.199391842075572
    vertex 23.489330765878744 12.465794956127175 14.199391842111284
    vertex 30.634884831583094 12.46579495612717 14.199391842151915
  endloop
endfacet
facet normal -1.0 9.228728892196606e-16 -5.686300388885178e-12
  outer loop
    vertex 11.88811444965559 12.465794956127187 14.199391842045314
    vertex 11.888114449696216 2.46579495618176 7.053837776264625
    vertex 11.88811444965558 2.465794956127188 14.199391841968971
  endloop
endfacet
facet normal -1.0 9.228728892196606e-16 -5.686300388885178e-12
  outer loop
    vertex 11.888114449696216 2.46579495618176 7.053837776264625
    vertex 11.88811444965559 12.465794956127187 14.199391842045314
    vertex 11.888114449696227 12.465794956181758 7.053837776340967
  endloop
endfacet
facet normal -5.686300388885185e-12 -7.636815192980727e-12 1.0
  outer loop
    vertex 30.634884831517113 2.465794956038573 25.80060815829877
    vertex 23.489330765812774 12.465794956038582 25.800608158334473
    vertex 23.489330765812763 2.465794956038579 25.800608158258132
  endloop
endfacet
facet normal -5.686300388885185e-12 -7.636815192980727e-12 1.0
  outer loop
    vertex 23.489330765812774 12.465794956038582 25.800608158334473
    vertex 30.634884831517113 2.465794956038573 25.80060815829877
    vertex 30.634884831517123 12.465794956038577 25.80060815837511
  endloop
endfacet
facet normal -0.7093572851864449 -5.3801756115286736e-12 0.7048490916167209
  outer loop
    vertex 14.070758101498795 12.465794955967244 35.14276599900966
    vertex 11.888114449548985 2.4657949559840238 32.946162223896515
    vertex 14.070758101498784 2.465794955967245 35.14276599893332
  endloop
endfacet
facet normal -0.7093572851864449 -5.3801756115286736e-12 0.7048490916167209
  outer loop
    vertex 11.888114449548985 2.4657949559840238 32.946162223896515
    vertex 14.070758101498795 12.465794955967244 35.14276599900966
    vertex 11.888114449548997 12.465794955984022 32.946162223972856
  endloop
endfacet
facet normal 0.7093572851864531 5.382147605040714e-12 -0.7048490916167126
  outer loop
    vertex 21.306687113969595 2.4859269561985275 4.857234001293256
    vertex 23.489330765919377 12.465794956181748 7.0538377764069375
    vertex 23.489330765919366 2.4657949561817487 7.053837776330595
  endloop
endfacet
facet normal 0.7093572851864531 5.382147605040714e-12 -0.7048490916167126
  outer loop
    vertex 23.489330765919377 12.465794956181748 7.0538377764069375
    vertex 21.306687113969595 2.4859269561985275 4.857234001293256
    vertex 21.306687113969602 12.465794956198526 4.8572340013701405
  endloop
endfacet
facet normal -0.7093572851784371 5.383456898255245e-12 -0.7048490916247799
  outer loop
    vertex 11.888114449696227 12.465794956181758 7.053837776340967
    vertex 14.070758101671005 2.4859269561985387 4.857234001252113
    vertex 11.888114449696216 2.46579495618176 7.053837776264625
  endloop
endfacet
facet normal -0.7093572851784371 5.383456898255245e-12 -0.7048490916247799
  outer loop
    vertex 14.070758101671005 2.4859269561985387 4.857234001252113
    vertex 11.888114449696227 12.465794956181758 7.053837776340967
    vertex 14.070758101671007 12.46579495619853 4.8572340013289965
  endloop
endfacet
facet normal 1.0 -9.228728892196606e-16 5.686300388885178e-12
  outer loop
    vertex 23.489330765919366 2.4657949561817487 7.053837776330595
    vertex 23.489330765878744 12.465794956127175 14.199391842111284
    vertex 23.489330765878734 2.4657949561271764 14.199391842034942
  endloop
endfacet
facet normal 1.0 -9.228728892196606e-16 5.686300388885178e-12
  outer loop
    vertex 23.489330765878744 12.465794956127175 14.199391842111284
    vertex 23.489330765919366 2.4657949561817487 7.053837776330595
    vertex 23.489330765919377 12.465794956181748 7.0538377764069375
  endloop
endfacet
facet normal 1.0 -1.1279865930191585e-15 5.686300388885169e-12
  outer loop
    vertex 32.831488606595094 2.4657949561104995 16.382035494050363
    vertex 32.83148860655397 12.465794956055243 23.6179645064253
    vertex 32.831488606553954 2.4657949560552392 23.617964506348958
  endloop
endfacet
facet normal 1.0 -1.1279865930191585e-15 5.686300388885169e-12
  outer loop
    vertex 32.83148860655397 12.465794956055243 23.6179645064253
    vertex 32.831488606595094 2.4657949561104995 16.382035494050363
    vertex 32.83148860659511 12.465794956110503 16.382035494126704
  endloop
endfacet
facet normal 9.052706560005402e-16 1.0 7.636835192126928e-12
  outer loop
    vertex 11.888114449548997 12.465794955984022 32.946162223972856
    vertex 23.489330765812774 12.465794956038582 25.800608158334473
    vertex 11.888114449589624 12.465794956038595 25.80060815826851
  endloop
endfacet
facet normal 9.052706560005402e-16 1.0 7.636835192126928e-12
  outer loop
    vertex 23.489330765812774 12.465794956038582 25.800608158334473
    vertex 11.888114449548997 12.465794955984022 32.946162223972856
    vertex 23.489330765772145 12.46579495598401 32.94616222403884
  endloop
endfacet
facet normal 9.052706560005402e-16 1.0 7.636835192126928e-12
  outer loop
    vertex 23.489330765772145 12.46579495598401 32.94616222403884
    vertex 11.888114449548997 12.465794955984022 32.946162223972856
    vertex 14.070758101498795 12.465794955967244 35.14276599900966
  endloop
endfacet
facet normal 9.052706560005402e-16 1.0 7.636835192126928e-12
  outer loop
    vertex 23.489330765772145 12.46579495598401 32.94616222403884
    vertex 14.070758101498795 12.465794955967244 35.14276599900966
    vertex 21.30668711379739 12.465794955967239 35.142765999050795
  endloop
endfacet
facet normal 9.052706560005402e-16 1.0 7.636835192126928e-12
  outer loop
    vertex 2.545956608914453 12.465794956110527 16.382035493954493
    vertex 11.88811444965559 12.465794956127187 14.199391842045314
    vertex 4.742560383951249 12.465794956127198 14.199391842004685
  endloop
endfacet
facet normal 9.052706560005402e-16 1.0 7.636835192126928e-12
  outer loop
    vertex 11.88811444965559 12.465794956127187 14.199391842045314
    vertex 2.545956608914453 12.465794956110527 16.382035493954493
    vertex 23.489330765878744 12.465794956127175 14.199391842111284
  endloop
endfacet
facet normal 9.052706560005402e-16 1.0 7.636835192126928e-12
  outer loop
    vertex 23.489330765878744 12.465794956127175 14.199391842111284
    vertex 2.545956608914453 12.465794956110527 16.382035493954493
    vertex 30.634884831583094 12.46579495612717 14.199391842151915
  endloop
endfacet
facet normal 9.052706560005402e-16 1.0 7.636835192126928e-12
  outer loop
    vertex 30.634884831583094 12.46579495612717 14.199391842151915
    vertex 2.545956608914453 12.465794956110527 16.382035493954493
    vertex 32.83148860659511 12.465794956110503 16.382035494126704
  endloop
endfacet
facet normal 9.052706560005402e-16 1.0 7.636835192126928e-12
  outer loop
    vertex 32.83148860659511 12.465794956110503 16.382035494126704
    vertex 2.545956608914453 12.465794956110527 16.382035493954493
    vertex 2.5459566088733077 12.465794956055271 23.617964506253085
  endloop
endfacet
facet normal 9.052706560005402e-16 1.0 7.636835192126928e-12
  outer loop
    vertex 32.83148860659511 12.465794956110503 16.382035494126704
    vertex 2.5459566088733077 12.465794956055271 23.617964506253085
    vertex 32.83148860655397 12.465794956055243 23.6179645064253
  endloop
endfacet
facet normal 9.052706560005402e-16 1.0 7.636835192126928e-12
  outer loop
    vertex 32.83148860655397 12.465794956055243 23.6179645064253
    vertex 2.5459566088733077 12.465794956055271 23.617964506253085
    vertex 4.742560383885283 12.4657949560386 25.800608158227877
  endloop
endfacet
facet normal 9.052706560005402e-16 1.0 7.636835192126928e-12
  outer loop
    vertex 32.83148860655397 12.465794956055243 23.6179645064253
    vertex 4.742560383885283 12.4657949560386 25.800608158227877
    vertex 23.489330765812774 12.465794956038582 25.800608158334473
  endloop
endfacet
facet normal 9.052706560005402e-16 1.0 7.636835192126928e-12
  outer loop
    vertex 32.83148860655397 12.465794956055243 23.6179645064253
    vertex 23.489330765812774 12.465794956038582 25.800608158334473
    vertex 30.634884831517123 12.465794956038577 25.80060815837511
  endloop
endfacet
facet normal 9.052706560005402e-16 1.0 7.636835192126928e-12
  outer loop
    vertex 23.489330765812774 12.465794956038582 25.800608158334473
    vertex 4.742560383885283 12.4657949560386 25.800608158227877
    vertex 11.888114449589624 12.465794956038595 25.80060815826851
  endloop
endfacet
facet normal 9.052706560005402e-16 1.0 7.636835192126928e-12
  outer loop
    vertex 11.888114449696227 12.465794956181758 7.053837776340967
    vertex 21.306687113969602 12.465794956198526 4.8572340013701405
    vertex 14.070758101671007 12.46579495619853 4.8572340013289965
  endloop
endfacet
facet normal 9.052706560005402e-16 1.0 7.636835192126928e-12
  outer loop
    vertex 21.306687113969602 12.465794956198526 4.8572340013701405
    vertex 11.888114449696227 12.465794956181758 7.053837776340967
    vertex 23.489330765919377 12.465794956181748 7.0538377764069375
  endloop
endfacet
facet normal 9.052706560005402e-16 1.0 7.636835192126928e-12
  outer loop
    vertex 23.489330765919377 12.465794956181748 7.0538377764069375
    vertex 11.888114449696227 12.465794956181758 7.053837776340967
    vertex 11.88811444965559 12.465794956127187 14.199391842045314
  endloop
endfacet
facet normal 9.052706560005402e-16 1.0 7.636835192126928e-12
  outer loop
    vertex 23.489330765919377 12.465794956181748 7.0538377764069375
    vertex 11.88811444965559 12.465794956127187 14.199391842045314
    vertex 23.489330765878744 12.465794956127175 14.199391842111284
  endloop
endfacet
facet normal -5.686300388885183e-12 -7.634213261553669e-12 1.0
  outer loop
    vertex 21.306687113797377 2.4657949559672394 35.142765998974454
    vertex 14.070758101498795 12.465794955967244 35.14276599900966
    vertex 14.070758101498784 2.465794955967245 35.14276599893332
  endloop
endfacet
facet normal -5.686300388885183e-12 -7.634213261553669e-12 1.0
  outer loop
    vertex 14.070758101498795 12.465794955967244 35.14276599900966
    vertex 21.306687113797377 2.4657949559672394 35.142765998974454
    vertex 21.30668711379739 12.465794955967239 35.142765999050795
  endloop
endfacet
facet normal 5.686300388885183e-12 7.636527625932441e-12 -1.0
  outer loop
    vertex 14.070758101671007 12.46579495619853 4.8572340013289965
    vertex 21.306687113969595 2.4859269561985275 4.857234001293256
    vertex 14.070758101671005 2.4859269561985387 4.857234001252113
  endloop
endfacet
facet normal 5.686300388885183e-12 7.636527625932441e-12 -1.0
  outer loop
    vertex 21.306687113969595 2.4859269561985275 4.857234001293256
    vertex 14.070758101671007 12.46579495619853 4.8572340013289965
    vertex 21.306687113969602 12.465794956198526 4.8572340013701405
  endloop
endfacet
facet normal -1.0 1.1279865930191589e-15 -5.686300388885169e-12
  outer loop
    vertex 2.5459566088733077 12.465794956055271 23.617964506253085
    vertex 2.5459566089144414 2.4657949561105275 16.38203549387815
    vertex 2.545956608873296 2.465794956055267 23.617964506176744
  endloop
endfacet
facet normal -1.0 1.1279865930191589e-15 -5.686300388885169e-12
  outer loop
    vertex 2.5459566089144414 2.4657949561105275 16.38203549387815
    vertex 2.5459566088733077 12.465794956055271 23.617964506253085
    vertex 2.545956608914453 12.465794956110527 16.382035493954493
  endloop
endfacet
facet normal 0.00011936999672701085 0.9999999928564651 -6.15416055886787e-06
  outer loop
    vertex 23.489330765772134 2.4657949559840127 32.946162223962496
    vertex 30.634884831517113 2.465794956038573 25.80060815829877
    vertex 23.489330765812763 2.465794956038579 25.800608158258132
  endloop
endfacet
facet normal 0.00011936999672701085 0.9999999928564651 -6.15416055886787e-06
  outer loop
    vertex -2.311277392152266 2.465794956082869 -9.023892744153272e-14
    vertex 14.070758101671005 2.4859269561985387 4.857234001252113
    vertex 37.87118978868859 2.460752208648532 2.284003652874844e-10
  endloop
endfacet
facet normal 0.00011936999672701085 0.9999999928564651 -6.15416055886787e-06
  outer loop
    vertex 14.070758101671005 2.4859269561985387 4.857234001252113
    vertex -2.311277392152266 2.465794956082869 -9.023892744153272e-14
    vertex 2.5459566089144414 2.4657949561105275 16.38203549387815
  endloop
endfacet
facet normal 0.00011936999672701085 0.9999999928564651 -6.15416055886787e-06
  outer loop
    vertex 2.5459566089144414 2.4657949561105275 16.38203549387815
    vertex -2.311277392152266 2.465794956082869 -9.023892744153272e-14
    vertex -2.311277392379357 2.465794956082948 39.999999999999744
  endloop
endfacet
facet normal 0.00011936999672701085 0.9999999928564651 -6.15416055886787e-06
  outer loop
    vertex 14.070758101671005 2.4859269561985387 4.857234001252113
    vertex 2.5459566089144414 2.4657949561105275 16.38203549387815
    vertex 11.888114449696216 2.46579495618176 7.053837776264625
  endloop
endfacet
facet normal 0.00011936999672701085 0.9999999928564651 -6.15416055886787e-06
  outer loop
    vertex 11.888114449696216 2.46579495618176 7.053837776264625
    vertex 2.5459566089144414 2.4657949561105275 16.38203549387815
    vertex 4.742560383951238 2.4657949561271937 14.199391841928342
  endloop
endfacet
facet normal 0.00011936999672701085 0.9999999928564651 -6.15416055886787e-06
  outer loop
    vertex 2.5459566089144414 2.4657949561105275 16.38203549387815
    vertex -2.311277392379357 2.465794956082948 39.999999999999744
    vertex 2.545956608873296 2.465794956055267 23.617964506176744
  endloop
endfacet
facet normal 0.00011936999672701085 0.9999999928564651 -6.15416055886787e-06
  outer loop
    vertex 2.545956608873296 2.465794956055267 23.617964506176744
    vertex -2.311277392379357 2.465794956082948 39.999999999999744
    vertex 4.742560383885272 2.4657949560385957 25.800608158151537
  endloop
endfacet
facet normal 0.00011936999672701085 0.9999999928564651 -6.15416055886787e-06
  outer loop
    vertex 4.742560383885272 2.4657949560385957 25.800608158151537
    vertex -2.311277392379357 2.465794956082948 39.999999999999744
    vertex 11.888114449589612 2.4657949560385903 25.800608158192166
  endloop
endfacet
facet normal 0.00011936999672701085 0.9999999928564651 -6.15416055886787e-06
  outer loop
    vertex 11.888114449589612 2.4657949560385903 25.800608158192166
    vertex -2.311277392379357 2.465794956082948 39.999999999999744
    vertex 11.888114449548985 2.4657949559840238 32.946162223896515
  endloop
endfacet
facet normal 0.00011936999672701085 0.9999999928564651 -6.15416055886787e-06
  outer loop
    vertex 11.888114449548985 2.4657949559840238 32.946162223896515
    vertex -2.311277392379357 2.465794956082948 39.999999999999744
    vertex 14.070758101498784 2.465794955967245 35.14276599893332
  endloop
endfacet
facet normal 0.00011936999672701085 0.9999999928564651 -6.15416055886787e-06
  outer loop
    vertex 14.070758101498784 2.465794955967245 35.14276599893332
    vertex -2.311277392379357 2.465794956082948 39.999999999999744
    vertex 21.306687113797377 2.4657949559672394 35.142765998974454
  endloop
endfacet
facet normal 0.00011936999672701085 0.9999999928564651 -6.15416055886787e-06
  outer loop
    vertex 37.87118978868859 2.460752208648532 2.284003652874844e-10
    vertex 32.831488606595094 2.4657949561104995 16.382035494050363
    vertex 37.871189838182495 2.4612445414907986 40.00000000022851
  endloop
endfacet
facet normal 0.00011936999672701085 0.9999999928564651 -6.15416055886787e-06
  outer loop
    vertex 32.831488606595094 2.4657949561104995 16.382035494050363
    vertex 37.87118978868859 2.460752208648532 2.284003652874844e-10
    vertex 21.306687113969595 2.4859269561985275 4.857234001293256
  endloop
endfacet
facet normal 0.00011936999672701085 0.9999999928564651 -6.15416055886787e-06
  outer loop
    vertex 21.306687113969595 2.4859269561985275 4.857234001293256
    vertex 37.87118978868859 2.460752208648532 2.284003652874844e-10
    vertex 14.070758101671005 2.4859269561985387 4.857234001252113
  endloop
endfacet
facet normal 0.00011936999672701085 0.9999999928564651 -6.15416055886787e-06
  outer loop
    vertex 32.831488606595094 2.4657949561104995 16.382035494050363
    vertex 21.306687113969595 2.4859269561985275 4.857234001293256
    vertex 23.489330765919366 2.4657949561817487 7.053837776330595
  endloop
endfacet
facet normal 0.00011936999672701085 0.9999999928564651 -6.15416055886787e-06
  outer loop
    vertex 32.831488606595094 2.4657949561104995 16.382035494050363
    vertex 23.489330765919366 2.4657949561817487 7.053837776330595
    vertex 30.634884831583083 2.465794956127171 14.199391842075572
  endloop
endfacet
facet normal 0.00011936999672701085 0.9999999928564651 -6.15416055886787e-06
  outer loop
    vertex 30.634884831583083 2.465794956127171 14.199391842075572
    vertex 23.489330765919366 2.4657949561817487 7.053837776330595
    vertex 23.489330765878734 2.4657949561271764 14.199391842034942
  endloop
endfacet
facet normal 0.00011936999672701085 0.9999999928564651 -6.15416055886787e-06
  outer loop
    vertex 37.871189838182495 2.4612445414907986 40.00000000022851
    vertex 32.831488606595094 2.4657949561104995 16.382035494050363
    vertex 32.831488606553954 2.4657949560552392 23.617964506348958
  endloop
endfacet
facet normal 0.00011936999672701085 0.9999999928564651 -6.15416055886787e-06
  outer loop
    vertex 37.871189838182495 2.4612445414907986 40.00000000022851
    vertex 32.831488606553954 2.4657949560552392 23.617964506348958
    vertex 30.634884831517113 2.465794956038573 25.80060815829877
  endloop
endfacet
facet normal 0.00011936999672701085 0.9999999928564651 -6.15416055886787e-06
  outer loop
    vertex 37.871189838182495 2.4612445414907986 40.00000000022851
    vertex 30.634884831517113 2.465794956038573 25.80060815829877
    vertex 23.489330765772134 2.4657949559840127 32.946162223962496
  endloop
endfacet
facet normal 0.00011936999672701085 0.9999999928564651 -6.15416055886787e-06
  outer loop
    vertex 37.871189838182495 2.4612445414907986 40.00000000022851
    vertex 23.489330765772134 2.4657949559840127 32.946162223962496
    vertex 21.306687113797377 2.4657949559672394 35.142765998974454
  endloop
endfacet
facet normal 0.00011936999672701085 0.9999999928564651 -6.15416055886787e-06
  outer loop
    vertex 37.871189838182495 2.4612445414907986 40.00000000022851
    vertex 21.306687113797377 2.4657949559672394 35.142765998974454
    vertex -2.311277392379357 2.465794956082948 39.999999999999744
  endloop
endfacet
facet normal 0.00011936999672701085 0.9999999928564651 -6.15416055886787e-06
  outer loop
    vertex 11.88811444965558 2.465794956127188 14.199391841968971
    vertex 11.888114449696216 2.46579495618176 7.053837776264625
    vertex 4.742560383951238 2.4657949561271937 14.199391841928342
  endloop
endfacet
facet normal -2.539960449111426e-08 -8.498086511719913e-06 -0.9999999999638911
  outer loop
    vertex 37.87118978868859 2.460752208648532 2.284003652874844e-10
    vertex -2.311277392152232 0.9657949560828946 -4.511946372076636e-14
    vertex -2.311277392152266 2.465794956082869 -9.023892744153272e-14
  endloop
endfacet
facet normal -2.539960449111426e-08 -8.498086511719913e-06 -0.9999999999638911
  outer loop
    vertex -2.311277392152232 0.9657949560828946 -4.511946372076636e-14
    vertex 37.87118978868859 2.460752208648532 2.284003652874844e-10
    vertex 41.87118367709912 0.9657949560838929 2.511913343994365e-10
  endloop
endfacet
facet normal -2.539960449111426e-08 -8.498086511719913e-06 -0.9999999999638911
  outer loop
    vertex 41.87118367709912 0.9657949560838929 2.511913343994365e-10
    vertex 37.87118978868859 2.460752208648532 2.284003652874844e-10
    vertex 37.87209178442448 22.46075218217315 -0.0001775236336088781
  endloop
endfacet
facet normal -2.539960449111426e-08 -8.498086511719913e-06 -0.9999999999638911
  outer loop
    vertex 41.87118367709912 0.9657949560838929 2.511913343994365e-10
    vertex 37.87209178442448 22.46075218217315 -0.0001775236336088781
    vertex 41.87209178053391 22.46059071890463 -0.0001775246799461616
  endloop
endfacet
facet normal -3.767995188017379e-14 -1.0 -7.337090668379018e-14
  outer loop
    vertex 41.87118367709063 -0.5342050439160875 1.500000000251211
    vertex -2.3112773923710446 -0.5342050439171365 38.48651488000097
    vertex -2.311277392160728 -0.5342050439170801 1.4999999999999747
  endloop
endfacet
facet normal -3.767995188017379e-14 -1.0 -7.337090668379018e-14
  outer loop
    vertex -2.3112773923710446 -0.5342050439171365 38.48651488000097
    vertex 41.87118367709063 -0.5342050439160875 1.500000000251211
    vertex 41.871126665232076 -0.5342050439214624 38.486514880252166
  endloop
endfacet
facet normal -0.0001677373032466361 -0.0022484020946006845 0.999997458272879
  outer loop
    vertex 37.86733560762053 0.9657949560789691 39.993265000228206
    vertex -2.311277392379357 2.465794956082948 39.999999999999744
    vertex -2.311277392379466 0.9657949560829059 39.993264999999774
  endloop
endfacet
facet normal -0.0001677373032466361 -0.0022484020946006845 0.999997458272879
  outer loop
    vertex -2.311277392379357 2.465794956082948 39.999999999999744
    vertex 37.86733560762053 0.9657949560789691 39.993265000228206
    vertex 37.871189838182495 2.4612445414907986 40.00000000022851
  endloop
endfacet
facet normal 0.00040480047227706373 -3.410093748068545e-05 0.9999999174868485
  outer loop
    vertex 41.87112666522365 0.96579495607858 39.99326500025098
    vertex 37.871189838182495 2.4612445414907986 40.00000000022851
    vertex 37.86733560762053 0.9657949560789691 39.993265000228206
  endloop
endfacet
facet normal 0.00040480047227706373 -3.410093748068545e-05 0.9999999174868485
  outer loop
    vertex 37.871189838182495 2.4612445414907986 40.00000000022851
    vertex 41.87112666522365 0.96579495607858 39.99326500025098
    vertex 37.872091833918375 22.461244515015416 39.9998224763665
  endloop
endfacet
facet normal 0.00040480047227706373 -3.410093748068545e-05 0.9999999174868485
  outer loop
    vertex 37.872091833918375 22.461244515015416 39.9998224763665
    vertex 41.87112666522365 0.96579495607858 39.99326500025098
    vertex 41.87105474539417 2.695726015982011 39.993278292692864
  endloop
endfacet
facet normal 0.00040480047227706373 -3.410093748068545e-05 0.9999999174868485
  outer loop
    vertex 41.87209182627248 22.46104517998962 39.99982247485407
    vertex 37.872091833918375 22.461244515015416 39.9998224763665
    vertex 41.87105474539417 2.695726015982011 39.993278292692864
  endloop
endfacet
facet normal -1.0 3.7620391837719706e-14 -5.681567777586109e-12
  outer loop
    vertex -2.311277392379466 0.9657949560829059 39.993264999999774
    vertex -2.311277392160728 -0.5342050439170801 1.4999999999999747
    vertex -2.3112773923710446 -0.5342050439171365 38.48651488000097
  endloop
endfacet
facet normal -1.0 3.7620391837719706e-14 -5.681567777586109e-12
  outer loop
    vertex -2.311277392160728 -0.5342050439170801 1.4999999999999747
    vertex -2.311277392379466 0.9657949560829059 39.993264999999774
    vertex -2.311277392152232 0.9657949560828946 -4.511946372076636e-14
  endloop
endfacet
facet normal -1.0 3.7620391837719706e-14 -5.681567777586109e-12
  outer loop
    vertex -2.311277392152232 0.9657949560828946 -4.511946372076636e-14
    vertex -2.311277392379466 0.9657949560829059 39.993264999999774
    vertex -2.311277392152266 2.465794956082869 -9.023892744153272e-14
  endloop
endfacet
facet normal -1.0 3.7620391837719706e-14 -5.681567777586109e-12
  outer loop
    vertex -2.311277392152266 2.465794956082869 -9.023892744153272e-14
    vertex -2.311277392379466 0.9657949560829059 39.993264999999774
    vertex -2.311277392379357 2.465794956082948 39.999999999999744
  endloop
endfacet
facet normal -4.081247482511706e-12 -0.7086924420160137 0.7055175565706208
  outer loop
    vertex 41.871126665232076 -0.5342050439214624 38.486514880252166
    vertex -2.311277392379466 0.9657949560829059 39.993264999999774
    vertex -2.3112773923710446 -0.5342050439171365 38.48651488000097
  endloop
endfacet
facet normal -4.081247482511706e-12 -0.7086924420160137 0.7055175565706208
  outer loop
    vertex -2.311277392379466 0.9657949560829059 39.993264999999774
    vertex 41.871126665232076 -0.5342050439214624 38.486514880252166
    vertex 37.86733560762053 0.9657949560789691 39.993265000228206
  endloop
endfacet
facet normal -4.081247482511706e-12 -0.7086924420160137 0.7055175565706208
  outer loop
    vertex 37.86733560762053 0.9657949560789691 39.993265000228206
    vertex 41.871126665232076 -0.5342050439214624 38.486514880252166
    vertex 41.87112666522365 0.96579495607858 39.99326500025098
  endloop
endfacet
facet normal 4.036724398452612e-12 -0.7071067811865577 -0.7071067811865374
  outer loop
    vertex 41.87118367709912 0.9657949560838929 2.511913343994365e-10
    vertex -2.311277392160728 -0.5342050439170801 1.4999999999999747
    vertex -2.311277392152232 0.9657949560828946 -4.511946372076636e-14
  endloop
endfacet
facet normal 4.036724398452612e-12 -0.7071067811865577 -0.7071067811865374
  outer loop
    vertex -2.311277392160728 -0.5342050439170801 1.4999999999999747
    vertex 41.87118367709912 0.9657949560838929 2.511913343994365e-10
    vertex 41.87118367709063 -0.5342050439160875 1.500000000251211
  endloop
endfacet
endsolid 4040EndCap
