solid Ender 3 Feet
facet normal 0.0 0.0 -1.0
  outer loop
    vertex 242.38471952685364 29.87352062715988 0.0
    vertex 246.38471952685364 25.87352062715988 0.0
    vertex 242.38471952685364 -6.126479372840118 0.0
  endloop
endfacet
facet normal 0.0 0.0 -1.0
  outer loop
    vertex 246.38471952685364 25.87352062715988 0.0
    vertex 242.38471952685364 29.87352062715988 0.0
    vertex 262.3847233678539 29.86716178908987 0.0
  endloop
endfacet
facet normal 0.0 0.0 -1.0
  outer loop
    vertex 246.38471952685364 25.87352062715988 0.0
    vertex 262.3847233678539 29.86716178908987 0.0
    vertex 260.38471952685364 25.87352062715988 0.0
  endloop
endfacet
facet normal 0.0 0.0 -1.0
  outer loop
    vertex 260.38471952685364 25.87352062715988 0.0
    vertex 262.3847233678539 29.86716178908987 0.0
    vertex 260.38471952685364 -2.1264793728401177 0.0
  endloop
endfacet
facet normal 0.0 0.0 -1.0
  outer loop
    vertex 260.38471952685364 -2.1264793728401177 0.0
    vertex 262.3847233678539 29.86716178908987 0.0
    vertex 262.38471952685376 -6.126479372840046 0.0
  endloop
endfacet
facet normal 0.0 0.0 -1.0
  outer loop
    vertex 262.38471952685376 -6.126479372840046 0.0
    vertex 264.3847195268535 -16.12647937284012 -1.8329782136561337e-14
    vertex 262.3847195268536 -16.12647937284005 -1.8329782136561337e-14
  endloop
endfacet
facet normal 0.0 0.0 -1.0
  outer loop
    vertex 264.3847195268535 -16.12647937284012 -1.8329782136561337e-14
    vertex 262.38471952685376 -6.126479372840046 0.0
    vertex 262.3847233678539 29.86716178908987 0.0
  endloop
endfacet
facet normal 0.0 0.0 -1.0
  outer loop
    vertex 264.3847195268535 -16.12647937284012 -1.8329782136561337e-14
    vertex 262.3847233678539 29.86716178908987 0.0
    vertex 264.38471952685364 29.87352062715988 0.0
  endloop
endfacet
facet normal 0.0 0.0 -1.0
  outer loop
    vertex 242.38471952685364 -6.126479372840118 0.0
    vertex 246.38471952685364 -2.1264793728401177 0.0
    vertex 262.38471952685376 -6.126479372840046 0.0
  endloop
endfacet
facet normal 0.0 0.0 -1.0
  outer loop
    vertex 246.38471952685364 -2.1264793728401177 0.0
    vertex 242.38471952685364 -6.126479372840118 0.0
    vertex 246.38471952685364 25.87352062715988 0.0
  endloop
endfacet
facet normal 0.0 0.0 -1.0
  outer loop
    vertex 262.38471952685376 -6.126479372840046 0.0
    vertex 246.38471952685364 -2.1264793728401177 0.0
    vertex 260.38471952685364 -2.1264793728401177 0.0
  endloop
endfacet
facet normal 2.696592948936414e-15 -1.0 -4.494321581560712e-16
  outer loop
    vertex 262.38471952685376 -6.126479372840118 20.0
    vertex 242.38471952685364 -6.126479372840118 0.0
    vertex 262.38471952685376 -6.126479372840046 0.0
  endloop
endfacet
facet normal 2.696592948936414e-15 -1.0 -4.494321581560712e-16
  outer loop
    vertex 242.38471952685364 -6.126479372840118 0.0
    vertex 262.38471952685376 -6.126479372840118 20.0
    vertex 242.38471952685364 -6.126479372840118 40.0
  endloop
endfacet
facet normal 2.696592948936414e-15 -1.0 -4.494321581560712e-16
  outer loop
    vertex 242.38471952685364 -6.126479372840118 40.0
    vertex 262.38471952685376 -6.126479372840118 20.0
    vertex 262.38471952685376 -6.126479372840081 40.0
  endloop
endfacet
facet normal -1.0 0.0 0.0
  outer loop
    vertex 242.38471952685364 29.87352062715988 40.0
    vertex 242.38471952685364 -6.126479372840118 0.0
    vertex 242.38471952685364 -6.126479372840118 40.0
  endloop
endfacet
facet normal -1.0 0.0 0.0
  outer loop
    vertex 242.38471952685364 -6.126479372840118 0.0
    vertex 242.38471952685364 29.87352062715988 40.0
    vertex 242.38471952685364 29.87352062715988 0.0
  endloop
endfacet
facet normal -1.0 0.0 0.0
  outer loop
    vertex 260.38471952685364 25.87352062715988 1.9999999999999998
    vertex 260.38471952685364 -2.1264793728401177 0.0
    vertex 260.38471952685364 -2.1264793728401177 1.9999999999999998
  endloop
endfacet
facet normal -1.0 0.0 0.0
  outer loop
    vertex 260.38471952685364 -2.1264793728401177 0.0
    vertex 260.38471952685364 25.87352062715988 1.9999999999999998
    vertex 260.38471952685364 25.87352062715988 0.0
  endloop
endfacet
facet normal 1.0 0.0 0.0
  outer loop
    vertex 246.38471952685364 25.87352062715988 0.0
    vertex 246.38471952685364 -2.1264793728401177 1.9999999999999998
    vertex 246.38471952685364 -2.1264793728401177 0.0
  endloop
endfacet
facet normal 1.0 0.0 0.0
  outer loop
    vertex 246.38471952685364 -2.1264793728401177 1.9999999999999998
    vertex 246.38471952685364 25.87352062715988 0.0
    vertex 246.38471952685364 25.87352062715988 1.9999999999999998
  endloop
endfacet
facet normal 0.0 0.0 1.0
  outer loop
    vertex 264.38471952685364 -4.126479372840118 20.000000000000007
    vertex 262.38471952685364 27.873520627159884 20.000000000000007
    vertex 262.38471952685364 -4.126479372840118 20.000000000000007
  endloop
endfacet
facet normal 0.0 0.0 1.0
  outer loop
    vertex 262.38471952685364 27.873520627159884 20.000000000000007
    vertex 264.38471952685364 -4.126479372840118 20.000000000000007
    vertex 264.38471952685364 27.873520627159877 20.000000000000007
  endloop
endfacet
facet normal 0.0 1.0 0.0
  outer loop
    vertex 246.38471952685364 -2.1264793728401177 1.9999999999999998
    vertex 260.38471952685364 -2.1264793728401177 0.0
    vertex 246.38471952685364 -2.1264793728401177 0.0
  endloop
endfacet
facet normal 0.0 1.0 0.0
  outer loop
    vertex 260.38471952685364 -2.1264793728401177 0.0
    vertex 246.38471952685364 -2.1264793728401177 1.9999999999999998
    vertex 260.38471952685364 -2.1264793728401177 1.9999999999999998
  endloop
endfacet
facet normal 0.7682210393900439 -6.463927967453506e-15 -0.6401846879131682
  outer loop
    vertex 266.7597190500166 3.8735206271599067 6.249999999999723
    vertex 267.3847195268536 19.852788627159796 6.999999999999762
    vertex 267.38471952685387 3.8735206271598037 6.999999999999856
  endloop
endfacet
facet normal 0.7682210393900439 -6.463927967453506e-15 -0.6401846879131682
  outer loop
    vertex 267.3847195268536 19.852788627159796 6.999999999999762
    vertex 266.7597190500166 3.8735206271599067 6.249999999999723
    vertex 266.75971905001666 19.852788627159814 6.249999999999278
  endloop
endfacet
facet normal 1.0 1.6941751169365097e-14 -1.0058707964616158e-27
  outer loop
    vertex 267.3847195268536 19.852788627159796 6.999999999999762
    vertex 267.38471952685387 3.873520627160041 10.999999046325401
    vertex 267.38471952685387 3.8735206271598037 6.999999999999856
  endloop
endfacet
facet normal 1.0 1.6941751169365097e-14 -1.0058707964616158e-27
  outer loop
    vertex 267.38471952685387 3.873520627160041 10.999999046325401
    vertex 267.3847195268536 19.852788627159796 6.999999999999762
    vertex 267.3847195268536 19.852788627160034 10.999999046325305
  endloop
endfacet
facet normal 0.7744078362364369 -2.008866201125819e-16 0.6326867338387934
  outer loop
    vertex 267.38471952685387 3.873520627160041 10.999999046325401
    vertex 266.7719738543855 19.852788627159857 11.749999046325941
    vertex 266.77197385438575 3.873520627159963 11.749999046325229
  endloop
endfacet
facet normal 0.7744078362364369 -2.008866201125819e-16 0.6326867338387934
  outer loop
    vertex 266.7719738543855 19.852788627159857 11.749999046325941
    vertex 267.38471952685387 3.873520627160041 10.999999046325401
    vertex 267.3847195268536 19.852788627160034 10.999999046325305
  endloop
endfacet
facet normal 3.3640013309142977e-14 1.0 -1.2238895300954856e-14
  outer loop
    vertex 264.38471952685364 19.85278862715999 6.249999999999649
    vertex 267.3847195268536 19.852788627159796 6.999999999999762
    vertex 266.75971905001666 19.852788627159814 6.249999999999278
  endloop
endfacet
facet normal 3.3640013309142977e-14 1.0 -1.2238895300954856e-14
  outer loop
    vertex 267.3847195268536 19.852788627159796 6.999999999999762
    vertex 264.38471952685364 19.85278862715999 6.249999999999649
    vertex 264.38471952685364 19.852788627159978 11.749999046325287
  endloop
endfacet
facet normal 3.3640013309142977e-14 1.0 -1.2238895300954856e-14
  outer loop
    vertex 267.3847195268536 19.852788627159796 6.999999999999762
    vertex 264.38471952685364 19.852788627159978 11.749999046325287
    vertex 267.3847195268536 19.852788627160034 10.999999046325305
  endloop
endfacet
facet normal 3.3640013309142977e-14 1.0 -1.2238895300954856e-14
  outer loop
    vertex 267.3847195268536 19.852788627160034 10.999999046325305
    vertex 264.38471952685364 19.852788627159978 11.749999046325287
    vertex 266.7719738543855 19.852788627159857 11.749999046325941
  endloop
endfacet
facet normal -2.3654888516779093e-14 -1.0 1.295904594703006e-14
  outer loop
    vertex 267.38471952685387 3.8735206271598037 6.999999999999856
    vertex 264.3847195268539 3.8735206271599956 6.249999999999734
    vertex 266.7597190500166 3.8735206271599067 6.249999999999723
  endloop
endfacet
facet normal -2.3654888516779093e-14 -1.0 1.295904594703006e-14
  outer loop
    vertex 264.3847195268539 3.8735206271599956 6.249999999999734
    vertex 267.38471952685387 3.8735206271598037 6.999999999999856
    vertex 264.3847195268539 3.8735206271599845 11.749999046325382
  endloop
endfacet
facet normal -2.3654888516779093e-14 -1.0 1.295904594703006e-14
  outer loop
    vertex 264.3847195268539 3.8735206271599845 11.749999046325382
    vertex 267.38471952685387 3.8735206271598037 6.999999999999856
    vertex 267.38471952685387 3.873520627160041 10.999999046325401
  endloop
endfacet
facet normal -2.3654888516779093e-14 -1.0 1.295904594703006e-14
  outer loop
    vertex 264.3847195268539 3.8735206271599845 11.749999046325382
    vertex 267.38471952685387 3.873520627160041 10.999999046325401
    vertex 266.77197385438575 3.873520627159963 11.749999046325229
  endloop
endfacet
facet normal -5.6302558709072974e-14 -1.2838670808035006e-14 -1.0
  outer loop
    vertex 266.75971905001666 19.852788627159814 6.249999999999278
    vertex 264.3847195268539 3.8735206271599956 6.249999999999734
    vertex 264.38471952685364 19.85278862715999 6.249999999999649
  endloop
endfacet
facet normal -5.6302558709072974e-14 -1.2838670808035006e-14 -1.0
  outer loop
    vertex 264.3847195268539 3.8735206271599956 6.249999999999734
    vertex 266.75971905001666 19.852788627159814 6.249999999999278
    vertex 266.7597190500166 3.8735206271599067 6.249999999999723
  endloop
endfacet
facet normal -6.220754241518568e-14 -1.0912134867769089e-14 1.0
  outer loop
    vertex 264.3847195268539 3.8735206271599845 11.749999046325382
    vertex 266.7719738543855 19.852788627159857 11.749999046325941
    vertex 264.38471952685364 19.852788627159978 11.749999046325287
  endloop
endfacet
facet normal -6.220754241518568e-14 -1.0912134867769089e-14 1.0
  outer loop
    vertex 266.7719738543855 19.852788627159857 11.749999046325941
    vertex 264.3847195268539 3.8735206271599845 11.749999046325382
    vertex 266.77197385438575 3.873520627159963 11.749999046325229
  endloop
endfacet
facet normal 0.0 -1.0 0.0
  outer loop
    vertex 260.38471952685364 25.87352062715988 1.9999999999999998
    vertex 246.38471952685364 25.87352062715988 0.0
    vertex 260.38471952685364 25.87352062715988 0.0
  endloop
endfacet
facet normal 0.0 -1.0 0.0
  outer loop
    vertex 246.38471952685364 25.87352062715988 0.0
    vertex 260.38471952685364 25.87352062715988 1.9999999999999998
    vertex 246.38471952685364 25.87352062715988 1.9999999999999998
  endloop
endfacet
facet normal -8.988643163121846e-15 -1.0 9.34113897343991e-16
  outer loop
    vertex 264.38471952685364 -6.126479372840118 40.0
    vertex 262.38471952685376 -6.126479372840118 20.0
    vertex 264.38471952685364 -6.126479372840118 20.0
  endloop
endfacet
facet normal -8.988643163121846e-15 -1.0 9.34113897343991e-16
  outer loop
    vertex 262.38471952685376 -6.126479372840118 20.0
    vertex 264.38471952685364 -6.126479372840118 40.0
    vertex 262.38471952685376 -6.126479372840081 40.0
  endloop
endfacet
facet normal -1.797728632624369e-14 -1.0 -1.8329782136561336e-15
  outer loop
    vertex 264.3847195268535 -16.12647937284012 19.999999999999982
    vertex 262.3847195268536 -16.12647937284005 -1.8329782136561337e-14
    vertex 264.3847195268535 -16.12647937284012 -1.8329782136561337e-14
  endloop
endfacet
facet normal -1.797728632624369e-14 -1.0 -1.8329782136561336e-15
  outer loop
    vertex 262.3847195268536 -16.12647937284005 -1.8329782136561337e-14
    vertex 264.3847195268535 -16.12647937284012 19.999999999999982
    vertex 262.3847195268536 -16.12647937284012 19.999999999999982
  endloop
endfacet
facet normal 0.0 -1.8329782136561336e-15 1.0
  outer loop
    vertex 264.3847195268535 -16.12647937284012 19.999999999999982
    vertex 262.38471952685376 -6.126479372840118 20.0
    vertex 262.3847195268536 -16.12647937284012 19.999999999999982
  endloop
endfacet
facet normal 0.0 -1.8329782136561336e-15 1.0
  outer loop
    vertex 262.38471952685376 -6.126479372840118 20.0
    vertex 264.3847195268535 -16.12647937284012 19.999999999999982
    vertex 264.38471952685364 -6.126479372840118 20.0
  endloop
endfacet
facet normal -1.0 1.7977286326243694e-14 6.527025654223632e-29
  outer loop
    vertex 262.3847195268536 -16.12647937284012 19.999999999999982
    vertex 262.38471952685404 -12.671960694902628 9.414109995326486
    vertex 262.3847195268536 -16.12647937284005 -1.8329782136561337e-14
  endloop
endfacet
facet normal -1.0 1.7977286326243694e-14 6.527025654223632e-29
  outer loop
    vertex 262.38471952685404 -12.671960694902628 9.414109995326486
    vertex 262.3847195268536 -16.12647937284012 19.999999999999982
    vertex 262.38471952685404 -12.51212001889522 9.799999523162455
  endloop
endfacet
facet normal -1.0 1.7977286326243694e-14 6.527025654223632e-29
  outer loop
    vertex 262.38471952685404 -12.51212001889522 9.799999523162455
    vertex 262.3847195268536 -16.12647937284012 19.999999999999982
    vertex 262.38471952685376 -6.126479372840118 20.0
  endloop
endfacet
facet normal -1.0 1.7977286326243694e-14 6.527025654223632e-29
  outer loop
    vertex 262.3847195268536 -16.12647937284005 -1.8329782136561337e-14
    vertex 262.38471952685404 -12.671960694902628 9.414109995326486
    vertex 262.38471952685404 -12.726479372840117 8.999999523162455
  endloop
endfacet
facet normal -1.0 1.7977286326243694e-14 6.527025654223632e-29
  outer loop
    vertex 262.38471952685404 -12.51212001889522 9.799999523162455
    vertex 262.38471952685376 -6.126479372840118 20.0
    vertex 262.38471952685404 -12.257850222738597 10.13137037306093
  endloop
endfacet
facet normal -1.0 1.7977286326243694e-14 6.527025654223632e-29
  outer loop
    vertex 262.38471952685404 -12.257850222738597 10.13137037306093
    vertex 262.38471952685376 -6.126479372840118 20.0
    vertex 262.38471952685404 -11.92647937284012 10.385640169217556
  endloop
endfacet
facet normal -1.0 1.7977286326243694e-14 6.527025654223632e-29
  outer loop
    vertex 262.38471952685404 -11.92647937284012 10.385640169217556
    vertex 262.38471952685376 -6.126479372840118 20.0
    vertex 262.38471952685404 -11.540589845004154 10.545480845224965
  endloop
endfacet
facet normal -1.0 1.7977286326243694e-14 6.527025654223632e-29
  outer loop
    vertex 262.38471952685404 -11.540589845004154 10.545480845224965
    vertex 262.38471952685376 -6.126479372840118 20.0
    vertex 262.38471952685404 -11.12647937284012 10.599999523162456
  endloop
endfacet
facet normal -1.0 1.7977286326243694e-14 6.527025654223632e-29
  outer loop
    vertex 262.38471952685404 -11.12647937284012 10.599999523162456
    vertex 262.38471952685376 -6.126479372840118 20.0
    vertex 262.38471952685404 -10.712368900676088 10.545480845224967
  endloop
endfacet
facet normal -1.0 1.7977286326243694e-14 6.527025654223632e-29
  outer loop
    vertex 262.38471952685404 -10.712368900676088 10.545480845224967
    vertex 262.38471952685376 -6.126479372840118 20.0
    vertex 262.38471952685404 -10.32647937284012 10.38564016921756
  endloop
endfacet
facet normal -1.0 1.7977286326243694e-14 6.527025654223632e-29
  outer loop
    vertex 262.38471952685404 -10.32647937284012 10.38564016921756
    vertex 262.38471952685376 -6.126479372840118 20.0
    vertex 262.38471952685404 -9.995108522941644 10.131370373060934
  endloop
endfacet
facet normal -1.0 1.7977286326243694e-14 6.527025654223632e-29
  outer loop
    vertex 262.38471952685404 -9.995108522941644 10.131370373060934
    vertex 262.38471952685376 -6.126479372840118 20.0
    vertex 262.38471952685404 -9.740838726785018 9.799999523162457
  endloop
endfacet
facet normal -1.0 1.7977286326243694e-14 6.527025654223632e-29
  outer loop
    vertex 262.38471952685404 -9.740838726785018 9.799999523162457
    vertex 262.38471952685376 -6.126479372840118 20.0
    vertex 262.38471952685404 -9.580998050777609 9.414109995326493
  endloop
endfacet
facet normal -1.0 1.7977286326243694e-14 6.527025654223632e-29
  outer loop
    vertex 262.38471952685404 -9.580998050777609 9.414109995326493
    vertex 262.38471952685376 -6.126479372840118 20.0
    vertex 262.38471952685404 -9.526479372840118 8.999999523162458
  endloop
endfacet
facet normal -1.0 1.7977286326243694e-14 6.527025654223632e-29
  outer loop
    vertex 262.3847195268536 -16.12647937284005 -1.8329782136561337e-14
    vertex 262.38471952685404 -12.257850222738593 7.868628673263979
    vertex 262.38471952685376 -6.126479372840046 0.0
  endloop
endfacet
facet normal -1.0 1.7977286326243694e-14 6.527025654223632e-29
  outer loop
    vertex 262.38471952685404 -12.257850222738593 7.868628673263979
    vertex 262.3847195268536 -16.12647937284005 -1.8329782136561337e-14
    vertex 262.38471952685404 -12.512120018895219 8.199999523162456
  endloop
endfacet
facet normal -1.0 1.7977286326243694e-14 6.527025654223632e-29
  outer loop
    vertex 262.38471952685404 -12.512120018895219 8.199999523162456
    vertex 262.3847195268536 -16.12647937284005 -1.8329782136561337e-14
    vertex 262.38471952685404 -12.671960694902626 8.585889050998421
  endloop
endfacet
facet normal -1.0 1.7977286326243694e-14 6.527025654223632e-29
  outer loop
    vertex 262.38471952685404 -12.671960694902626 8.585889050998421
    vertex 262.3847195268536 -16.12647937284005 -1.8329782136561337e-14
    vertex 262.38471952685404 -12.726479372840117 8.999999523162455
  endloop
endfacet
facet normal -1.0 1.7977286326243694e-14 6.527025654223632e-29
  outer loop
    vertex 262.38471952685376 -6.126479372840046 0.0
    vertex 262.38471952685404 -12.257850222738593 7.868628673263979
    vertex 262.38471952685404 -11.926479372840117 7.614358877107353
  endloop
endfacet
facet normal -1.0 1.7977286326243694e-14 6.527025654223632e-29
  outer loop
    vertex 262.38471952685376 -6.126479372840046 0.0
    vertex 262.38471952685404 -11.926479372840117 7.614358877107353
    vertex 262.38471952685404 -11.540589845004149 7.454518201099948
  endloop
endfacet
facet normal -1.0 1.7977286326243694e-14 6.527025654223632e-29
  outer loop
    vertex 262.38471952685376 -6.126479372840046 0.0
    vertex 262.38471952685404 -11.540589845004149 7.454518201099948
    vertex 262.38471952685404 -11.126479372840116 7.399999523162457
  endloop
endfacet
facet normal -1.0 1.7977286326243694e-14 6.527025654223632e-29
  outer loop
    vertex 262.38471952685376 -6.126479372840046 0.0
    vertex 262.38471952685404 -11.126479372840116 7.399999523162457
    vertex 262.38471952685404 -10.712368900676083 7.454518201099948
  endloop
endfacet
facet normal -1.0 1.7977286326243694e-14 6.527025654223632e-29
  outer loop
    vertex 262.38471952685376 -6.126479372840046 0.0
    vertex 262.38471952685404 -10.712368900676083 7.454518201099948
    vertex 262.38471952685404 -10.326479372840117 7.614358877107355
  endloop
endfacet
facet normal -1.0 1.7977286326243694e-14 6.527025654223632e-29
  outer loop
    vertex 262.38471952685376 -6.126479372840046 0.0
    vertex 262.38471952685404 -10.326479372840117 7.614358877107355
    vertex 262.38471952685404 -9.99510852294164 7.868628673263981
  endloop
endfacet
facet normal -1.0 1.7977286326243694e-14 6.527025654223632e-29
  outer loop
    vertex 262.38471952685376 -6.126479372840046 0.0
    vertex 262.38471952685404 -9.99510852294164 7.868628673263981
    vertex 262.38471952685404 -9.740838726785015 8.199999523162457
  endloop
endfacet
facet normal -1.0 1.7977286326243694e-14 6.527025654223632e-29
  outer loop
    vertex 262.38471952685376 -6.126479372840046 0.0
    vertex 262.38471952685404 -9.740838726785015 8.199999523162457
    vertex 262.38471952685404 -9.580998050777607 8.585889050998425
  endloop
endfacet
facet normal -1.0 1.7977286326243694e-14 6.527025654223632e-29
  outer loop
    vertex 262.38471952685376 -6.126479372840046 0.0
    vertex 262.38471952685404 -9.580998050777607 8.585889050998425
    vertex 262.38471952685404 -9.526479372840118 8.999999523162458
  endloop
endfacet
facet normal -1.0 1.7977286326243694e-14 6.527025654223632e-29
  outer loop
    vertex 262.38471952685376 -6.126479372840046 0.0
    vertex 262.38471952685404 -9.526479372840118 8.999999523162458
    vertex 262.38471952685376 -6.126479372840118 20.0
  endloop
endfacet
facet normal -0.0010997496294688452 0.9999992569851578 0.000525908628088267
  outer loop
    vertex 262.3737258715592 39.860795520871434 20.00525764799716
    vertex 264.37372203055895 39.873513197011455 0.00525908628088267
    vertex 262.3737258715592 39.86715435894144 0.00525908628088267
  endloop
endfacet
facet normal -0.0010997496294688452 0.9999992569851578 0.000525908628088267
  outer loop
    vertex 264.37372203055895 39.873513197011455 0.00525908628088267
    vertex 262.3737258715592 39.860795520871434 20.00525764799716
    vertex 264.37372203055895 39.85883567538313 20.005259086280887
  endloop
endfacet
facet normal -1.6720822786537586e-06 0.0005259071072449935 -0.99999986170945
  outer loop
    vertex 264.37372203055895 39.873513197011455 0.00525908628088267
    vertex 262.3847233678539 29.86716178908987 0.0
    vertex 262.3737258715592 39.86715435894144 0.00525908628088267
  endloop
endfacet
facet normal -1.6720822786537586e-06 0.0005259071072449935 -0.99999986170945
  outer loop
    vertex 262.3847233678539 29.86716178908987 0.0
    vertex 264.37372203055895 39.873513197011455 0.00525908628088267
    vertex 264.38471952685364 29.87352062715988 0.0
  endloop
endfacet
facet normal -0.9999993952751672 -0.0010997495976658351 -3.496565056011312e-07
  outer loop
    vertex 262.3847233678539 29.860802951019856 19.99999856171628
    vertex 262.3809211030051 33.319249153433965 9.414103533836478
    vertex 262.3847233678539 29.86716178908987 0.0
  endloop
endfacet
facet normal -0.9999993952751672 -0.0010997495976658351 -3.496565056011312e-07
  outer loop
    vertex 262.3809211030051 33.319249153433965 9.414103533836478
    vertex 262.3847233678539 29.860802951019856 19.99999856171628
    vertex 262.3807450089422 33.479087861474376 9.799988540496862
  endloop
endfacet
facet normal -0.9999993952751672 -0.0010997495976658351 -3.496565056011312e-07
  outer loop
    vertex 262.3807450089422 33.479087861474376 9.799988540496862
    vertex 262.3847233678539 29.860802951019856 19.99999856171628
    vertex 262.3737258715592 39.860795520871434 20.00525764799716
  endloop
endfacet
facet normal -0.9999993952751672 -0.0010997495976658351 -3.496565056011312e-07
  outer loop
    vertex 262.3847233678539 29.86716178908987 0.0
    vertex 262.3809211030051 33.319249153433965 9.414103533836478
    vertex 262.38098139340156 33.26473114588053 8.999997913034363
  endloop
endfacet
facet normal -0.9999993952751672 -0.0010997495976658351 -3.496565056011312e-07
  outer loop
    vertex 262.3807450089422 33.479087861474376 9.799988540496862
    vertex 262.3737258715592 39.860795520871434 20.00525764799716
    vertex 262.38046511173235 33.73335452619477 10.131355507516739
  endloop
endfacet
facet normal -0.9999993952751672 -0.0010997495976658351 -3.496565056011312e-07
  outer loop
    vertex 262.38046511173235 33.73335452619477 10.131355507516739
    vertex 262.3737258715592 39.860795520871434 20.00525764799716
    vertex 262.38010048590775 34.06472129458999 10.385622323703506
  endloop
endfacet
facet normal -0.9999993952751672 -0.0010997495976658351 -3.496565056011312e-07
  outer loop
    vertex 262.38010048590775 34.06472129458999 10.385622323703506
    vertex 262.3737258715592 39.860795520871434 20.00525764799716
    vertex 262.3796759801158 34.450606069003356 10.545461125729817
  endloop
endfacet
facet normal -0.9999993952751672 -0.0010997495976658351 -3.496565056011312e-07
  outer loop
    vertex 262.3796759801158 34.450606069003356 10.545461125729817
    vertex 262.3737258715592 39.860795520871434 20.00525764799716
    vertex 262.3792205237247 34.86471143976336 10.599979163383688
  endloop
endfacet
facet normal -0.9999993952751672 -0.0010997495976658351 -3.496565056011312e-07
  outer loop
    vertex 262.3792205237247 34.86471143976336 10.599979163383688
    vertex 262.3737258715592 39.860795520871434 20.00525764799716
    vertex 262.37876515533486 35.278816810194186 10.545461122494325
  endloop
endfacet
facet normal -0.9999993952751672 -0.0010997495976658351 -3.496565056011312e-07
  outer loop
    vertex 262.37876515533486 35.278816810194186 10.545461122494325
    vertex 262.3737258715592 39.860795520871434 20.00525764799716
    vertex 262.37834090754944 35.66470158364245 10.385622317453016
  endloop
endfacet
facet normal -0.9999993952751672 -0.0010997495976658351 -3.496565056011312e-07
  outer loop
    vertex 262.37834090754944 35.66470158364245 10.385622317453016
    vertex 262.3737258715592 39.860795520871434 20.00525764799716
    vertex 262.37797669215405 35.99606835050239 10.13135549867721
  endloop
endfacet
facet normal -0.9999993952751672 -0.0010997495976658351 -3.496565056011312e-07
  outer loop
    vertex 262.37797669215405 35.99606835050239 10.13135549867721
    vertex 262.3737258715592 39.860795520871434 20.00525764799716
    vertex 262.37769732982576 36.25033501322198 9.799988529670696
  endloop
endfacet
facet normal -0.9999993952751672 -0.0010997495976658351 -3.496565056011312e-07
  outer loop
    vertex 262.37769732982576 36.25033501322198 9.799988529670696
    vertex 262.3737258715592 39.860795520871434 20.00525764799716
    vertex 262.3775218586458 36.410173718932406 9.414103521761458
  endloop
endfacet
facet normal -0.9999993952751672 -0.0010997495976658351 -3.496565056011312e-07
  outer loop
    vertex 262.3775218586458 36.410173718932406 9.414103521761458
    vertex 262.3737258715592 39.860795520871434 20.00525764799716
    vertex 262.377462236685 36.46469172398545 8.99999790053338
  endloop
endfacet
facet normal -0.9999993952751672 -0.0010997495976658351 -3.496565056011312e-07
  outer loop
    vertex 262.3847233678539 29.86716178908987 0.0
    vertex 262.3804669379325 33.7333545193636 7.868640314890532
    vertex 262.3737258715592 39.86715435894144 0.00525908628088267
  endloop
endfacet
facet normal -0.9999993952751672 -0.0010997495976658351 -3.496565056011312e-07
  outer loop
    vertex 262.3804669379325 33.7333545193636 7.868640314890532
    vertex 262.3847233678539 29.86716178908987 0.0
    vertex 262.3807463002608 33.47908785664401 8.200007283897047
  endloop
endfacet
facet normal -0.9999993952751672 -0.0010997495976658351 -3.496565056011312e-07
  outer loop
    vertex 262.3807463002608 33.47908785664401 8.200007283897047
    vertex 262.3847233678539 29.86716178908987 0.0
    vertex 262.38092177144074 33.31924915093358 8.585892291806287
  endloop
endfacet
facet normal -0.9999993952751672 -0.0010997495976658351 -3.496565056011312e-07
  outer loop
    vertex 262.38092177144074 33.31924915093358 8.585892291806287
    vertex 262.3847233678539 29.86716178908987 0.0
    vertex 262.38098139340156 33.26473114588053 8.999997913034363
  endloop
endfacet
facet normal -0.9999993952751672 -0.0010997495976658351 -3.496565056011312e-07
  outer loop
    vertex 262.3737258715592 39.86715435894144 0.00525908628088267
    vertex 262.3804669379325 33.7333545193636 7.868640314890532
    vertex 262.3801027225371 34.064721286223545 7.614373496114728
  endloop
endfacet
facet normal -0.9999993952751672 -0.0010997495976658351 -3.496565056011312e-07
  outer loop
    vertex 262.3737258715592 39.86715435894144 0.00525908628088267
    vertex 262.3801027225371 34.064721286223545 7.614373496114728
    vertex 262.3796784747517 34.450606059671806 7.454534691073418
  endloop
endfacet
facet normal -0.9999993952751672 -0.0010997495976658351 -3.496565056011312e-07
  outer loop
    vertex 262.3737258715592 39.86715435894144 0.00525908628088267
    vertex 262.3796784747517 34.450606059671806 7.454534691073418
    vertex 262.37922310636185 34.86471143010263 7.400016650184055
  endloop
endfacet
facet normal -0.9999993952751672 -0.0010997495976658351 -3.496565056011312e-07
  outer loop
    vertex 262.3737258715592 39.86715435894144 0.00525908628088267
    vertex 262.37922310636185 34.86471143010263 7.400016650184055
    vertex 262.37876764997077 35.27881680086263 7.454534687837927
  endloop
endfacet
facet normal -0.9999993952751672 -0.0010997495976658351 -3.496565056011312e-07
  outer loop
    vertex 262.3737258715592 39.86715435894144 0.00525908628088267
    vertex 262.37876764997077 35.27881680086263 7.454534687837927
    vertex 262.3783431441788 35.664701575276005 7.614373489864237
  endloop
endfacet
facet normal -0.9999993952751672 -0.0010997495976658351 -3.496565056011312e-07
  outer loop
    vertex 262.3737258715592 39.86715435894144 0.00525908628088267
    vertex 262.3783431441788 35.664701575276005 7.614373489864237
    vertex 262.3779785183542 35.99606834367122 7.868640306051003
  endloop
endfacet
facet normal -0.9999993952751672 -0.0010997495976658351 -3.496565056011312e-07
  outer loop
    vertex 262.3737258715592 39.86715435894144 0.00525908628088267
    vertex 262.3779785183542 35.99606834367122 7.868640306051003
    vertex 262.37769862114436 36.25033500839161 8.20000727307088
  endloop
endfacet
facet normal -0.9999993952751672 -0.0010997495976658351 -3.496565056011312e-07
  outer loop
    vertex 262.3737258715592 39.86715435894144 0.00525908628088267
    vertex 262.37769862114436 36.25033500839161 8.20000727307088
    vertex 262.37752252708145 36.41017371643202 8.585892279731267
  endloop
endfacet
facet normal -0.9999993952751672 -0.0010997495976658351 -3.496565056011312e-07
  outer loop
    vertex 262.3737258715592 39.86715435894144 0.00525908628088267
    vertex 262.37752252708145 36.41017371643202 8.585892279731267
    vertex 262.377462236685 36.46469172398545 8.99999790053338
  endloop
endfacet
facet normal -0.9999993952751672 -0.0010997495976658351 -3.496565056011312e-07
  outer loop
    vertex 262.3737258715592 39.86715435894144 0.00525908628088267
    vertex 262.377462236685 36.46469172398545 8.99999790053338
    vertex 262.3737258715592 39.860795520871434 20.00525764799716
  endloop
endfacet
facet normal -1.2344956036101075e-06 -0.0005259103037546573 0.9999998617084047
  outer loop
    vertex 262.3847233678539 29.860802951019856 19.99999856171628
    vertex 264.37372203055895 39.85883567538313 20.005259086280887
    vertex 262.3737258715592 39.860795520871434 20.00525764799716
  endloop
endfacet
facet normal -1.2344956036101075e-06 -0.0005259103037546573 0.9999998617084047
  outer loop
    vertex 264.37372203055895 39.85883567538313 20.005259086280887
    vertex 262.3847233678539 29.860802951019856 19.99999856171628
    vertex 264.38471952685364 29.858843105531555 20.000000000000007
  endloop
endfacet
facet normal 0.0 0.9238795325112875 -0.3826834323650885
  outer loop
    vertex 262.38471952685404 -12.51212001889522 9.799999523162455
    vertex 264.3847195268536 -12.671960694902628 9.414109995326486
    vertex 262.38471952685404 -12.671960694902628 9.414109995326486
  endloop
endfacet
facet normal 0.0 0.9238795325112875 -0.3826834323650885
  outer loop
    vertex 264.3847195268536 -12.671960694902628 9.414109995326486
    vertex 262.38471952685404 -12.51212001889522 9.799999523162455
    vertex 264.3847195268536 -12.51212001889522 9.799999523162455
  endloop
endfacet
facet normal 0.0 0.9914448613738108 -0.13052619222004952
  outer loop
    vertex 262.38471952685404 -12.671960694902628 9.414109995326486
    vertex 264.3847195268536 -12.726479372840117 8.999999523162455
    vertex 262.38471952685404 -12.726479372840117 8.999999523162455
  endloop
endfacet
facet normal 0.0 0.9914448613738108 -0.13052619222004952
  outer loop
    vertex 264.3847195268536 -12.726479372840117 8.999999523162455
    vertex 262.38471952685404 -12.671960694902628 9.414109995326486
    vertex 264.3847195268536 -12.671960694902628 9.414109995326486
  endloop
endfacet
facet normal 0.0 0.9914448613738104 0.13052619222005238
  outer loop
    vertex 262.38471952685404 -12.726479372840117 8.999999523162455
    vertex 264.3847195268536 -12.671960694902626 8.585889050998421
    vertex 262.38471952685404 -12.671960694902626 8.585889050998421
  endloop
endfacet
facet normal 0.0 0.9914448613738104 0.13052619222005238
  outer loop
    vertex 264.3847195268536 -12.671960694902626 8.585889050998421
    vertex 262.38471952685404 -12.726479372840117 8.999999523162455
    vertex 264.3847195268536 -12.726479372840117 8.999999523162455
  endloop
endfacet
facet normal 0.0 0.923879532511287 0.38268343236508967
  outer loop
    vertex 262.38471952685404 -12.671960694902626 8.585889050998421
    vertex 264.3847195268536 -12.512120018895219 8.199999523162456
    vertex 262.38471952685404 -12.512120018895219 8.199999523162456
  endloop
endfacet
facet normal 0.0 0.923879532511287 0.38268343236508967
  outer loop
    vertex 264.3847195268536 -12.512120018895219 8.199999523162456
    vertex 262.38471952685404 -12.671960694902626 8.585889050998421
    vertex 264.3847195268536 -12.671960694902626 8.585889050998421
  endloop
endfacet
facet normal 0.0 0.7933533402912344 0.6087614290087217
  outer loop
    vertex 262.38471952685404 -12.512120018895219 8.199999523162456
    vertex 264.3847195268536 -12.257850222738593 7.868628673263979
    vertex 262.38471952685404 -12.257850222738593 7.868628673263979
  endloop
endfacet
facet normal 0.0 0.7933533402912344 0.6087614290087217
  outer loop
    vertex 264.3847195268536 -12.257850222738593 7.868628673263979
    vertex 262.38471952685404 -12.512120018895219 8.199999523162456
    vertex 264.3847195268536 -12.512120018895219 8.199999523162456
  endloop
endfacet
facet normal 0.0 0.6087614290087201 0.7933533402912358
  outer loop
    vertex 264.3847195268536 -12.257850222738593 7.868628673263979
    vertex 262.38471952685404 -11.926479372840117 7.614358877107353
    vertex 262.38471952685404 -12.257850222738593 7.868628673263979
  endloop
endfacet
facet normal 0.0 0.6087614290087201 0.7933533402912358
  outer loop
    vertex 262.38471952685404 -11.926479372840117 7.614358877107353
    vertex 264.3847195268536 -12.257850222738593 7.868628673263979
    vertex 264.3847195268536 -11.926479372840117 7.614358877107353
  endloop
endfacet
facet normal 0.0 0.3826834323650867 0.9238795325112881
  outer loop
    vertex 264.3847195268536 -11.926479372840117 7.614358877107353
    vertex 262.38471952685404 -11.540589845004149 7.454518201099948
    vertex 262.38471952685404 -11.926479372840117 7.614358877107353
  endloop
endfacet
facet normal 0.0 0.3826834323650867 0.9238795325112881
  outer loop
    vertex 262.38471952685404 -11.540589845004149 7.454518201099948
    vertex 264.3847195268536 -11.926479372840117 7.614358877107353
    vertex 264.3847195268536 -11.540589845004149 7.454518201099948
  endloop
endfacet
facet normal 0.0 0.13052619222005238 0.9914448613738104
  outer loop
    vertex 264.3847195268536 -11.540589845004149 7.454518201099948
    vertex 262.38471952685404 -11.126479372840116 7.399999523162457
    vertex 262.38471952685404 -11.540589845004149 7.454518201099948
  endloop
endfacet
facet normal 0.0 0.13052619222005238 0.9914448613738104
  outer loop
    vertex 262.38471952685404 -11.126479372840116 7.399999523162457
    vertex 264.3847195268536 -11.540589845004149 7.454518201099948
    vertex 264.3847195268536 -11.126479372840116 7.399999523162457
  endloop
endfacet
facet normal 0.0 -0.13052619222005238 0.9914448613738104
  outer loop
    vertex 264.3847195268536 -11.126479372840116 7.399999523162457
    vertex 262.38471952685404 -10.712368900676083 7.454518201099948
    vertex 262.38471952685404 -11.126479372840116 7.399999523162457
  endloop
endfacet
facet normal 0.0 -0.13052619222005238 0.9914448613738104
  outer loop
    vertex 262.38471952685404 -10.712368900676083 7.454518201099948
    vertex 264.3847195268536 -11.126479372840116 7.399999523162457
    vertex 264.3847195268536 -10.712368900676083 7.454518201099948
  endloop
endfacet
facet normal 0.0 -0.38268343236508967 0.923879532511287
  outer loop
    vertex 264.3847195268536 -10.712368900676083 7.454518201099948
    vertex 262.38471952685404 -10.326479372840117 7.614358877107355
    vertex 262.38471952685404 -10.712368900676083 7.454518201099948
  endloop
endfacet
facet normal 0.0 -0.38268343236508967 0.923879532511287
  outer loop
    vertex 262.38471952685404 -10.326479372840117 7.614358877107355
    vertex 264.3847195268536 -10.712368900676083 7.454518201099948
    vertex 264.3847195268536 -10.326479372840117 7.614358877107355
  endloop
endfacet
facet normal 0.0 -0.6087614290087217 0.7933533402912344
  outer loop
    vertex 264.3847195268536 -10.326479372840117 7.614358877107355
    vertex 262.38471952685404 -9.99510852294164 7.868628673263981
    vertex 262.38471952685404 -10.326479372840117 7.614358877107355
  endloop
endfacet
facet normal 0.0 -0.6087614290087217 0.7933533402912344
  outer loop
    vertex 262.38471952685404 -9.99510852294164 7.868628673263981
    vertex 264.3847195268536 -10.326479372840117 7.614358877107355
    vertex 264.3847195268536 -9.99510852294164 7.868628673263981
  endloop
endfacet
facet normal 0.0 -0.7933533402912358 0.6087614290087201
  outer loop
    vertex 264.3847195268536 -9.740838726785015 8.199999523162457
    vertex 262.38471952685404 -9.99510852294164 7.868628673263981
    vertex 264.3847195268536 -9.99510852294164 7.868628673263981
  endloop
endfacet
facet normal 0.0 -0.7933533402912358 0.6087614290087201
  outer loop
    vertex 262.38471952685404 -9.99510852294164 7.868628673263981
    vertex 264.3847195268536 -9.740838726785015 8.199999523162457
    vertex 262.38471952685404 -9.740838726785015 8.199999523162457
  endloop
endfacet
facet normal 0.0 -0.923879532511287 0.38268343236508967
  outer loop
    vertex 264.3847195268536 -9.580998050777607 8.585889050998425
    vertex 262.38471952685404 -9.740838726785015 8.199999523162457
    vertex 264.3847195268536 -9.740838726785015 8.199999523162457
  endloop
endfacet
facet normal 0.0 -0.923879532511287 0.38268343236508967
  outer loop
    vertex 262.38471952685404 -9.740838726785015 8.199999523162457
    vertex 264.3847195268536 -9.580998050777607 8.585889050998425
    vertex 262.38471952685404 -9.580998050777607 8.585889050998425
  endloop
endfacet
facet normal 0.0 -0.9914448613738108 0.13052619222004908
  outer loop
    vertex 264.3847195268536 -9.526479372840118 8.999999523162458
    vertex 262.38471952685404 -9.580998050777607 8.585889050998425
    vertex 264.3847195268536 -9.580998050777607 8.585889050998425
  endloop
endfacet
facet normal 0.0 -0.9914448613738108 0.13052619222004908
  outer loop
    vertex 262.38471952685404 -9.580998050777607 8.585889050998425
    vertex 264.3847195268536 -9.526479372840118 8.999999523162458
    vertex 262.38471952685404 -9.526479372840118 8.999999523162458
  endloop
endfacet
facet normal -0.0 -0.9914448613738104 -0.13052619222005193
  outer loop
    vertex 264.3847195268536 -9.580998050777609 9.414109995326493
    vertex 262.38471952685404 -9.526479372840118 8.999999523162458
    vertex 264.3847195268536 -9.526479372840118 8.999999523162458
  endloop
endfacet
facet normal -0.0 -0.9914448613738104 -0.13052619222005193
  outer loop
    vertex 262.38471952685404 -9.526479372840118 8.999999523162458
    vertex 264.3847195268536 -9.580998050777609 9.414109995326493
    vertex 262.38471952685404 -9.580998050777609 9.414109995326493
  endloop
endfacet
facet normal -0.0 -0.9238795325112853 -0.3826834323650937
  outer loop
    vertex 264.3847195268536 -9.740838726785018 9.799999523162457
    vertex 262.38471952685404 -9.580998050777609 9.414109995326493
    vertex 264.3847195268536 -9.580998050777609 9.414109995326493
  endloop
endfacet
facet normal -0.0 -0.9238795325112853 -0.3826834323650937
  outer loop
    vertex 262.38471952685404 -9.580998050777609 9.414109995326493
    vertex 264.3847195268536 -9.740838726785018 9.799999523162457
    vertex 262.38471952685404 -9.740838726785018 9.799999523162457
  endloop
endfacet
facet normal -0.0 -0.7933533402912344 -0.6087614290087217
  outer loop
    vertex 264.3847195268536 -9.995108522941644 10.131370373060934
    vertex 262.38471952685404 -9.740838726785018 9.799999523162457
    vertex 264.3847195268536 -9.740838726785018 9.799999523162457
  endloop
endfacet
facet normal -0.0 -0.7933533402912344 -0.6087614290087217
  outer loop
    vertex 262.38471952685404 -9.740838726785018 9.799999523162457
    vertex 264.3847195268536 -9.995108522941644 10.131370373060934
    vertex 262.38471952685404 -9.995108522941644 10.131370373060934
  endloop
endfacet
facet normal -0.0 -0.6087614290087201 -0.7933533402912358
  outer loop
    vertex 264.3847195268536 -9.995108522941644 10.131370373060934
    vertex 262.38471952685404 -10.32647937284012 10.38564016921756
    vertex 262.38471952685404 -9.995108522941644 10.131370373060934
  endloop
endfacet
facet normal -0.0 -0.6087614290087201 -0.7933533402912358
  outer loop
    vertex 262.38471952685404 -10.32647937284012 10.38564016921756
    vertex 264.3847195268536 -9.995108522941644 10.131370373060934
    vertex 264.3847195268536 -10.32647937284012 10.38564016921756
  endloop
endfacet
facet normal -0.0 -0.38268343236508967 -0.923879532511287
  outer loop
    vertex 264.3847195268536 -10.32647937284012 10.38564016921756
    vertex 262.38471952685404 -10.712368900676088 10.545480845224967
    vertex 262.38471952685404 -10.32647937284012 10.38564016921756
  endloop
endfacet
facet normal -0.0 -0.38268343236508967 -0.923879532511287
  outer loop
    vertex 262.38471952685404 -10.712368900676088 10.545480845224967
    vertex 264.3847195268536 -10.32647937284012 10.38564016921756
    vertex 264.3847195268536 -10.712368900676088 10.545480845224967
  endloop
endfacet
facet normal -0.0 -0.13052619222004952 -0.9914448613738108
  outer loop
    vertex 264.3847195268536 -10.712368900676088 10.545480845224967
    vertex 262.38471952685404 -11.12647937284012 10.599999523162456
    vertex 262.38471952685404 -10.712368900676088 10.545480845224967
  endloop
endfacet
facet normal -0.0 -0.13052619222004952 -0.9914448613738108
  outer loop
    vertex 262.38471952685404 -11.12647937284012 10.599999523162456
    vertex 264.3847195268536 -10.712368900676088 10.545480845224967
    vertex 264.3847195268536 -11.12647937284012 10.599999523162456
  endloop
endfacet
facet normal 0.0 0.13052619222005193 -0.9914448613738104
  outer loop
    vertex 264.3847195268536 -11.12647937284012 10.599999523162456
    vertex 262.38471952685404 -11.540589845004154 10.545480845224965
    vertex 262.38471952685404 -11.12647937284012 10.599999523162456
  endloop
endfacet
facet normal 0.0 0.13052619222005193 -0.9914448613738104
  outer loop
    vertex 262.38471952685404 -11.540589845004154 10.545480845224965
    vertex 264.3847195268536 -11.12647937284012 10.599999523162456
    vertex 264.3847195268536 -11.540589845004154 10.545480845224965
  endloop
endfacet
facet normal 0.0 0.3826834323650937 -0.9238795325112853
  outer loop
    vertex 264.3847195268536 -11.540589845004154 10.545480845224965
    vertex 262.38471952685404 -11.92647937284012 10.385640169217556
    vertex 262.38471952685404 -11.540589845004154 10.545480845224965
  endloop
endfacet
facet normal 0.0 0.3826834323650937 -0.9238795325112853
  outer loop
    vertex 262.38471952685404 -11.92647937284012 10.385640169217556
    vertex 264.3847195268536 -11.540589845004154 10.545480845224965
    vertex 264.3847195268536 -11.92647937284012 10.385640169217556
  endloop
endfacet
facet normal 0.0 0.6087614290087201 -0.7933533402912358
  outer loop
    vertex 264.3847195268536 -11.92647937284012 10.385640169217556
    vertex 262.38471952685404 -12.257850222738597 10.13137037306093
    vertex 262.38471952685404 -11.92647937284012 10.385640169217556
  endloop
endfacet
facet normal 0.0 0.6087614290087201 -0.7933533402912358
  outer loop
    vertex 262.38471952685404 -12.257850222738597 10.13137037306093
    vertex 264.3847195268536 -11.92647937284012 10.385640169217556
    vertex 264.3847195268536 -12.257850222738597 10.13137037306093
  endloop
endfacet
facet normal 0.0 0.793353340291236 -0.6087614290087195
  outer loop
    vertex 262.38471952685404 -12.257850222738597 10.13137037306093
    vertex 264.3847195268536 -12.51212001889522 9.799999523162455
    vertex 262.38471952685404 -12.51212001889522 9.799999523162455
  endloop
endfacet
facet normal 0.0 0.793353340291236 -0.6087614290087195
  outer loop
    vertex 264.3847195268536 -12.51212001889522 9.799999523162455
    vertex 262.38471952685404 -12.257850222738597 10.13137037306093
    vertex 264.3847195268536 -12.257850222738597 10.13137037306093
  endloop
endfacet
facet normal 0.0 0.0 1.0
  outer loop
    vertex 242.38471952685364 -6.126479372840118 40.0
    vertex 244.38471952685364 -4.126479372840118 40.0
    vertex 242.38471952685364 29.87352062715988 40.0
  endloop
endfacet
facet normal 0.0 0.0 1.0
  outer loop
    vertex 244.38471952685364 -4.126479372840118 40.0
    vertex 242.38471952685364 -6.126479372840118 40.0
    vertex 262.38471952685376 -6.126479372840081 40.0
  endloop
endfacet
facet normal 0.0 0.0 1.0
  outer loop
    vertex 244.38471952685364 -4.126479372840118 40.0
    vertex 262.38471952685376 -6.126479372840081 40.0
    vertex 264.38471952685364 -4.126479372840118 40.0
  endloop
endfacet
facet normal 0.0 0.0 1.0
  outer loop
    vertex 264.38471952685364 -4.126479372840118 40.0
    vertex 262.38471952685376 -6.126479372840081 40.0
    vertex 264.38471952685364 -6.126479372840118 40.0
  endloop
endfacet
facet normal 0.0 0.0 1.0
  outer loop
    vertex 242.38471952685364 29.87352062715988 40.0
    vertex 244.38471952685364 27.873520627159884 40.0
    vertex 264.38471952685364 29.858843105531566 40.0
  endloop
endfacet
facet normal 0.0 0.0 1.0
  outer loop
    vertex 244.38471952685364 27.873520627159884 40.0
    vertex 242.38471952685364 29.87352062715988 40.0
    vertex 244.38471952685364 -4.126479372840118 40.0
  endloop
endfacet
facet normal 0.0 0.0 1.0
  outer loop
    vertex 264.38471952685364 29.858843105531566 40.0
    vertex 244.38471952685364 27.873520627159884 40.0
    vertex 264.38471952685364 27.873520627159884 40.0
  endloop
endfacet
facet normal -1.0 0.0 0.0
  outer loop
    vertex 262.38471952685364 27.873520627159884 20.000000000000007
    vertex 262.38471952685364 -4.126479372840118 1.9999999999999998
    vertex 262.38471952685364 -4.126479372840118 20.000000000000007
  endloop
endfacet
facet normal -1.0 0.0 0.0
  outer loop
    vertex 262.38471952685364 -4.126479372840118 1.9999999999999998
    vertex 262.38471952685364 27.873520627159884 20.000000000000007
    vertex 262.38471952685364 27.873520627159884 1.9999999999999998
  endloop
endfacet
facet normal 0.0 0.0 1.0
  outer loop
    vertex 262.38471952685364 -4.126479372840118 1.9999999999999998
    vertex 260.38471952685364 -2.1264793728401177 1.9999999999999998
    vertex 260.38471952685364 -4.126479372840118 1.9999999999999998
  endloop
endfacet
facet normal 0.0 0.0 1.0
  outer loop
    vertex 260.38471952685364 -2.1264793728401177 1.9999999999999998
    vertex 262.38471952685364 -4.126479372840118 1.9999999999999998
    vertex 260.38471952685364 25.87352062715988 1.9999999999999998
  endloop
endfacet
facet normal 0.0 0.0 1.0
  outer loop
    vertex 260.38471952685364 25.87352062715988 1.9999999999999998
    vertex 262.38471952685364 -4.126479372840118 1.9999999999999998
    vertex 260.38471952685364 27.873520627159884 1.9999999999999998
  endloop
endfacet
facet normal 0.0 0.0 1.0
  outer loop
    vertex 260.38471952685364 27.873520627159884 1.9999999999999998
    vertex 262.38471952685364 -4.126479372840118 1.9999999999999998
    vertex 262.38471952685364 27.873520627159884 1.9999999999999998
  endloop
endfacet
facet normal 0.0 1.0 0.0
  outer loop
    vertex 244.38471952685364 -4.126479372840118 40.0
    vertex 260.38471952685364 -4.126479372840118 1.9999999999999998
    vertex 244.38471952685364 -4.126479372840118 1.9999999999999998
  endloop
endfacet
facet normal 0.0 1.0 0.0
  outer loop
    vertex 260.38471952685364 -4.126479372840118 1.9999999999999998
    vertex 244.38471952685364 -4.126479372840118 40.0
    vertex 262.38471952685364 -4.126479372840118 1.9999999999999998
  endloop
endfacet
facet normal 0.0 1.0 0.0
  outer loop
    vertex 262.38471952685364 -4.126479372840118 1.9999999999999998
    vertex 244.38471952685364 -4.126479372840118 40.0
    vertex 262.38471952685364 -4.126479372840118 20.000000000000007
  endloop
endfacet
facet normal 0.0 1.0 0.0
  outer loop
    vertex 262.38471952685364 -4.126479372840118 20.000000000000007
    vertex 244.38471952685364 -4.126479372840118 40.0
    vertex 264.38471952685364 -4.126479372840118 20.000000000000007
  endloop
endfacet
facet normal 0.0 1.0 0.0
  outer loop
    vertex 264.38471952685364 -4.126479372840118 20.000000000000007
    vertex 244.38471952685364 -4.126479372840118 40.0
    vertex 264.38471952685364 -4.126479372840118 40.0
  endloop
endfacet
facet normal 0.0 0.0 1.0
  outer loop
    vertex 260.38471952685364 -4.126479372840118 1.9999999999999998
    vertex 244.38471952685364 -2.1264793728401177 1.9999999999999998
    vertex 244.38471952685364 -4.126479372840118 1.9999999999999998
  endloop
endfacet
facet normal 0.0 0.0 1.0
  outer loop
    vertex 244.38471952685364 -2.1264793728401177 1.9999999999999998
    vertex 260.38471952685364 -4.126479372840118 1.9999999999999998
    vertex 246.38471952685364 -2.1264793728401177 1.9999999999999998
  endloop
endfacet
facet normal 0.0 0.0 1.0
  outer loop
    vertex 246.38471952685364 -2.1264793728401177 1.9999999999999998
    vertex 260.38471952685364 -4.126479372840118 1.9999999999999998
    vertex 260.38471952685364 -2.1264793728401177 1.9999999999999998
  endloop
endfacet
facet normal 1.0 0.0 0.0
  outer loop
    vertex 244.38471952685364 -2.1264793728401177 1.9999999999999998
    vertex 244.38471952685364 -4.126479372840118 40.0
    vertex 244.38471952685364 -4.126479372840118 1.9999999999999998
  endloop
endfacet
facet normal 1.0 0.0 0.0
  outer loop
    vertex 244.38471952685364 -4.126479372840118 40.0
    vertex 244.38471952685364 -2.1264793728401177 1.9999999999999998
    vertex 244.38471952685364 27.873520627159884 40.0
  endloop
endfacet
facet normal 1.0 0.0 0.0
  outer loop
    vertex 244.38471952685364 27.873520627159884 40.0
    vertex 244.38471952685364 -2.1264793728401177 1.9999999999999998
    vertex 244.38471952685364 27.873520627159884 1.9999999999999998
  endloop
endfacet
facet normal 0.0 0.0 1.0
  outer loop
    vertex 246.38471952685364 -2.1264793728401177 1.9999999999999998
    vertex 244.38471952685364 27.873520627159884 1.9999999999999998
    vertex 244.38471952685364 -2.1264793728401177 1.9999999999999998
  endloop
endfacet
facet normal 0.0 0.0 1.0
  outer loop
    vertex 244.38471952685364 27.873520627159884 1.9999999999999998
    vertex 246.38471952685364 -2.1264793728401177 1.9999999999999998
    vertex 246.38471952685364 27.873520627159884 1.9999999999999998
  endloop
endfacet
facet normal 0.0 0.0 1.0
  outer loop
    vertex 246.38471952685364 27.873520627159884 1.9999999999999998
    vertex 246.38471952685364 -2.1264793728401177 1.9999999999999998
    vertex 246.38471952685364 25.87352062715988 1.9999999999999998
  endloop
endfacet
facet normal 0.0 7.89873677650678e-18 1.0
  outer loop
    vertex 260.38471952685364 25.87352062715988 1.9999999999999998
    vertex 246.38471952685364 27.873520627159884 1.9999999999999998
    vertex 246.38471952685364 25.87352062715988 1.9999999999999998
  endloop
endfacet
facet normal 0.0 7.89873677650678e-18 1.0
  outer loop
    vertex 246.38471952685364 27.873520627159884 1.9999999999999998
    vertex 260.38471952685364 25.87352062715988 1.9999999999999998
    vertex 260.38471952685364 27.873520627159884 1.9999999999999998
  endloop
endfacet
facet normal 1.0 0.0 0.0
  outer loop
    vertex 264.38471952685364 29.858843105531555 20.000000000000007
    vertex 264.38471952685364 27.873520627159884 40.0
    vertex 264.38471952685364 27.873520627159877 20.000000000000007
  endloop
endfacet
facet normal 1.0 0.0 0.0
  outer loop
    vertex 264.38471952685364 27.873520627159884 40.0
    vertex 264.38471952685364 29.858843105531555 20.000000000000007
    vertex 264.38471952685364 29.858843105531566 40.0
  endloop
endfacet
facet normal -1.1718906496296888e-16 -1.0 7.89873677650678e-18
  outer loop
    vertex 264.38471952685364 27.873520627159884 40.0
    vertex 262.38471952685364 27.873520627159884 20.000000000000007
    vertex 264.38471952685364 27.873520627159877 20.000000000000007
  endloop
endfacet
facet normal -1.1718906496296888e-16 -1.0 7.89873677650678e-18
  outer loop
    vertex 262.38471952685364 27.873520627159884 20.000000000000007
    vertex 260.38471952685364 27.873520627159884 1.9999999999999998
    vertex 262.38471952685364 27.873520627159884 1.9999999999999998
  endloop
endfacet
facet normal -1.1718906496296888e-16 -1.0 7.89873677650678e-18
  outer loop
    vertex 260.38471952685364 27.873520627159884 1.9999999999999998
    vertex 262.38471952685364 27.873520627159884 20.000000000000007
    vertex 246.38471952685364 27.873520627159884 1.9999999999999998
  endloop
endfacet
facet normal -1.1718906496296888e-16 -1.0 7.89873677650678e-18
  outer loop
    vertex 246.38471952685364 27.873520627159884 1.9999999999999998
    vertex 262.38471952685364 27.873520627159884 20.000000000000007
    vertex 244.38471952685364 27.873520627159884 1.9999999999999998
  endloop
endfacet
facet normal -1.1718906496296888e-16 -1.0 7.89873677650678e-18
  outer loop
    vertex 244.38471952685364 27.873520627159884 1.9999999999999998
    vertex 262.38471952685364 27.873520627159884 20.000000000000007
    vertex 244.38471952685364 27.873520627159884 40.0
  endloop
endfacet
facet normal -1.1718906496296888e-16 -1.0 7.89873677650678e-18
  outer loop
    vertex 244.38471952685364 27.873520627159884 40.0
    vertex 262.38471952685364 27.873520627159884 20.000000000000007
    vertex 264.38471952685364 27.873520627159884 40.0
  endloop
endfacet
facet normal 0.00046588512937821444 0.9999998760869826 0.0001754339360517553
  outer loop
    vertex 242.38471952685364 29.87352062715988 40.0
    vertex 262.3847233678539 29.86716178908987 0.0
    vertex 242.38471952685364 29.87352062715988 0.0
  endloop
endfacet
facet normal 0.00046588512937821444 0.9999998760869826 0.0001754339360517553
  outer loop
    vertex 262.3847233678539 29.86716178908987 0.0
    vertex 242.38471952685364 29.87352062715988 40.0
    vertex 262.3847233678539 29.860802951019856 19.99999856171628
  endloop
endfacet
facet normal 0.00046588512937821444 0.9999998760869826 0.0001754339360517553
  outer loop
    vertex 262.3847233678539 29.860802951019856 19.99999856171628
    vertex 242.38471952685364 29.87352062715988 40.0
    vertex 264.38471952685364 29.858843105531555 20.000000000000007
  endloop
endfacet
facet normal 0.00046588512937821444 0.9999998760869826 0.0001754339360517553
  outer loop
    vertex 264.38471952685364 29.858843105531555 20.000000000000007
    vertex 242.38471952685364 29.87352062715988 40.0
    vertex 264.38471952685364 29.858843105531566 40.0
  endloop
endfacet
facet normal 0.0004216015066843176 -0.38268320373624687 -0.9238795310159933
  outer loop
    vertex 264.3810892452862 35.66690410617113 10.385623933831617
    vertex 262.37876515533486 35.278816810194186 10.545461122494325
    vertex 262.37834090754944 35.66470158364245 10.385622317453016
  endloop
endfacet
facet normal 0.0004216015066843176 -0.38268320373624687 -0.9238795310159933
  outer loop
    vertex 262.37876515533486 35.278816810194186 10.545461122494325
    vertex 264.3810892452862 35.66690410617113 10.385623933831617
    vertex 264.3815134930716 35.28101933272287 10.545462738872926
  endloop
endfacet
facet normal 0.0006701252925971206 -0.6087610632709088 -0.7933533379127897
  outer loop
    vertex 264.38072502989075 35.99827087303107 10.131357115055813
    vertex 262.37834090754944 35.66470158364245 10.385622317453016
    vertex 262.37797669215405 35.99606835050239 10.13135549867721
  endloop
endfacet
facet normal 0.0006701252925971206 -0.6087610632709088 -0.7933533379127897
  outer loop
    vertex 262.37834090754944 35.66470158364245 10.385622317453016
    vertex 264.38072502989075 35.99827087303107 10.131357115055813
    vertex 264.3810892452862 35.66690410617113 10.385623933831617
  endloop
endfacet
facet normal 0.00014434627482040567 -0.1305261162808509 -0.9914448608635736
  outer loop
    vertex 264.3815134930716 35.28101933272287 10.545462738872926
    vertex 262.3792205237247 34.86471143976336 10.599979163383688
    vertex 262.37876515533486 35.278816810194186 10.545461122494325
  endloop
endfacet
facet normal 0.00014434627482040567 -0.1305261162808509 -0.9914448608635736
  outer loop
    vertex 262.3792205237247 34.86471143976336 10.599979163383688
    vertex 264.3815134930716 35.28101933272287 10.545462738872926
    vertex 264.3819688614615 34.866913962292045 10.59998077976229
  endloop
endfacet
facet normal -0.0010904461944091076 0.9914442622168661 0.13052618834682642
  outer loop
    vertex 262.38098139340156 33.26473114588053 8.999997913034363
    vertex 264.3836701091775 33.32145167346226 8.585893908184888
    vertex 262.38092177144074 33.31924915093358 8.585892291806287
  endloop
endfacet
facet normal -0.0010904461944091076 0.9914442622168661 0.13052618834682642
  outer loop
    vertex 264.3836701091775 33.32145167346226 8.585893908184888
    vertex 262.38098139340156 33.26473114588053 8.999997913034363
    vertex 264.3837297311383 33.266933668409216 8.999999529412964
  endloop
endfacet
facet normal -0.0008719985045743638 0.7933528586931662 -0.6087614321078406
  outer loop
    vertex 262.38046511173235 33.73335452619477 10.131355507516739
    vertex 264.38349334667896 33.48129038400306 9.799990156875465
    vertex 262.3807450089422 33.479087861474376 9.799988540496862
  endloop
endfacet
facet normal -0.0008719985045743638 0.7933528586931662 -0.6087614321078406
  outer loop
    vertex 264.38349334667896 33.48129038400306 9.799990156875465
    vertex 262.38046511173235 33.73335452619477 10.131355507516739
    vertex 264.3832134494691 33.73555704872346 10.13135712389534
  endloop
endfacet
facet normal -0.0004201102107248799 0.3826831981578337 -0.9238795340059782
  outer loop
    vertex 264.38242431785255 34.45280859153204 10.545462742108418
    vertex 262.38010048590775 34.06472129458999 10.385622323703506
    vertex 262.3796759801158 34.450606069003356 10.545461125729817
  endloop
endfacet
facet normal -0.0004201102107248799 0.3826831981578337 -0.9238795340059782
  outer loop
    vertex 262.38010048590775 34.06472129458999 10.385622323703506
    vertex 264.38242431785255 34.45280859153204 10.545462742108418
    vertex 264.38284882364445 34.06692381711867 10.385623940082109
  endloop
endfacet
facet normal -0.0010163447793947713 0.9238789749740186 0.38268342875573574
  outer loop
    vertex 262.38092177144074 33.31924915093358 8.585892291806287
    vertex 264.3834946379975 33.48129037917269 8.20000890027565
    vertex 262.3807463002608 33.47908785664401 8.200007283897047
  endloop
endfacet
facet normal -0.0010163447793947713 0.9238789749740186 0.38268342875573574
  outer loop
    vertex 264.3834946379975 33.48129037917269 8.20000890027565
    vertex 262.38092177144074 33.31924915093358 8.585892291806287
    vertex 264.3836701091775 33.32145167346226 8.585893908184888
  endloop
endfacet
facet normal -0.0010902355033220023 0.991444261428744 -0.13052619609319666
  outer loop
    vertex 262.3809211030051 33.319249153433965 9.414103533836478
    vertex 264.3837297311383 33.266933668409216 8.999999529412964
    vertex 262.38098139340156 33.26473114588053 8.999997913034363
  endloop
endfacet
facet normal -0.0010902355033220023 0.991444261428744 -0.13052619609319666
  outer loop
    vertex 264.3837297311383 33.266933668409216 8.999999529412964
    vertex 262.3809211030051 33.319249153433965 9.414103533836478
    vertex 264.3836694407418 33.32145167596265 9.414105150215079
  endloop
endfacet
facet normal -0.0010157270643828646 0.9238789726633686 -0.38268343597418625
  outer loop
    vertex 262.3807450089422 33.479087861474376 9.799988540496862
    vertex 264.3836694407418 33.32145167596265 9.414105150215079
    vertex 262.3809211030051 33.319249153433965 9.414103533836478
  endloop
endfacet
facet normal -0.0010157270643828646 0.9238789726633686 -0.38268343597418625
  outer loop
    vertex 264.3836694407418 33.32145167596265 9.414105150215079
    vertex 262.3807450089422 33.479087861474376 9.799988540496862
    vertex 264.38349334667896 33.48129038400306 9.799990156875465
  endloop
endfacet
facet normal -0.0006688446877247936 0.6087610584806223 -0.7933533426691642
  outer loop
    vertex 264.38284882364445 34.06692381711867 10.385623940082109
    vertex 262.38046511173235 33.73335452619477 10.131355507516739
    vertex 262.38010048590775 34.06472129458999 10.385622323703506
  endloop
endfacet
facet normal -0.0006688446877247936 0.6087610584806223 -0.7933533426691642
  outer loop
    vertex 262.38046511173235 33.73335452619477 10.131355507516739
    vertex 264.38284882364445 34.06692381711867 10.385623940082109
    vertex 264.3832134494691 33.73555704872346 10.13135712389534
  endloop
endfacet
facet normal -0.000872981147253845 0.7933528623688889 0.6087614259092042
  outer loop
    vertex 262.3807463002608 33.47908785664401 8.200007283897047
    vertex 264.3832152756693 33.735557041892285 7.868641931269134
    vertex 262.3804669379325 33.7333545193636 7.868640314890532
  endloop
endfacet
facet normal -0.000872981147253845 0.7933528623688889 0.6087614259092042
  outer loop
    vertex 264.3832152756693 33.735557041892285 7.868641931269134
    vertex 262.3807463002608 33.47908785664401 8.200007283897047
    vertex 264.3834946379975 33.48129037917269 8.20000890027565
  endloop
endfacet
facet normal -0.0001427459171290199 0.1305261102944798 -0.9914448618834012
  outer loop
    vertex 264.3819688614615 34.866913962292045 10.59998077976229
    vertex 262.3796759801158 34.450606069003356 10.545461125729817
    vertex 262.3792205237247 34.86471143976336 10.599979163383688
  endloop
endfacet
facet normal -0.0001427459171290199 0.1305261102944798 -0.9914448618834012
  outer loop
    vertex 262.3796759801158 34.450606069003356 10.545461125729817
    vertex 264.3819688614615 34.866913962292045 10.59998077976229
    vertex 264.38242431785255 34.45280859153204 10.545462742108418
  endloop
endfacet
facet normal -0.0006701252925971206 0.6087610632709088 0.7933533379127897
  outer loop
    vertex 262.3804669379325 33.7333545193636 7.868640314890532
    vertex 264.3828510602739 34.06692380875223 7.614375112493329
    vertex 262.3801027225371 34.064721286223545 7.614373496114728
  endloop
endfacet
facet normal -0.0006701252925971206 0.6087610632709088 0.7933533379127897
  outer loop
    vertex 264.3828510602739 34.06692380875223 7.614375112493329
    vertex 262.3804669379325 33.7333545193636 7.868640314890532
    vertex 264.3832152756693 33.735557041892285 7.868641931269134
  endloop
endfacet
facet normal 0.0010157270643828646 -0.9238789726633686 0.38268343597418625
  outer loop
    vertex 264.38044695888107 36.25253753092029 8.200008889449482
    vertex 262.37752252708145 36.41017371643202 8.585892279731267
    vertex 262.37769862114436 36.25033500839161 8.20000727307088
  endloop
endfacet
facet normal 0.0010157270643828646 -0.9238789726633686 0.38268343597418625
  outer loop
    vertex 262.37752252708145 36.41017371643202 8.585892279731267
    vertex 264.38044695888107 36.25253753092029 8.200008889449482
    vertex 264.3802708648182 36.412376238960704 8.585893896109868
  endloop
endfacet
facet normal 0.0008719985045743652 -0.7933528586931674 0.6087614321078391
  outer loop
    vertex 264.380726856091 35.9982708661999 7.868641922429605
    vertex 262.37769862114436 36.25033500839161 8.20000727307088
    vertex 262.3779785183542 35.99606834367122 7.868640306051003
  endloop
endfacet
facet normal 0.0008719985045743652 -0.7933528586931674 0.6087614321078391
  outer loop
    vertex 262.37769862114436 36.25033500839161 8.20000727307088
    vertex 264.380726856091 35.9982708661999 7.868641922429605
    vertex 264.38044695888107 36.25253753092029 8.200008889449482
  endloop
endfacet
facet normal 0.0006688446877247911 -0.6087610584806201 0.7933533426691657
  outer loop
    vertex 262.3783431441788 35.664701575276005 7.614373489864237
    vertex 264.380726856091 35.9982708661999 7.868641922429605
    vertex 262.3779785183542 35.99606834367122 7.868640306051003
  endloop
endfacet
facet normal 0.0006688446877247911 -0.6087610584806201 0.7933533426691657
  outer loop
    vertex 264.380726856091 35.9982708661999 7.868641922429605
    vertex 262.3783431441788 35.664701575276005 7.614373489864237
    vertex 264.3810914819156 35.66690409780469 7.614375106242838
  endloop
endfacet
facet normal 0.0004201102107248799 -0.3826831981578337 0.9238795340059782
  outer loop
    vertex 262.37876764997077 35.27881680086263 7.454534687837927
    vertex 264.3810914819156 35.66690409780469 7.614375106242838
    vertex 262.3783431441788 35.664701575276005 7.614373489864237
  endloop
endfacet
facet normal 0.0004201102107248799 -0.3826831981578337 0.9238795340059782
  outer loop
    vertex 264.3810914819156 35.66690409780469 7.614375106242838
    vertex 262.37876764997077 35.27881680086263 7.454534687837927
    vertex 264.38151598770753 35.28101932339131 7.4545363042165285
  endloop
endfacet
facet normal 0.0001427459171290199 -0.1305261102944798 0.9914448618834012
  outer loop
    vertex 262.37922310636185 34.86471143010263 7.400016650184055
    vertex 264.38151598770753 35.28101932339131 7.4545363042165285
    vertex 262.37876764997077 35.27881680086263 7.454534687837927
  endloop
endfacet
facet normal 0.0001427459171290199 -0.1305261102944798 0.9914448618834012
  outer loop
    vertex 264.38151598770753 35.28101932339131 7.4545363042165285
    vertex 262.37922310636185 34.86471143010263 7.400016650184055
    vertex 264.3819714440986 34.866913952631315 7.400018266562657
  endloop
endfacet
facet normal -0.00014434627482040567 0.1305261162808509 0.9914448608635736
  outer loop
    vertex 262.3796784747517 34.450606059671806 7.454534691073418
    vertex 264.3819714440986 34.866913952631315 7.400018266562657
    vertex 262.37922310636185 34.86471143010263 7.400016650184055
  endloop
endfacet
facet normal -0.00014434627482040567 0.1305261162808509 0.9914448608635736
  outer loop
    vertex 264.3819714440986 34.866913952631315 7.400018266562657
    vertex 262.3796784747517 34.450606059671806 7.454534691073418
    vertex 264.38242681248846 34.45280858220049 7.4545363074520195
  endloop
endfacet
facet normal -0.0004216015066843176 0.38268320373624687 0.9238795310159933
  outer loop
    vertex 262.3801027225371 34.064721286223545 7.614373496114728
    vertex 264.38242681248846 34.45280858220049 7.4545363074520195
    vertex 262.3796784747517 34.450606059671806 7.454534691073418
  endloop
endfacet
facet normal -0.0004216015066843176 0.38268320373624687 0.9238795310159933
  outer loop
    vertex 264.38242681248846 34.45280858220049 7.4545363074520195
    vertex 262.3801027225371 34.064721286223545 7.614373496114728
    vertex 264.3828510602739 34.06692380875223 7.614375112493329
  endloop
endfacet
facet normal 0.0010902355033220023 -0.991444261428744 0.13052619609319666
  outer loop
    vertex 264.3802708648182 36.412376238960704 8.585893896109868
    vertex 262.377462236685 36.46469172398545 8.99999790053338
    vertex 262.37752252708145 36.41017371643202 8.585892279731267
  endloop
endfacet
facet normal 0.0010902355033220023 -0.991444261428744 0.13052619609319666
  outer loop
    vertex 262.377462236685 36.46469172398545 8.99999790053338
    vertex 264.3802708648182 36.412376238960704 8.585893896109868
    vertex 264.38021057442177 36.46689424651414 8.999999516911982
  endloop
endfacet
facet normal 0.000872981147253845 -0.7933528623688889 -0.6087614259092042
  outer loop
    vertex 264.3804456675625 36.25253753575066 9.799990146049296
    vertex 262.37797669215405 35.99606835050239 10.13135549867721
    vertex 262.37769732982576 36.25033501322198 9.799988529670696
  endloop
endfacet
facet normal 0.000872981147253845 -0.7933528623688889 -0.6087614259092042
  outer loop
    vertex 262.37797669215405 35.99606835050239 10.13135549867721
    vertex 264.3804456675625 36.25253753575066 9.799990146049296
    vertex 264.38072502989075 35.99827087303107 10.131357115055813
  endloop
endfacet
facet normal 0.0010163447793947707 -0.9238789749740182 -0.382683428755737
  outer loop
    vertex 264.3802701963826 36.41237624146109 9.41410513814006
    vertex 262.37769732982576 36.25033501322198 9.799988529670696
    vertex 262.3775218586458 36.410173718932406 9.414103521761458
  endloop
endfacet
facet normal 0.0010163447793947707 -0.9238789749740182 -0.382683428755737
  outer loop
    vertex 262.37769732982576 36.25033501322198 9.799988529670696
    vertex 264.3802701963826 36.41237624146109 9.41410513814006
    vertex 264.3804456675625 36.25253753575066 9.799990146049296
  endloop
endfacet
facet normal 0.0010904461944091079 -0.9914442622168663 -0.130526188346826
  outer loop
    vertex 264.38021057442177 36.46689424651414 8.999999516911982
    vertex 262.3775218586458 36.410173718932406 9.414103521761458
    vertex 262.377462236685 36.46469172398545 8.99999790053338
  endloop
endfacet
facet normal 0.0010904461944091079 -0.9914442622168663 -0.130526188346826
  outer loop
    vertex 262.3775218586458 36.410173718932406 9.414103521761458
    vertex 264.38021057442177 36.46689424651414 8.999999516911982
    vertex 264.3802701963826 36.41237624146109 9.41410513814006
  endloop
endfacet
facet normal 0.9999993952751673 0.0010997493571010643 8.070797487292479e-07
  outer loop
    vertex 264.38471952685364 29.87352062715988 0.0
    vertex 264.3836701091775 33.32145167346226 8.585893908184888
    vertex 264.3837297311383 33.266933668409216 8.999999529412964
  endloop
endfacet
facet normal 0.9999993952751673 0.0010997493571010643 8.070797487292479e-07
  outer loop
    vertex 264.3836701091775 33.32145167346226 8.585893908184888
    vertex 264.38471952685364 29.87352062715988 0.0
    vertex 264.3834946379975 33.48129037917269 8.20000890027565
  endloop
endfacet
facet normal 0.9999993952751673 0.0010997493571010643 8.070797487292479e-07
  outer loop
    vertex 264.3834946379975 33.48129037917269 8.20000890027565
    vertex 264.38471952685364 29.87352062715988 0.0
    vertex 264.3832152756693 33.735557041892285 7.868641931269134
  endloop
endfacet
facet normal 0.9999993952751673 0.0010997493571010643 8.070797487292479e-07
  outer loop
    vertex 264.3832152756693 33.735557041892285 7.868641931269134
    vertex 264.38471952685364 29.87352062715988 0.0
    vertex 264.37372203055895 39.873513197011455 0.00525908628088267
  endloop
endfacet
facet normal 0.9999993952751673 0.0010997493571010643 8.070797487292479e-07
  outer loop
    vertex 264.3832152756693 33.735557041892285 7.868641931269134
    vertex 264.37372203055895 39.873513197011455 0.00525908628088267
    vertex 264.3828510602739 34.06692380875223 7.614375112493329
  endloop
endfacet
facet normal 0.9999993952751673 0.0010997493571010643 8.070797487292479e-07
  outer loop
    vertex 264.3828510602739 34.06692380875223 7.614375112493329
    vertex 264.37372203055895 39.873513197011455 0.00525908628088267
    vertex 264.38242681248846 34.45280858220049 7.4545363074520195
  endloop
endfacet
facet normal 0.9999993952751673 0.0010997493571010643 8.070797487292479e-07
  outer loop
    vertex 264.38242681248846 34.45280858220049 7.4545363074520195
    vertex 264.37372203055895 39.873513197011455 0.00525908628088267
    vertex 264.3819714440986 34.866913952631315 7.400018266562657
  endloop
endfacet
facet normal 0.9999993952751673 0.0010997493571010643 8.070797487292479e-07
  outer loop
    vertex 264.3819714440986 34.866913952631315 7.400018266562657
    vertex 264.37372203055895 39.873513197011455 0.00525908628088267
    vertex 264.38151598770753 35.28101932339131 7.4545363042165285
  endloop
endfacet
facet normal 0.9999993952751673 0.0010997493571010643 8.070797487292479e-07
  outer loop
    vertex 264.38151598770753 35.28101932339131 7.4545363042165285
    vertex 264.37372203055895 39.873513197011455 0.00525908628088267
    vertex 264.3810914819156 35.66690409780469 7.614375106242838
  endloop
endfacet
facet normal 0.9999993952751673 0.0010997493571010643 8.070797487292479e-07
  outer loop
    vertex 264.3810914819156 35.66690409780469 7.614375106242838
    vertex 264.37372203055895 39.873513197011455 0.00525908628088267
    vertex 264.380726856091 35.9982708661999 7.868641922429605
  endloop
endfacet
facet normal 0.9999993952751673 0.0010997493571010643 8.070797487292479e-07
  outer loop
    vertex 264.380726856091 35.9982708661999 7.868641922429605
    vertex 264.37372203055895 39.873513197011455 0.00525908628088267
    vertex 264.38044695888107 36.25253753092029 8.200008889449482
  endloop
endfacet
facet normal 0.9999993952751673 0.0010997493571010643 8.070797487292479e-07
  outer loop
    vertex 264.38044695888107 36.25253753092029 8.200008889449482
    vertex 264.37372203055895 39.873513197011455 0.00525908628088267
    vertex 264.3802708648182 36.412376238960704 8.585893896109868
  endloop
endfacet
facet normal 0.9999993952751673 0.0010997493571010643 8.070797487292479e-07
  outer loop
    vertex 264.3802708648182 36.412376238960704 8.585893896109868
    vertex 264.37372203055895 39.873513197011455 0.00525908628088267
    vertex 264.38021057442177 36.46689424651414 8.999999516911982
  endloop
endfacet
facet normal 0.9999993952751673 0.0010997493571010643 8.070797487292479e-07
  outer loop
    vertex 264.38021057442177 36.46689424651414 8.999999516911982
    vertex 264.37372203055895 39.873513197011455 0.00525908628088267
    vertex 264.37372203055895 39.85883567538313 20.005259086280887
  endloop
endfacet
facet normal 0.9999993952751673 0.0010997493571010643 8.070797487292479e-07
  outer loop
    vertex 264.38471952685364 29.858843105531555 20.000000000000007
    vertex 264.38349334667896 33.48129038400306 9.799990156875465
    vertex 264.37372203055895 39.85883567538313 20.005259086280887
  endloop
endfacet
facet normal 0.9999993952751673 0.0010997493571010643 8.070797487292479e-07
  outer loop
    vertex 264.38349334667896 33.48129038400306 9.799990156875465
    vertex 264.38471952685364 29.858843105531555 20.000000000000007
    vertex 264.3836694407418 33.32145167596265 9.414105150215079
  endloop
endfacet
facet normal 0.9999993952751673 0.0010997493571010643 8.070797487292479e-07
  outer loop
    vertex 264.3836694407418 33.32145167596265 9.414105150215079
    vertex 264.38471952685364 29.858843105531555 20.000000000000007
    vertex 264.38471952685364 29.87352062715988 0.0
  endloop
endfacet
facet normal 0.9999993952751673 0.0010997493571010643 8.070797487292479e-07
  outer loop
    vertex 264.3836694407418 33.32145167596265 9.414105150215079
    vertex 264.38471952685364 29.87352062715988 0.0
    vertex 264.3837297311383 33.266933668409216 8.999999529412964
  endloop
endfacet
facet normal 0.9999993952751673 0.0010997493571010643 8.070797487292479e-07
  outer loop
    vertex 264.37372203055895 39.85883567538313 20.005259086280887
    vertex 264.38349334667896 33.48129038400306 9.799990156875465
    vertex 264.3832134494691 33.73555704872346 10.13135712389534
  endloop
endfacet
facet normal 0.9999993952751673 0.0010997493571010643 8.070797487292479e-07
  outer loop
    vertex 264.37372203055895 39.85883567538313 20.005259086280887
    vertex 264.3832134494691 33.73555704872346 10.13135712389534
    vertex 264.38284882364445 34.06692381711867 10.385623940082109
  endloop
endfacet
facet normal 0.9999993952751673 0.0010997493571010643 8.070797487292479e-07
  outer loop
    vertex 264.37372203055895 39.85883567538313 20.005259086280887
    vertex 264.38284882364445 34.06692381711867 10.385623940082109
    vertex 264.38242431785255 34.45280859153204 10.545462742108418
  endloop
endfacet
facet normal 0.9999993952751673 0.0010997493571010643 8.070797487292479e-07
  outer loop
    vertex 264.37372203055895 39.85883567538313 20.005259086280887
    vertex 264.38242431785255 34.45280859153204 10.545462742108418
    vertex 264.3819688614615 34.866913962292045 10.59998077976229
  endloop
endfacet
facet normal 0.9999993952751673 0.0010997493571010643 8.070797487292479e-07
  outer loop
    vertex 264.37372203055895 39.85883567538313 20.005259086280887
    vertex 264.3819688614615 34.866913962292045 10.59998077976229
    vertex 264.3815134930716 35.28101933272287 10.545462738872926
  endloop
endfacet
facet normal 0.9999993952751673 0.0010997493571010643 8.070797487292479e-07
  outer loop
    vertex 264.37372203055895 39.85883567538313 20.005259086280887
    vertex 264.3815134930716 35.28101933272287 10.545462738872926
    vertex 264.3810892452862 35.66690410617113 10.385623933831617
  endloop
endfacet
facet normal 0.9999993952751673 0.0010997493571010643 8.070797487292479e-07
  outer loop
    vertex 264.37372203055895 39.85883567538313 20.005259086280887
    vertex 264.3810892452862 35.66690410617113 10.385623933831617
    vertex 264.38072502989075 35.99827087303107 10.131357115055813
  endloop
endfacet
facet normal 0.9999993952751673 0.0010997493571010643 8.070797487292479e-07
  outer loop
    vertex 264.37372203055895 39.85883567538313 20.005259086280887
    vertex 264.38072502989075 35.99827087303107 10.131357115055813
    vertex 264.3804456675625 36.25253753575066 9.799990146049296
  endloop
endfacet
facet normal 0.9999993952751673 0.0010997493571010643 8.070797487292479e-07
  outer loop
    vertex 264.37372203055895 39.85883567538313 20.005259086280887
    vertex 264.3804456675625 36.25253753575066 9.799990146049296
    vertex 264.3802701963826 36.41237624146109 9.41410513814006
  endloop
endfacet
facet normal 0.9999993952751673 0.0010997493571010643 8.070797487292479e-07
  outer loop
    vertex 264.37372203055895 39.85883567538313 20.005259086280887
    vertex 264.3802701963826 36.41237624146109 9.41410513814006
    vertex 264.38021057442177 36.46689424651414 8.999999516911982
  endloop
endfacet
facet normal 1.0 -2.9762972851906878e-15 -3.0744549394657577e-15
  outer loop
    vertex 264.3847195268535 -16.12647937284012 19.999999999999982
    vertex 264.3847195268536 -12.51212001889522 9.799999523162455
    vertex 264.38471952685364 -6.126479372840118 20.0
  endloop
endfacet
facet normal 1.0 -2.9762972851906878e-15 -3.0744549394657577e-15
  outer loop
    vertex 264.3847195268536 -12.51212001889522 9.799999523162455
    vertex 264.3847195268535 -16.12647937284012 19.999999999999982
    vertex 264.3847195268536 -12.671960694902628 9.414109995326486
  endloop
endfacet
facet normal 1.0 -2.9762972851906878e-15 -3.0744549394657577e-15
  outer loop
    vertex 264.3847195268536 -12.671960694902628 9.414109995326486
    vertex 264.3847195268535 -16.12647937284012 19.999999999999982
    vertex 264.3847195268536 -12.726479372840117 8.999999523162455
  endloop
endfacet
facet normal 1.0 -2.9762972851906878e-15 -3.0744549394657577e-15
  outer loop
    vertex 264.38471952685364 -6.126479372840118 20.0
    vertex 264.3847195268536 -12.51212001889522 9.799999523162455
    vertex 264.3847195268536 -12.257850222738597 10.13137037306093
  endloop
endfacet
facet normal 1.0 -2.9762972851906878e-15 -3.0744549394657577e-15
  outer loop
    vertex 264.38471952685364 -6.126479372840118 20.0
    vertex 264.3847195268536 -12.257850222738597 10.13137037306093
    vertex 264.3847195268536 -11.92647937284012 10.385640169217556
  endloop
endfacet
facet normal 1.0 -2.9762972851906878e-15 -3.0744549394657577e-15
  outer loop
    vertex 264.38471952685364 -6.126479372840118 20.0
    vertex 264.3847195268536 -11.92647937284012 10.385640169217556
    vertex 264.3847195268536 -11.540589845004154 10.545480845224965
  endloop
endfacet
facet normal 1.0 -2.9762972851906878e-15 -3.0744549394657577e-15
  outer loop
    vertex 264.38471952685364 -6.126479372840118 20.0
    vertex 264.3847195268536 -11.540589845004154 10.545480845224965
    vertex 264.3847195268536 -11.12647937284012 10.599999523162456
  endloop
endfacet
facet normal 1.0 -2.9762972851906878e-15 -3.0744549394657577e-15
  outer loop
    vertex 264.38471952685364 -6.126479372840118 20.0
    vertex 264.3847195268536 -11.12647937284012 10.599999523162456
    vertex 264.3847195268536 -10.712368900676088 10.545480845224967
  endloop
endfacet
facet normal 1.0 -2.9762972851906878e-15 -3.0744549394657577e-15
  outer loop
    vertex 264.38471952685364 -6.126479372840118 20.0
    vertex 264.3847195268536 -10.712368900676088 10.545480845224967
    vertex 264.3847195268536 -10.32647937284012 10.38564016921756
  endloop
endfacet
facet normal 1.0 -2.9762972851906878e-15 -3.0744549394657577e-15
  outer loop
    vertex 264.38471952685364 -6.126479372840118 20.0
    vertex 264.3847195268536 -10.32647937284012 10.38564016921756
    vertex 264.3847195268536 -9.995108522941644 10.131370373060934
  endloop
endfacet
facet normal 1.0 -2.9762972851906878e-15 -3.0744549394657577e-15
  outer loop
    vertex 264.38471952685364 -6.126479372840118 20.0
    vertex 264.3847195268536 -9.995108522941644 10.131370373060934
    vertex 264.3847195268536 -9.740838726785018 9.799999523162457
  endloop
endfacet
facet normal 1.0 -2.9762972851906878e-15 -3.0744549394657577e-15
  outer loop
    vertex 264.38471952685364 -6.126479372840118 20.0
    vertex 264.3847195268536 -9.740838726785018 9.799999523162457
    vertex 264.3847195268536 -9.580998050777609 9.414109995326493
  endloop
endfacet
facet normal 1.0 -2.9762972851906878e-15 -3.0744549394657577e-15
  outer loop
    vertex 264.38471952685364 -6.126479372840118 20.0
    vertex 264.3847195268536 -9.580998050777609 9.414109995326493
    vertex 264.3847195268536 -9.526479372840118 8.999999523162458
  endloop
endfacet
facet normal 1.0 -2.9762972851906878e-15 -3.0744549394657577e-15
  outer loop
    vertex 264.3847195268535 -16.12647937284012 -1.8329782136561337e-14
    vertex 264.3847195268536 -12.671960694902626 8.585889050998421
    vertex 264.3847195268535 -16.12647937284012 19.999999999999982
  endloop
endfacet
facet normal 1.0 -2.9762972851906878e-15 -3.0744549394657577e-15
  outer loop
    vertex 264.3847195268536 -12.671960694902626 8.585889050998421
    vertex 264.3847195268535 -16.12647937284012 -1.8329782136561337e-14
    vertex 264.3847195268536 -12.512120018895219 8.199999523162456
  endloop
endfacet
facet normal 1.0 -2.9762972851906878e-15 -3.0744549394657577e-15
  outer loop
    vertex 264.3847195268536 -12.512120018895219 8.199999523162456
    vertex 264.3847195268535 -16.12647937284012 -1.8329782136561337e-14
    vertex 264.3847195268536 -12.257850222738593 7.868628673263979
  endloop
endfacet
facet normal 1.0 -2.9762972851906878e-15 -3.0744549394657577e-15
  outer loop
    vertex 264.3847195268536 -12.257850222738593 7.868628673263979
    vertex 264.3847195268535 -16.12647937284012 -1.8329782136561337e-14
    vertex 264.3847195268536 -11.926479372840117 7.614358877107353
  endloop
endfacet
facet normal 1.0 -2.9762972851906878e-15 -3.0744549394657577e-15
  outer loop
    vertex 264.3847195268536 -11.926479372840117 7.614358877107353
    vertex 264.3847195268535 -16.12647937284012 -1.8329782136561337e-14
    vertex 264.3847195268536 -11.540589845004149 7.454518201099948
  endloop
endfacet
facet normal 1.0 -2.9762972851906878e-15 -3.0744549394657577e-15
  outer loop
    vertex 264.3847195268536 -11.540589845004149 7.454518201099948
    vertex 264.3847195268535 -16.12647937284012 -1.8329782136561337e-14
    vertex 264.38471952685364 29.87352062715988 0.0
  endloop
endfacet
facet normal 1.0 -2.9762972851906878e-15 -3.0744549394657577e-15
  outer loop
    vertex 264.3847195268535 -16.12647937284012 19.999999999999982
    vertex 264.3847195268536 -12.671960694902626 8.585889050998421
    vertex 264.3847195268536 -12.726479372840117 8.999999523162455
  endloop
endfacet
facet normal 1.0 -2.9762972851906878e-15 -3.0744549394657577e-15
  outer loop
    vertex 264.3847195268536 -11.540589845004149 7.454518201099948
    vertex 264.38471952685364 29.87352062715988 0.0
    vertex 264.3847195268536 -11.126479372840116 7.399999523162457
  endloop
endfacet
facet normal 1.0 -2.9762972851906878e-15 -3.0744549394657577e-15
  outer loop
    vertex 264.3847195268536 -11.126479372840116 7.399999523162457
    vertex 264.38471952685364 29.87352062715988 0.0
    vertex 264.3847195268536 -10.712368900676083 7.454518201099948
  endloop
endfacet
facet normal 1.0 -2.9762972851906878e-15 -3.0744549394657577e-15
  outer loop
    vertex 264.3847195268536 -10.712368900676083 7.454518201099948
    vertex 264.38471952685364 29.87352062715988 0.0
    vertex 264.3847195268536 -10.326479372840117 7.614358877107355
  endloop
endfacet
facet normal 1.0 -2.9762972851906878e-15 -3.0744549394657577e-15
  outer loop
    vertex 264.3847195268536 -10.326479372840117 7.614358877107355
    vertex 264.38471952685364 29.87352062715988 0.0
    vertex 264.3847195268536 -9.99510852294164 7.868628673263981
  endloop
endfacet
facet normal 1.0 -2.9762972851906878e-15 -3.0744549394657577e-15
  outer loop
    vertex 264.3847195268536 -9.99510852294164 7.868628673263981
    vertex 264.38471952685364 29.87352062715988 0.0
    vertex 264.3847195268536 -9.740838726785015 8.199999523162457
  endloop
endfacet
facet normal 1.0 -2.9762972851906878e-15 -3.0744549394657577e-15
  outer loop
    vertex 264.3847195268536 -9.740838726785015 8.199999523162457
    vertex 264.38471952685364 29.87352062715988 0.0
    vertex 264.3847195268536 -9.580998050777607 8.585889050998425
  endloop
endfacet
facet normal 1.0 -2.9762972851906878e-15 -3.0744549394657577e-15
  outer loop
    vertex 264.3847195268536 -9.580998050777607 8.585889050998425
    vertex 264.38471952685364 29.87352062715988 0.0
    vertex 264.3847195268536 -9.526479372840118 8.999999523162458
  endloop
endfacet
facet normal 1.0 -2.9762972851906878e-15 -3.0744549394657577e-15
  outer loop
    vertex 264.3847195268536 -9.526479372840118 8.999999523162458
    vertex 264.38471952685364 29.87352062715988 0.0
    vertex 264.3847195268539 3.8735206271599956 6.249999999999734
  endloop
endfacet
facet normal 1.0 -2.9762972851906878e-15 -3.0744549394657577e-15
  outer loop
    vertex 264.3847195268536 -9.526479372840118 8.999999523162458
    vertex 264.3847195268539 3.8735206271599956 6.249999999999734
    vertex 264.38471952685364 -6.126479372840118 20.0
  endloop
endfacet
facet normal 1.0 -2.9762972851906878e-15 -3.0744549394657577e-15
  outer loop
    vertex 264.38471952685364 -6.126479372840118 20.0
    vertex 264.3847195268539 3.8735206271599956 6.249999999999734
    vertex 264.38471952685364 -4.126479372840118 20.000000000000007
  endloop
endfacet
facet normal 1.0 -2.9762972851906878e-15 -3.0744549394657577e-15
  outer loop
    vertex 264.38471952685364 -6.126479372840118 20.0
    vertex 264.38471952685364 -4.126479372840118 20.000000000000007
    vertex 264.38471952685364 -6.126479372840118 40.0
  endloop
endfacet
facet normal 1.0 -2.9762972851906878e-15 -3.0744549394657577e-15
  outer loop
    vertex 264.38471952685364 -4.126479372840118 20.000000000000007
    vertex 264.3847195268539 3.8735206271599956 6.249999999999734
    vertex 264.3847195268539 3.8735206271599845 11.749999046325382
  endloop
endfacet
facet normal 1.0 -2.9762972851906878e-15 -3.0744549394657577e-15
  outer loop
    vertex 264.3847195268539 3.8735206271599956 6.249999999999734
    vertex 264.38471952685364 29.87352062715988 0.0
    vertex 264.38471952685364 19.85278862715999 6.249999999999649
  endloop
endfacet
facet normal 1.0 -2.9762972851906878e-15 -3.0744549394657577e-15
  outer loop
    vertex 264.38471952685364 19.85278862715999 6.249999999999649
    vertex 264.38471952685364 29.87352062715988 0.0
    vertex 264.38471952685364 27.873520627159877 20.000000000000007
  endloop
endfacet
facet normal 1.0 -2.9762972851906878e-15 -3.0744549394657577e-15
  outer loop
    vertex 264.38471952685364 27.873520627159877 20.000000000000007
    vertex 264.38471952685364 29.87352062715988 0.0
    vertex 264.38471952685364 29.858843105531555 20.000000000000007
  endloop
endfacet
facet normal 1.0 -2.9762972851906878e-15 -3.0744549394657577e-15
  outer loop
    vertex 264.3847195268539 3.8735206271599845 11.749999046325382
    vertex 264.38471952685364 27.873520627159877 20.000000000000007
    vertex 264.38471952685364 -4.126479372840118 20.000000000000007
  endloop
endfacet
facet normal 1.0 -2.9762972851906878e-15 -3.0744549394657577e-15
  outer loop
    vertex 264.38471952685364 27.873520627159877 20.000000000000007
    vertex 264.3847195268539 3.8735206271599845 11.749999046325382
    vertex 264.38471952685364 19.852788627159978 11.749999046325287
  endloop
endfacet
facet normal 1.0 -2.9762972851906878e-15 -3.0744549394657577e-15
  outer loop
    vertex 264.38471952685364 27.873520627159877 20.000000000000007
    vertex 264.38471952685364 19.852788627159978 11.749999046325287
    vertex 264.38471952685364 19.85278862715999 6.249999999999649
  endloop
endfacet
facet normal 1.0 -2.9762972851906878e-15 -3.0744549394657577e-15
  outer loop
    vertex 264.38471952685364 -4.126479372840118 40.0
    vertex 264.38471952685364 -6.126479372840118 40.0
    vertex 264.38471952685364 -4.126479372840118 20.000000000000007
  endloop
endfacet
endsolid Ender 3 Feet
