solid LED Strip Long Boom
facet normal 1.61544022528134e-07 0.9999999999999869 -6.369120788968416e-10
  outer loop
    vertex 91.92794904093905 9.068006758689014 1.0000054660337194
    vertex 101.88207527040737 9.06800515639163 9.999946022728974
    vertex 101.88207349162245 9.068005150659763 1.000000859002164
  endloop
endfacet
facet normal 1.61544022528134e-07 0.9999999999999869 -6.369120788968416e-10
  outer loop
    vertex 101.88207527040737 9.06800515639163 9.999946022728974
    vertex 91.92794904093905 9.068006758689014 1.0000054660337194
    vertex 91.92795081972379 9.068006764420975 9.999950629760525
  endloop
endfacet
facet normal 4.2535828020964886e-07 0.8945287126595085 0.4470104945384856
  outer loop
    vertex 17.70549292475341 9.037800267942108 10.582968005345023
    vertex 27.70549291722795 8.908913747236847 10.840877923057013
    vertex 27.70549292475331 9.037798062563192 10.582962902985924
  endloop
endfacet
facet normal 4.2535828020964886e-07 0.8945287126595085 0.4470104945384856
  outer loop
    vertex 27.70549291722795 8.908913747236847 10.840877923057013
    vertex 17.70549292475341 9.037800267942108 10.582968005345023
    vertex 17.705492917227915 8.908915952615718 10.84088302541612
  endloop
endfacet
facet normal 0.9999999999998889 -4.349710306082433e-07 -1.8247661045335555e-07
  outer loop
    vertex 101.88206916051277 -2.687504031300145 12.62500038965172
    vertex 101.88206912767781 -3.2500040305836246 13.75000039000999
    vertex 101.88206914374865 -3.250004031300237 12.625000390009967
  endloop
endfacet
facet normal 0.9999999999998889 -4.349710306082433e-07 -1.8247661045335555e-07
  outer loop
    vertex 101.88206912767781 -3.2500040305836246 13.75000039000999
    vertex 101.88206916051277 -2.687504031300145 12.62500038965172
    vertex 101.8820691580976 -1.7500040299468373 14.750000389054664
  endloop
endfacet
facet normal 0.9999999999998889 -4.349710306082433e-07 -1.8247661045335555e-07
  outer loop
    vertex 101.8820691580976 -1.7500040299468373 14.750000389054664
    vertex 101.88206916051277 -2.687504031300145 12.62500038965172
    vertex 101.88206917952492 -1.7500040309021065 13.25000038905466
  endloop
endfacet
facet normal 0.9999999999998889 -4.349710306082433e-07 -1.8247661045335555e-07
  outer loop
    vertex 101.88206936880098 -1.7500042265028244 8.658918884014075e-07
    vertex 101.88206929374067 -3.250004225149516 2.1250007476379147
    vertex 101.88206930981116 -3.2500042258659723 1.000000866847212
  endloop
endfacet
facet normal 0.9999999999998889 -4.349710306082433e-07 -1.8247661045335555e-07
  outer loop
    vertex 101.88206929374067 -3.250004225149516 2.1250007476379147
    vertex 101.88206936880098 -1.7500042265028244 8.658918884014075e-07
    vertex 101.8820693105048 -2.6875042251495365 2.125000747279668
  endloop
endfacet
facet normal 0.9999999999998889 -4.349710306082433e-07 -1.8247661045335555e-07
  outer loop
    vertex 101.8820693105048 -2.6875042251495365 2.125000747279668
    vertex 101.88206936880098 -1.7500042265028244 8.658918884014075e-07
    vertex 101.88206934737329 -1.7500042255475767 1.50000086589189
  endloop
endfacet
facet normal 0.9999999999998889 -4.349710306082433e-07 -1.8247661045335555e-07
  outer loop
    vertex 101.88206934737329 -1.7500042255475767 1.50000086589189
    vertex 101.88206936880098 -1.7500042265028244 8.658918884014075e-07
    vertex 101.88207156875585 8.068005150022985 8.596390141187722e-07
  endloop
endfacet
facet normal 0.9999999999998889 -4.349710306082433e-07 -1.8247661045335555e-07
  outer loop
    vertex 101.88206934737329 -1.7500042255475767 1.50000086589189
    vertex 101.88207156875585 8.068005150022985 8.596390141187722e-07
    vertex 101.88206938831165 0.7499862392059025 3.849967613848607
  endloop
endfacet
facet normal 0.9999999999998889 -4.349710306082433e-07 -1.8247661045335555e-07
  outer loop
    vertex 101.88206934737329 -1.7500042255475767 1.50000086589189
    vertex 101.88206938831165 0.7499862392059025 3.849967613848607
    vertex 101.88206917952492 -1.7500040309021065 13.25000038905466
  endloop
endfacet
facet normal 0.9999999999998889 -4.349710306082433e-07 -1.8247661045335555e-07
  outer loop
    vertex 101.88206917952492 -1.7500040309021065 13.25000038905466
    vertex 101.88206938831165 0.7499862392059025 3.849967613848607
    vertex 101.8820691580976 -1.7500040299468373 14.750000389054664
  endloop
endfacet
facet normal 0.9999999999998889 -4.349710306082433e-07 -1.8247661045335555e-07
  outer loop
    vertex 101.88206938831165 0.7499862392059025 3.849967613848607
    vertex 101.88207156875585 8.068005150022985 8.596390141187722e-07
    vertex 101.88206955132947 6.219827242623906 3.8499676103649776
  endloop
endfacet
facet normal 0.9999999999998889 -4.349710306082433e-07 -1.8247661045335555e-07
  outer loop
    vertex 101.88206955132947 6.219827242623906 3.8499676103649776
    vertex 101.88207156875585 8.068005150022985 8.596390141187722e-07
    vertex 101.88207518552306 6.21982724654056 9.99994602454293
  endloop
endfacet
facet normal 0.9999999999998889 -4.349710306082433e-07 -1.8247661045335555e-07
  outer loop
    vertex 101.882075174501 5.969827246699686 10.249946024702139
    vertex 101.88207515931664 5.8198272471774555 10.999946024797682
    vertex 101.88207517003039 5.819827246699778 10.24994602479768
  endloop
endfacet
facet normal 0.9999999999998889 -4.349710306082433e-07 -1.8247661045335555e-07
  outer loop
    vertex 101.88207515931664 5.8198272471774555 10.999946024797682
    vertex 101.882075174501 5.969827246699686 10.249946024702139
    vertex 101.88207522631897 8.068005157028447 10.999946023365865
  endloop
endfacet
facet normal 0.9999999999998889 -4.349710306082433e-07 -1.8247661045335555e-07
  outer loop
    vertex 101.88207522631897 8.068005157028447 10.999946023365865
    vertex 101.882075174501 5.969827246699686 10.249946024702139
    vertex 101.88207518552306 6.21982724654056 9.99994602454293
  endloop
endfacet
facet normal 0.9999999999998889 -4.349710306082433e-07 -1.8247661045335555e-07
  outer loop
    vertex 101.88207522631897 8.068005157028447 10.999946023365865
    vertex 101.88207518552306 6.21982724654056 9.99994602454293
    vertex 101.88207156875585 8.068005150022985 8.596390141187722e-07
  endloop
endfacet
facet normal 0.9999999999998889 -4.349710306082433e-07 -1.8247661045335555e-07
  outer loop
    vertex 101.88207522631897 8.068005157028447 10.999946023365865
    vertex 101.88207156875585 8.068005150022985 8.596390141187722e-07
    vertex 101.88207157744412 8.36039597338839 0.0018331062331916046
  endloop
endfacet
facet normal 0.9999999999998889 -4.349710306082433e-07 -1.8247661045335555e-07
  outer loop
    vertex 101.88207522631897 8.068005157028447 10.999946023365865
    vertex 101.88207157744412 8.36039597338839 0.0018331062331916046
    vertex 101.88207523505938 8.360395980391685 10.99811353798066
  endloop
endfacet
facet normal 0.9999999999998889 -4.349710306082433e-07 -1.8247661045335555e-07
  outer loop
    vertex 101.88207523505938 8.360395980391685 10.99811353798066
    vertex 101.88207157744412 8.36039597338839 0.0018331062331916046
    vertex 101.88207158569885 8.650987213335771 0.0302208910060056
  endloop
endfacet
facet normal 0.9999999999998889 -4.349710306082433e-07 -1.8247661045335555e-07
  outer loop
    vertex 101.88207523505938 8.360395980391685 10.99811353798066
    vertex 101.88207158569885 8.650987213335771 0.0302208910060056
    vertex 101.88207524412574 8.65098722030288 10.969725991256293
  endloop
endfacet
facet normal 0.9999999999998889 -4.349710306082433e-07 -1.8247661045335555e-07
  outer loop
    vertex 101.88207524412574 8.65098722030288 10.969725991256293
    vertex 101.88207158569885 8.650987213335771 0.0302208910060056
    vertex 101.88207159154452 8.90890080289532 0.15910353740241445
  endloop
endfacet
facet normal 0.9999999999998889 -4.349710306082433e-07 -1.8247661045335555e-07
  outer loop
    vertex 101.88207524412574 8.65098722030288 10.969725991256293
    vertex 101.88207159154452 8.90890080289532 0.15910353740241445
    vertex 101.8820752536535 8.908900809698205 10.840843106112773
  endloop
endfacet
facet normal 0.9999999999998889 -4.349710306082433e-07 -1.8247661045335555e-07
  outer loop
    vertex 101.8820752536535 8.908900809698205 10.840843106112773
    vertex 101.88207159154452 8.90890080289532 0.15910353740241445
    vertex 101.88207159170122 9.037785118550216 0.41701879572792416
  endloop
endfacet
facet normal 0.9999999999998889 -4.349710306082433e-07 -1.8247661045335555e-07
  outer loop
    vertex 101.8820752536535 8.908900809698205 10.840843106112773
    vertex 101.88207159170122 9.037785118550216 0.41701879572792416
    vertex 101.88207526117877 9.03778512502453 10.582928086041669
  endloop
endfacet
facet normal 0.9999999999998889 -4.349710306082433e-07 -1.8247661045335555e-07
  outer loop
    vertex 101.88207526117877 9.03778512502453 10.582928086041669
    vertex 101.88207159170122 9.037785118550216 0.41701879572792416
    vertex 101.88207158839624 9.066173142111886 0.7076102740576226
  endloop
endfacet
facet normal 0.9999999999998889 -4.349710306082433e-07 -1.8247661045335555e-07
  outer loop
    vertex 101.88207526117877 9.03778512502453 10.582928086041669
    vertex 101.88207158839624 9.066173142111886 0.7076102740576226
    vertex 101.88207526617605 9.066173148216016 10.292336369257242
  endloop
endfacet
facet normal 0.9999999999998889 -4.349710306082433e-07 -1.8247661045335555e-07
  outer loop
    vertex 101.88207526617605 9.066173148216016 10.292336369257242
    vertex 101.88207158839624 9.066173142111886 0.7076102740576226
    vertex 101.88207349162245 9.068005150659763 1.000000859002164
  endloop
endfacet
facet normal 0.9999999999998889 -4.349710306082433e-07 -1.8247661045335555e-07
  outer loop
    vertex 101.88207526617605 9.066173148216016 10.292336369257242
    vertex 101.88207349162245 9.068005150659763 1.000000859002164
    vertex 101.88207527040737 9.06800515639163 9.999946022728974
  endloop
endfacet
facet normal 0.9999999999998889 -4.349710306082433e-07 -1.8247661045335555e-07
  outer loop
    vertex 101.8820692326053 0.7499959700532727 14.750000387462453
    vertex 101.8820691580976 -1.7500040299468373 14.750000389054664
    vertex 101.88206938831165 0.7499862392059025 3.849967613848607
  endloop
endfacet
facet normal -1.7449229782251085e-09 0.9999999999999993 3.852694173740156e-08
  outer loop
    vertex -2.1070321988979517e-07 1.96556074569601e-07 14.74999952316278
    vertex 17.70548517718235 1.379671494695922e-06 6.4518052783544076e-06
    vertex -1.3251639369160627e-14 5.992428775414282e-15 -1.0505193779423451e-22
  endloop
endfacet
facet normal -1.7449229782251085e-09 0.9999999999999993 3.852694173740156e-08
  outer loop
    vertex 17.70548517718235 1.379671494695922e-06 6.4518052783544076e-06
    vertex -2.1070321988979517e-07 1.96556074569601e-07 14.74999952316278
    vertex 17.70548512218521 -5.252251474185953e-07 3.8500023182231726
  endloop
endfacet
facet normal -1.7449229782251085e-09 0.9999999999999993 3.852694173740156e-08
  outer loop
    vertex 17.70548512218521 -5.252251474185953e-07 3.8500023182231726
    vertex -2.1070321988979517e-07 1.96556074569601e-07 14.74999952316278
    vertex 17.70548496647912 -3.3112098779299044e-07 14.749999776085003
  endloop
endfacet
facet normal -0.9999999999999996 2.980305237302301e-08 -1.4284964331368701e-08
  outer loop
    vertex -2.743505234548138e-07 -3.249999804924653 12.42499971596748
    vertex -1.1219054941980465e-07 -2.649999617049588 2.3249999301621576
    vertex -1.3007240106891608e-07 -3.2499999985193355 2.324999930544285
  endloop
endfacet
facet normal -0.9999999999999996 2.980305237302301e-08 -1.4284964331368701e-08
  outer loop
    vertex -1.1219054941980465e-07 -2.649999617049588 2.3249999301621576
    vertex -2.743505234548138e-07 -3.249999804924653 12.42499971596748
    vertex -2.5646868936990763e-07 -2.6499994234549282 12.424999715585345
  endloop
endfacet
facet normal -8.488022937855481e-09 6.368812231520351e-10 1.0
  outer loop
    vertex 101.88206929374067 -3.250004225149516 2.1250007476379147
    vertex -1.1045116928096871e-07 -2.687499998646793 2.124999882502326
    vertex -1.2721537420131225e-07 -3.249999998646761 2.12499988286057
  endloop
endfacet
facet normal -8.488022937855481e-09 6.368812231520351e-10 1.0
  outer loop
    vertex -1.1045116928096871e-07 -2.687499998646793 2.124999882502326
    vertex 101.88206929374067 -3.250004225149516 2.1250007476379147
    vertex 101.8820693105048 -2.6875042251495365 2.125000747279668
  endloop
endfacet
facet normal 2.2373044556461237e-07 0.9999803715514965 0.006265501710246045
  outer loop
    vertex 17.705492933981883 9.068020299309191 9.999985942032328
    vertex 27.705492929750427 9.066186085754609 10.292371186201489
    vertex 27.705492933981844 9.068018093930284 9.999980839673217
  endloop
endfacet
facet normal 2.2373044556461237e-07 0.9999803715514965 0.006265501710246045
  outer loop
    vertex 27.705492929750427 9.066186085754609 10.292371186201489
    vertex 17.705492933981883 9.068020299309191 9.999985942032328
    vertex 17.705492929750495 9.066188291133475 10.292376288560579
  endloop
endfacet
facet normal 2.1756060215384054e-07 0.999980371559526 -0.006265500428948145
  outer loop
    vertex 17.70548543727389 9.066188285029453 0.7076160995040994
    vertex 27.705493062546292 9.068018088198318 1.000001820508203
    vertex 27.70549306666843 9.066186079650267 0.7076112355636903
  endloop
endfacet
facet normal 2.1756060215384054e-07 0.999980371559526 -0.006265500428948145
  outer loop
    vertex 27.705493062546292 9.068018088198318 1.000001820508203
    vertex 17.70548543727389 9.066188285029453 0.7076160995040994
    vertex 17.705485433151807 9.068020293577309 1.0000064460300329
  endloop
endfacet
facet normal -1.4284964142378606e-08 6.368859259407525e-10 1.0
  outer loop
    vertex 101.88206914660572 -3.250002841318531 12.425001171349193
    vertex -2.5646868936990763e-07 -2.6499994234549282 12.424999715585345
    vertex -2.743505234548138e-07 -3.249999804924653 12.42499971596748
  endloop
endfacet
facet normal -1.4284964142378606e-08 6.368859259407525e-10 1.0
  outer loop
    vertex -2.5646868936990763e-07 -2.6499994234549282 12.424999715585345
    vertex 101.88206914660572 -3.250002841318531 12.425001171349193
    vertex 101.88206916448766 -2.650002459848744 12.425001170967063
  endloop
endfacet
facet normal 1.4284964190816549e-08 -6.368794635200556e-10 -1.0
  outer loop
    vertex -1.1219054941980465e-07 -2.649999617049588 2.3249999301621576
    vertex 101.88206929088378 -3.2500030349130884 2.325001385926
    vertex -1.3007240106891608e-07 -3.2499999985193355 2.324999930544285
  endloop
endfacet
facet normal 1.4284964190816549e-08 -6.368794635200556e-10 -1.0
  outer loop
    vertex 101.88206929088378 -3.2500030349130884 2.325001385926
    vertex -1.1219054941980465e-07 -2.649999617049588 2.3249999301621576
    vertex 101.88206930876541 -2.6500026534433787 2.3250013855438736
  endloop
endfacet
facet normal 8.488022970723843e-09 -6.368840431194359e-10 -1.0
  outer loop
    vertex -2.6044326764370143e-07 -2.687499804797472 12.624999524874376
    vertex 101.88206914374865 -3.250004031300237 12.625000390009967
    vertex -2.77207474871791e-07 -3.2499998047974508 12.624999525232617
  endloop
endfacet
facet normal 8.488022970723843e-09 -6.368840431194359e-10 -1.0
  outer loop
    vertex 101.88206914374865 -3.250004031300237 12.625000390009967
    vertex -2.6044326764370143e-07 -2.687499804797472 12.624999524874376
    vertex 101.88206916051277 -2.687504031300145 12.62500038965172
  endloop
endfacet
facet normal -0.9999999999999375 2.9399009572389863e-07 1.9732425596163833e-07
  outer loop
    vertex 91.92795070863335 5.81982790153228 10.999945863457656
    vertex 91.92795072381767 5.969827901054761 10.249945863362118
    vertex 91.92795071934717 5.819827901054662 10.249945863457656
  endloop
endfacet
facet normal -0.9999999999999375 2.9399009572389863e-07 1.9732425596163833e-07
  outer loop
    vertex 91.92795072381767 5.969827901054761 10.249945863362118
    vertex 91.92795070863335 5.81982790153228 10.999945863457656
    vertex 91.92795077563586 8.068006765057726 10.99995063039741
  endloop
endfacet
facet normal -0.9999999999999375 2.9399009572389863e-07 1.9732425596163833e-07
  outer loop
    vertex 91.92795072381767 5.969827901054761 10.249945863362118
    vertex 91.92795077563586 8.068006765057726 10.99995063039741
    vertex 91.92795073483937 6.219828854569812 9.999950631574475
  endloop
endfacet
facet normal -0.9999999999999375 2.9399009572389863e-07 1.9732425596163833e-07
  outer loop
    vertex 91.92795073483937 6.219828854569812 9.999950631574475
    vertex 91.92795077563586 8.068006765057726 10.99995063039741
    vertex 91.9279490254211 8.06800675805216 5.466670599832475e-06
  endloop
endfacet
facet normal -0.9999999999999375 2.9399009572389863e-07 1.9732425596163833e-07
  outer loop
    vertex 91.9279490254211 8.06800675805216 5.466670599832475e-06
    vertex 91.92795077563586 8.068006765057726 10.99995063039741
    vertex 91.92794903410893 8.360397581417638 0.0018379516833562368
  endloop
endfacet
facet normal -0.9999999999999375 2.9399009572389863e-07 1.9732425596163833e-07
  outer loop
    vertex 91.92794903410893 8.360397581417638 0.0018379516833562368
    vertex 91.92795077563586 8.068006765057726 10.99995063039741
    vertex 91.92795078437612 8.360397588420925 10.99811862184938
  endloop
endfacet
facet normal -0.9999999999999375 2.9399009572389863e-07 1.9732425596163833e-07
  outer loop
    vertex 91.92794903410893 8.360397581417638 0.0018379516833562368
    vertex 91.92795078437612 8.360397588420925 10.99811862184938
    vertex 91.92794904236395 8.650988821364836 0.030225736456169543
  endloop
endfacet
facet normal -0.9999999999999375 2.9399009572389863e-07 1.9732425596163833e-07
  outer loop
    vertex 91.92794904236395 8.650988821364836 0.030225736456169543
    vertex 91.92795078437612 8.360397588420925 10.99811862184938
    vertex 91.9279507934423 8.650988828332016 10.96973059828784
  endloop
endfacet
facet normal -0.9999999999999375 2.9399009572389863e-07 1.9732425596163833e-07
  outer loop
    vertex 91.92794904236395 8.650988821364836 0.030225736456169543
    vertex 91.9279507934423 8.650988828332016 10.96973059828784
    vertex 91.92794904820941 8.908902410924531 0.15910838285257836
  endloop
endfacet
facet normal -0.9999999999999375 2.9399009572389863e-07 1.9732425596163833e-07
  outer loop
    vertex 91.92794904820941 8.908902410924531 0.15910838285257836
    vertex 91.9279507934423 8.650988828332016 10.96973059828784
    vertex 91.9279508029698 8.908902417727383 10.84084818998149
  endloop
endfacet
facet normal -0.9999999999999375 2.9399009572389863e-07 1.9732425596163833e-07
  outer loop
    vertex 91.92794904820941 8.908902410924531 0.15910838285257836
    vertex 91.9279508029698 8.908902417727383 10.84084818998149
    vertex 91.9279490483664 9.03778672657941 0.41702340275950905
  endloop
endfacet
facet normal -0.9999999999999375 2.9399009572389863e-07 1.9732425596163833e-07
  outer loop
    vertex 91.9279490483664 9.03778672657941 0.41702340275950905
    vertex 91.9279508029698 8.908902417727383 10.84084818998149
    vertex 91.9279508104952 9.03778673305383 10.582932693073225
  endloop
endfacet
facet normal -0.9999999999999375 2.9399009572389863e-07 1.9732425596163833e-07
  outer loop
    vertex 91.9279490483664 9.03778672657941 0.41702340275950905
    vertex 91.9279508104952 9.03778673305383 10.582932693073225
    vertex 91.92794904506128 9.066174750140938 0.7076151195077869
  endloop
endfacet
facet normal -0.9999999999999375 2.9399009572389863e-07 1.9732425596163833e-07
  outer loop
    vertex 91.92794904506128 9.066174750140938 0.7076151195077869
    vertex 91.9279508104952 9.03778673305383 10.582932693073225
    vertex 91.92795081549244 9.066174756245257 10.29234145312595
  endloop
endfacet
facet normal -0.9999999999999375 2.9399009572389863e-07 1.9732425596163833e-07
  outer loop
    vertex 91.92794904506128 9.066174750140938 0.7076151195077869
    vertex 91.92795081549244 9.066174756245257 10.29234145312595
    vertex 91.92794904093905 9.068006758689014 1.0000054660337194
  endloop
endfacet
facet normal -0.9999999999999375 2.9399009572389863e-07 1.9732425596163833e-07
  outer loop
    vertex 91.92794904093905 9.068006758689014 1.0000054660337194
    vertex 91.92795081549244 9.066174756245257 10.29234145312595
    vertex 91.92795081972379 9.068006764420975 9.999950629760525
  endloop
endfacet
facet normal -0.9999999999999375 2.9399009572389863e-07 1.9732425596163833e-07
  outer loop
    vertex 91.92794493762818 0.7499868935608546 3.849972384792941
    vertex 91.9279490254211 8.06800675805216 5.466670599832475e-06
    vertex 91.92794880732191 0.7499868911088035 5.471331306077567e-06
  endloop
endfacet
facet normal -0.9999999999999375 2.9399009572389863e-07 1.9732425596163833e-07
  outer loop
    vertex 91.9279490254211 8.06800675805216 5.466670599832475e-06
    vertex 91.92794493762818 0.7499868935608546 3.849972384792941
    vertex 91.92794510064613 6.219828850653101 3.849972381309304
  endloop
endfacet
facet normal -0.9999999999999375 2.9399009572389863e-07 1.9732425596163833e-07
  outer loop
    vertex 91.9279490254211 8.06800675805216 5.466670599832475e-06
    vertex 91.92794510064613 6.219828850653101 3.849972381309304
    vertex 91.92795073483937 6.219828854569812 9.999950631574475
  endloop
endfacet
facet normal -2.980302481060348e-08 -0.9999999999999994 1.916778429834895e-08
  outer loop
    vertex 101.88206929088378 -3.2500030349130884 2.325001385926
    vertex -2.743505234548138e-07 -3.249999804924653 12.42499971596748
    vertex -1.3007240106891608e-07 -3.2499999985193355 2.324999930544285
  endloop
endfacet
facet normal -2.980302481060348e-08 -0.9999999999999994 1.916778429834895e-08
  outer loop
    vertex -2.743505234548138e-07 -3.249999804924653 12.42499971596748
    vertex 101.88206929088378 -3.2500030349130884 2.325001385926
    vertex 101.88206914660572 -3.250002841318531 12.425001171349193
  endloop
endfacet
facet normal -2.014573781217052e-08 0.8945287120901777 -0.4470104956779958
  outer loop
    vertex 17.705485440422084 8.908915945812922 0.1591093628488915
    vertex 27.70549306997352 9.037798056088782 0.4170195188154131
    vertex 27.705493069816665 8.908913740433812 0.15910449890848227
  endloop
endfacet
facet normal -2.014573781217052e-08 0.8945287120901777 -0.4470104956779958
  outer loop
    vertex 27.70549306997352 9.037798056088782 0.4170195188154131
    vertex 17.705485440422084 8.908915945812922 0.1591093628488915
    vertex 17.705485440578997 9.037800261467764 0.4170243827558215
  endloop
endfacet
facet normal -8.114896087574045e-09 -2.170802551678341e-08 0.9999999999999999
  outer loop
    vertex 101.8820691580976 -1.7500040299468373 14.750000389054664
    vertex -2.1070321988979517e-07 1.96556074569601e-07 14.74999952316278
    vertex -2.628585150867609e-07 -1.749999803443958 14.749999524277316
  endloop
endfacet
facet normal -8.114896087574045e-09 -2.170802551678341e-08 0.9999999999999999
  outer loop
    vertex -2.1070321988979517e-07 1.96556074569601e-07 14.74999952316278
    vertex 101.8820691580976 -1.7500040299468373 14.750000389054664
    vertex 17.70548496647912 -3.3112098779299044e-07 14.749999776085003
  endloop
endfacet
facet normal -8.114896087574045e-09 -2.170802551678341e-08 0.9999999999999999
  outer loop
    vertex 17.70548496647912 -3.3112098779299044e-07 14.749999776085003
    vertex 101.8820691580976 -1.7500040299468373 14.750000389054664
    vertex 18.45548498883137 0.7499996465267493 14.749999786321062
  endloop
endfacet
facet normal -8.114896087574045e-09 -2.170802551678341e-08 0.9999999999999999
  outer loop
    vertex 18.45548498883137 0.7499996465267493 14.749999786321062
    vertex 101.8820691580976 -1.7500040299468373 14.750000389054664
    vertex 101.8820692326053 0.7499959700532727 14.750000387462453
  endloop
endfacet
facet normal 1.5856597797672223e-07 0.9999803715595336 -0.006265500429523767
  outer loop
    vertex 91.92794904506128 9.066174750140938 0.7076151195077869
    vertex 101.88207349162245 9.068005150659763 1.000000859002164
    vertex 101.88207158839624 9.066173142111886 0.7076102740576226
  endloop
endfacet
facet normal 1.5856597797672223e-07 0.9999803715595336 -0.006265500429523767
  outer loop
    vertex 101.88207349162245 9.068005150659763 1.000000859002164
    vertex 91.92794904506128 9.066174750140938 0.7076151195077869
    vertex 91.92794904093905 9.068006758689014 1.0000054660337194
  endloop
endfacet
facet normal 5.076491008102838e-07 0.4470078478214167 0.8945300352619848
  outer loop
    vertex 101.88207524412574 8.65098722030288 10.969725991256293
    vertex 91.9279508029698 8.908902417727383 10.84084818998149
    vertex 91.9279507934423 8.650988828332016 10.96973059828784
  endloop
endfacet
facet normal 5.076491008102838e-07 0.4470078478214167 0.8945300352619848
  outer loop
    vertex 91.9279508029698 8.908902417727383 10.84084818998149
    vertex 101.88207524412574 8.65098722030288 10.969725991256293
    vertex 101.8820752536535 8.908900809698205 10.840843106112773
  endloop
endfacet
facet normal -4.7308138607115066e-07 0.006266714536241527 -0.9999803639515616
  outer loop
    vertex 17.705485426321673 8.360411116305915 0.0018389316796685307
    vertex 27.705493047028256 8.068018087561475 1.8211450827198961e-06
    vertex 17.70548541763372 8.068020292940544 6.446666912127175e-06
  endloop
endfacet
facet normal -4.7308138607115066e-07 0.006266714536241527 -0.9999803639515616
  outer loop
    vertex 27.705493047028256 8.068018087561475 1.8211450827198961e-06
    vertex 17.705485426321673 8.360411116305915 0.0018389316796685307
    vertex 27.705493055716097 8.36040891092684 0.0018340677392602073
  endloop
endfacet
facet normal -4.7378068633897607e-07 0.006266714536239973 -0.9999803639515614
  outer loop
    vertex 91.92794903410893 8.360397581417638 0.0018379516833562368
    vertex 101.88207156875585 8.068005150022985 8.596390141187722e-07
    vertex 91.9279490254211 8.06800675805216 5.466670599832475e-06
  endloop
endfacet
facet normal -4.7378068633897607e-07 0.006266714536239973 -0.9999803639515614
  outer loop
    vertex 101.88207156875585 8.068005150022985 8.596390141187722e-07
    vertex 91.92794903410893 8.360397581417638 0.0018379516833562368
    vertex 101.88207157744412 8.36039597338839 0.0018331062331916046
  endloop
endfacet
facet normal 1.722019973017507e-07 0.9952621764525587 -0.0972275687389465
  outer loop
    vertex 17.705485440578997 9.037800261467764 0.4170243827558215
    vertex 27.70549306666843 9.066186079650267 0.7076112355636903
    vertex 27.70549306997352 9.037798056088782 0.4170195188154131
  endloop
endfacet
facet normal 1.722019973017507e-07 0.9952621764525587 -0.0972275687389465
  outer loop
    vertex 27.70549306666843 9.066186079650267 0.7076112355636903
    vertex 17.705485440578997 9.037800261467764 0.4170243827558215
    vertex 17.70548543727389 9.066188285029453 0.7076160995040994
  endloop
endfacet
facet normal 2.2053780990760846e-07 0.9999999999999757 -6.369724506355438e-10
  outer loop
    vertex 17.705485433151807 9.068020293577309 1.0000064460300329
    vertex 27.705492933981844 9.068018093930284 9.999980839673217
    vertex 27.705493062546292 9.068018088198318 1.000001820508203
  endloop
endfacet
facet normal 2.2053780990760846e-07 0.9999999999999757 -6.369724506355438e-10
  outer loop
    vertex 27.705492933981844 9.068018093930284 9.999980839673217
    vertex 17.705485433151807 9.068020293577309 1.0000064460300329
    vertex 17.705492933981883 9.068020299309191 9.999985942032328
  endloop
endfacet
facet normal -3.0073792502864656e-08 -0.5547001956953245 0.8320502946911129
  outer loop
    vertex 101.88206912767781 -3.2500040305836246 13.75000039000999
    vertex -2.628585150867609e-07 -1.749999803443958 14.749999524277316
    vertex -2.932780824223182e-07 -3.249999804080788 13.749999525232651
  endloop
endfacet
facet normal -3.0073792502864656e-08 -0.5547001956953245 0.8320502946911129
  outer loop
    vertex -2.628585150867609e-07 -1.749999803443958 14.749999524277316
    vertex 101.88206912767781 -3.2500040305836246 13.75000039000999
    vertex 101.8820691580976 -1.7500040299468373 14.750000389054664
  endloop
endfacet
facet normal 1.1461476938633507e-07 0.9952621725929559 -0.09722760824753544
  outer loop
    vertex 91.9279490483664 9.03778672657941 0.41702340275950905
    vertex 101.88207158839624 9.066173142111886 0.7076102740576226
    vertex 101.88207159170122 9.037785118550216 0.41701879572792416
  endloop
endfacet
facet normal 1.1461476938633507e-07 0.9952621725929559 -0.09722760824753544
  outer loop
    vertex 101.88207158839624 9.066173142111886 0.7076102740576226
    vertex 91.9279490483664 9.03778672657941 0.41702340275950905
    vertex 91.92794904506128 9.066174750140938 0.7076151195077869
  endloop
endfacet
facet normal 2.4201457780055017e-09 1.836830616579903e-07 -0.9999999999999831
  outer loop
    vertex 27.705493047028256 8.068018087561475 1.8211450827198961e-06
    vertex 27.70549282892916 0.7499991742924197 1.8258057883576128e-06
    vertex 17.70548541763372 8.068020292940544 6.446666912127175e-06
  endloop
endfacet
facet normal 2.4201457780055017e-09 1.836830616579903e-07 -0.9999999999999831
  outer loop
    vertex -1.3251639369160627e-14 5.992428775414282e-15 -1.0505193779423451e-22
    vertex 101.88206936880098 -1.7500042265028244 8.658918884014075e-07
    vertex -5.2155300280616254e-08 -1.7500000000000637 1.114541375564483e-09
  endloop
endfacet
facet normal 2.4201457780055017e-09 1.836830616579903e-07 -0.9999999999999831
  outer loop
    vertex 101.88206936880098 -1.7500042265028244 8.658918884014075e-07
    vertex -1.3251639369160627e-14 5.992428775414282e-15 -1.0505193779423451e-22
    vertex 17.70548517718235 1.379671494695922e-06 6.4518052783544076e-06
  endloop
endfacet
facet normal 2.4201457780055017e-09 1.836830616579903e-07 -0.9999999999999831
  outer loop
    vertex 101.88206936880098 -1.7500042265028244 8.658918884014075e-07
    vertex 17.70548517718235 1.379671494695922e-06 6.4518052783544076e-06
    vertex 27.70549282892916 0.7499991742924197 1.8258057883576128e-06
  endloop
endfacet
facet normal 2.4201457780055017e-09 1.836830616579903e-07 -0.9999999999999831
  outer loop
    vertex 27.70549282892916 0.7499991742924197 1.8258057883576128e-06
    vertex 17.70548517718235 1.379671494695922e-06 6.4518052783544076e-06
    vertex 17.70548541763372 8.068020292940544 6.446666912127175e-06
  endloop
endfacet
facet normal 2.4201457780055017e-09 1.836830616579903e-07 -0.9999999999999831
  outer loop
    vertex 101.88206936880098 -1.7500042265028244 8.658918884014075e-07
    vertex 27.70549282892916 0.7499991742924197 1.8258057883576128e-06
    vertex 91.92794880732191 0.7499868911088035 5.471331306077567e-06
  endloop
endfacet
facet normal 2.4201457780055017e-09 1.836830616579903e-07 -0.9999999999999831
  outer loop
    vertex 101.88206936880098 -1.7500042265028244 8.658918884014075e-07
    vertex 91.92794880732191 0.7499868911088035 5.471331306077567e-06
    vertex 91.9279490254211 8.06800675805216 5.466670599832475e-06
  endloop
endfacet
facet normal 2.4201457780055017e-09 1.836830616579903e-07 -0.9999999999999831
  outer loop
    vertex 101.88206936880098 -1.7500042265028244 8.658918884014075e-07
    vertex 91.9279490254211 8.06800675805216 5.466670599832475e-06
    vertex 101.88207156875585 8.068005150022985 8.596390141187722e-07
  endloop
endfacet
facet normal 5.336762532791174e-07 0.4470078478210952 0.89453003526213
  outer loop
    vertex 27.70549290770015 8.651000157841342 10.969760808200522
    vertex 17.705492917227915 8.908915952615718 10.84088302541612
    vertex 17.7054929077002 8.65100236322017 10.969765433722461
  endloop
endfacet
facet normal 5.336762532791174e-07 0.4470078478210952 0.89453003526213
  outer loop
    vertex 17.705492917227915 8.908915952615718 10.84088302541612
    vertex 27.70549290770015 8.651000157841342 10.969760808200522
    vertex 27.70549291722795 8.908913747236847 10.840877923057013
  endloop
endfacet
facet normal 4.81803092708275e-07 0.09722772677324523 0.9952621610140089
  outer loop
    vertex 27.705492898634276 8.360408917930242 10.99814883176207
    vertex 17.7054929077002 8.65100236322017 10.969765433722461
    vertex 17.705492898634173 8.360411123309085 10.998153457284003
  endloop
endfacet
facet normal 4.81803092708275e-07 0.09722772677324523 0.9952621610140089
  outer loop
    vertex 17.7054929077002 8.65100236322017 10.969765433722461
    vertex 27.705492898634276 8.360408917930242 10.99814883176207
    vertex 27.70549290770015 8.651000157841342 10.969760808200522
  endloop
endfacet
facet normal 2.4797533580628446e-07 -1.0929453742122944e-06 0.9999999999993721
  outer loop
    vertex 27.70549281842104 5.669840566185879 10.999980841837452
    vertex 17.70549288989392 8.068020299945996 10.999985942669193
    vertex 17.705492818420907 5.669840864216115 10.999980698987814
  endloop
endfacet
facet normal 2.4797533580628446e-07 -1.0929453742122944e-06 0.9999999999993721
  outer loop
    vertex 17.70549288989392 8.068020299945996 10.999985942669193
    vertex 27.70549281842104 5.669840566185879 10.999980841837452
    vertex 27.705492889894003 8.068018094567211 10.9999808403101
  endloop
endfacet
facet normal 4.877664597396903e-07 0.00626630812865456 0.9999803664983623
  outer loop
    vertex 27.705492889894003 8.068018094567211 10.9999808403101
    vertex 17.705492898634173 8.360411123309085 10.998153457284003
    vertex 17.70549288989392 8.068020299945996 10.999985942669193
  endloop
endfacet
facet normal 4.877664597396903e-07 0.00626630812865456 0.9999803664983623
  outer loop
    vertex 17.705492898634173 8.360411123309085 10.998153457284003
    vertex 27.705492889894003 8.068018094567211 10.9999808403101
    vertex 27.705492898634276 8.360408917930242 10.99814883176207
  endloop
endfacet
facet normal -4.687655639786963e-07 0.0972269166515604 -0.9952622401549307
  outer loop
    vertex 91.92794904236395 8.650988821364836 0.030225736456169543
    vertex 101.88207157744412 8.36039597338839 0.0018331062331916046
    vertex 91.92794903410893 8.360397581417638 0.0018379516833562368
  endloop
endfacet
facet normal -4.687655639786963e-07 0.0972269166515604 -0.9952622401549307
  outer loop
    vertex 101.88207157744412 8.36039597338839 0.0018331062331916046
    vertex 91.92794904236395 8.650988821364836 0.030225736456169543
    vertex 101.88207158569885 8.650987213335771 0.0302208910060056
  endloop
endfacet
facet normal 1.645907575856632e-07 0.9999803715835186 0.0062654966013265855
  outer loop
    vertex 91.92795081972379 9.068006764420975 9.999950629760525
    vertex 101.88207526617605 9.066173148216016 10.292336369257242
    vertex 101.88207527040737 9.06800515639163 9.999946022728974
  endloop
endfacet
facet normal 1.645907575856632e-07 0.9999803715835186 0.0062654966013265855
  outer loop
    vertex 101.88207526617605 9.066173148216016 10.292336369257242
    vertex 91.92795081972379 9.068006764420975 9.999950629760525
    vertex 91.92795081549244 9.066174756245257 10.29234145312595
  endloop
endfacet
facet normal -1.5948867938900053e-08 -0.5547001967551385 -0.8320502939845706
  outer loop
    vertex -5.2155300280616254e-08 -1.7500000000000637 1.114541375564483e-09
    vertex 101.88206930981116 -3.2500042258659723 1.000000866847212
    vertex -1.1114479379296244e-07 -3.249999999363185 1.000000002069864
  endloop
endfacet
facet normal -1.5948867938900053e-08 -0.5547001967551385 -0.8320502939845706
  outer loop
    vertex 101.88206930981116 -3.2500042258659723 1.000000866847212
    vertex -5.2155300280616254e-08 -1.7500000000000637 1.114541375564483e-09
    vertex 101.88206936880098 -1.7500042265028244 8.658918884014075e-07
  endloop
endfacet
facet normal -3.632262965014917e-07 0.44700784668190446 -0.8945300358314835
  outer loop
    vertex 91.92794904820941 8.908902410924531 0.15910838285257836
    vertex 101.88207158569885 8.650987213335771 0.0302208910060056
    vertex 91.92794904236395 8.650988821364836 0.030225736456169543
  endloop
endfacet
facet normal -3.632262965014917e-07 0.44700784668190446 -0.8945300358314835
  outer loop
    vertex 101.88207158569885 8.650987213335771 0.0302208910060056
    vertex 91.92794904820941 8.908902410924531 0.15910838285257836
    vertex 101.88207159154452 8.90890080289532 0.15910353740241445
  endloop
endfacet
facet normal 0.9999999999999994 -2.980306001274519e-08 1.4284980560136514e-08
  outer loop
    vertex 101.88206930876541 -2.6500026534433787 2.3250013855438736
    vertex 101.88206914660572 -3.250002841318531 12.425001171349193
    vertex 101.88206929088378 -3.2500030349130884 2.325001385926
  endloop
endfacet
facet normal 0.9999999999999994 -2.980306001274519e-08 1.4284980560136514e-08
  outer loop
    vertex 101.88206914660572 -3.250002841318531 12.425001171349193
    vertex 101.88206930876541 -2.6500026534433787 2.3250013855438736
    vertex 101.88206916448766 -2.650002459848744 12.425001170967063
  endloop
endfacet
facet normal 2.081069434366052e-07 0.9952621688571931 0.09722764648819347
  outer loop
    vertex 91.92795081549244 9.066174756245257 10.29234145312595
    vertex 101.88207526117877 9.03778512502453 10.582928086041669
    vertex 101.88207526617605 9.066173148216016 10.292336369257242
  endloop
endfacet
facet normal 2.081069434366052e-07 0.9952621688571931 0.09722764648819347
  outer loop
    vertex 101.88207526117877 9.03778512502453 10.582928086041669
    vertex 91.92795081549244 9.066174756245257 10.29234145312595
    vertex 91.9279508104952 9.03778673305383 10.582932693073225
  endloop
endfacet
facet normal 2.233088980371183e-07 -1.0598600639859051e-06 0.9999999999994135
  outer loop
    vertex 101.88207515931664 5.8198272471774555 10.999946024797682
    vertex 91.92795077563586 8.068006765057726 10.99995063039741
    vertex 91.92795070863335 5.81982790153228 10.999945863457656
  endloop
endfacet
facet normal 2.233088980371183e-07 -1.0598600639859051e-06 0.9999999999994135
  outer loop
    vertex 91.92795077563586 8.068006765057726 10.99995063039741
    vertex 101.88207515931664 5.8198272471774555 10.999946024797682
    vertex 101.88207522631897 8.068005157028447 10.999946023365865
  endloop
endfacet
facet normal 2.980302475509234e-08 0.9999999999999994 -1.9167787648804462e-08
  outer loop
    vertex -2.5646868936990763e-07 -2.6499994234549282 12.424999715585345
    vertex 101.88206930876541 -2.6500026534433787 2.3250013855438736
    vertex -1.1219054941980465e-07 -2.649999617049588 2.3249999301621576
  endloop
endfacet
facet normal 2.980302475509234e-08 0.9999999999999994 -1.9167787648804462e-08
  outer loop
    vertex 101.88206930876541 -2.6500026534433787 2.3250013855438736
    vertex -2.5646868936990763e-07 -2.6499994234549282 12.424999715585345
    vertex 101.88206916448766 -2.650002459848744 12.425001170967063
  endloop
endfacet
facet normal 3.621005611045158e-07 0.8945288778910462 0.4470101638876399
  outer loop
    vertex 91.9279508104952 9.03778673305383 10.582932693073225
    vertex 101.8820752536535 8.908900809698205 10.840843106112773
    vertex 101.88207526117877 9.03778512502453 10.582928086041669
  endloop
endfacet
facet normal 3.621005611045158e-07 0.8945288778910462 0.4470101638876399
  outer loop
    vertex 101.8820752536535 8.908900809698205 10.840843106112773
    vertex 91.9279508104952 9.03778673305383 10.582932693073225
    vertex 91.9279508029698 8.908902417727383 10.84084818998149
  endloop
endfacet
facet normal -0.7071067601126434 0.7071068022604509 -2.2692957261744463e-08
  outer loop
    vertex 17.70548496647912 -3.3112098779299044e-07 14.749999776085003
    vertex 18.45548514453744 0.7499994524226073 3.8500023582615537
    vertex 17.70548512218521 -5.252251474185953e-07 3.8500023182231726
  endloop
endfacet
facet normal -0.7071067601126434 0.7071068022604509 -2.2692957261744463e-08
  outer loop
    vertex 18.45548514453744 0.7499994524226073 3.8500023582615537
    vertex 17.70548496647912 -3.3112098779299044e-07 14.749999776085003
    vertex 18.45548498883137 0.7499996465267493 14.749999786321062
  endloop
endfacet
facet normal 4.79293217212653e-07 6.368662791387097e-10 0.9999999999998852
  outer loop
    vertex 101.88206938831165 0.7499862392059025 3.849967613848607
    vertex 91.92794510064613 6.219828850653101 3.849972381309304
    vertex 91.92794493762818 0.7499868935608546 3.849972384792941
  endloop
endfacet
facet normal 4.79293217212653e-07 6.368662791387097e-10 0.9999999999998852
  outer loop
    vertex 91.92794510064613 6.219828850653101 3.849972381309304
    vertex 101.88206938831165 0.7499862392059025 3.849967613848607
    vertex 101.88206955132947 6.219827242623906 3.8499676103649776
  endloop
endfacet
facet normal 5.001783228996674e-07 0.09722691791925435 0.9952622400310747
  outer loop
    vertex 101.88207523505938 8.360395980391685 10.99811353798066
    vertex 91.9279507934423 8.650988828332016 10.96973059828784
    vertex 91.92795078437612 8.360397588420925 10.99811862184938
  endloop
endfacet
facet normal 5.001783228996674e-07 0.09722691791925435 0.9952622400310747
  outer loop
    vertex 91.9279507934423 8.650988828332016 10.96973059828784
    vertex 101.88207523505938 8.360395980391685 10.99811353798066
    vertex 101.88207524412574 8.65098722030288 10.969725991256293
  endloop
endfacet
facet normal -6.773576177079781e-08 0.8945287947059911 -0.44701033035249005
  outer loop
    vertex 91.92794904820941 8.908902410924531 0.15910838285257836
    vertex 101.88207159170122 9.037785118550216 0.41701879572792416
    vertex 101.88207159154452 8.90890080289532 0.15910353740241445
  endloop
endfacet
facet normal -6.773576177079781e-08 0.8945287947059911 -0.44701033035249005
  outer loop
    vertex 101.88207159170122 9.037785118550216 0.41701879572792416
    vertex 91.92794904820941 8.908902410924531 0.15910838285257836
    vertex 91.9279490483664 9.03778672657941 0.41702340275950905
  endloop
endfacet
facet normal -4.626470491341792e-07 0.09722691665154105 -0.9952622401549354
  outer loop
    vertex 17.705485434576584 8.651002356253276 0.03022671645248253
    vertex 27.705493055716097 8.36040891092684 0.0018340677392602073
    vertex 17.705485426321673 8.360411116305915 0.0018389316796685307
  endloop
endfacet
facet normal -4.626470491341792e-07 0.09722691665154105 -0.9952622401549354
  outer loop
    vertex 27.705493055716097 8.36040891092684 0.0018340677392602073
    vertex 17.705485434576584 8.651002356253276 0.03022671645248253
    vertex 27.705493063971144 8.65100015087422 0.030221852512074238
  endloop
endfacet
facet normal -4.148426506771435e-08 -0.9999999999999991 6.368381455683044e-10
  outer loop
    vertex 101.88206930981116 -3.2500042258659723 1.000000866847212
    vertex -1.2721537420131225e-07 -3.249999998646761 2.12499988286057
    vertex -1.1114479379296244e-07 -3.249999999363185 1.000000002069864
  endloop
endfacet
facet normal -4.148426506771435e-08 -0.9999999999999991 6.368381455683044e-10
  outer loop
    vertex -1.2721537420131225e-07 -3.249999998646761 2.12499988286057
    vertex 101.88206930981116 -3.2500042258659723 1.000000866847212
    vertex 101.88206929374067 -3.250004225149516 2.1250007476379147
  endloop
endfacet
facet normal 0.9999999999998802 -4.883269350367517e-07 -3.339852968307381e-08
  outer loop
    vertex 27.705493047028256 8.068018087561475 1.8211450827198961e-06
    vertex 27.705485144537413 0.7499991767446351 3.8500024903974728
    vertex 27.70549282892916 0.7499991742924197 1.8258057883576128e-06
  endloop
endfacet
facet normal 0.9999999999998802 -4.883269350367517e-07 -3.339852968307381e-08
  outer loop
    vertex 27.705485144537413 0.7499991767446351 3.8500024903974728
    vertex 27.705493047028256 8.068018087561475 1.8211450827198961e-06
    vertex 27.70548530308476 6.069840561632325 3.850002487009366
  endloop
endfacet
facet normal 0.9999999999998802 -4.883269350367517e-07 -3.339852968307381e-08
  outer loop
    vertex 27.70548530308476 6.069840561632325 3.850002487009366
    vertex 27.705493047028256 8.068018087561475 1.8211450827198961e-06
    vertex 27.705492844627088 6.069840565548983 9.999980841582692
  endloop
endfacet
facet normal 0.9999999999998802 -4.883269350367517e-07 -3.339852968307381e-08
  outer loop
    vertex 27.705492833605195 5.819840565708094 10.249980841741936
    vertex 27.70549281842104 5.669840566185879 10.999980841837452
    vertex 27.70549282913478 5.669840565708126 10.249980841837452
  endloop
endfacet
facet normal 0.9999999999998802 -4.883269350367517e-07 -3.339852968307381e-08
  outer loop
    vertex 27.70549281842104 5.669840566185879 10.999980841837452
    vertex 27.705492833605195 5.819840565708094 10.249980841741936
    vertex 27.705492889894003 8.068018094567211 10.9999808403101
  endloop
endfacet
facet normal 0.9999999999998802 -4.883269350367517e-07 -3.339852968307381e-08
  outer loop
    vertex 27.705492889894003 8.068018094567211 10.9999808403101
    vertex 27.705492833605195 5.819840565708094 10.249980841741936
    vertex 27.705492844627088 6.069840565548983 9.999980841582692
  endloop
endfacet
facet normal 0.9999999999998802 -4.883269350367517e-07 -3.339852968307381e-08
  outer loop
    vertex 27.705492889894003 8.068018094567211 10.9999808403101
    vertex 27.705492844627088 6.069840565548983 9.999980841582692
    vertex 27.705493047028256 8.068018087561475 1.8211450827198961e-06
  endloop
endfacet
facet normal 0.9999999999998802 -4.883269350367517e-07 -3.339852968307381e-08
  outer loop
    vertex 27.705492889894003 8.068018094567211 10.9999808403101
    vertex 27.705493047028256 8.068018087561475 1.8211450827198961e-06
    vertex 27.705493055716097 8.36040891092684 0.0018340677392602073
  endloop
endfacet
facet normal 0.9999999999998802 -4.883269350367517e-07 -3.339852968307381e-08
  outer loop
    vertex 27.705492889894003 8.068018094567211 10.9999808403101
    vertex 27.705493055716097 8.36040891092684 0.0018340677392602073
    vertex 27.705492898634276 8.360408917930242 10.99814883176207
  endloop
endfacet
facet normal 0.9999999999998802 -4.883269350367517e-07 -3.339852968307381e-08
  outer loop
    vertex 27.705492898634276 8.360408917930242 10.99814883176207
    vertex 27.705493055716097 8.36040891092684 0.0018340677392602073
    vertex 27.705493063971144 8.65100015087422 0.030221852512074238
  endloop
endfacet
facet normal 0.9999999999998802 -4.883269350367517e-07 -3.339852968307381e-08
  outer loop
    vertex 27.705492898634276 8.360408917930242 10.99814883176207
    vertex 27.705493063971144 8.65100015087422 0.030221852512074238
    vertex 27.70549290770015 8.651000157841342 10.969760808200522
  endloop
endfacet
facet normal 0.9999999999998802 -4.883269350367517e-07 -3.339852968307381e-08
  outer loop
    vertex 27.70549290770015 8.651000157841342 10.969760808200522
    vertex 27.705493063971144 8.65100015087422 0.030221852512074238
    vertex 27.705493069816665 8.908913740433812 0.15910449890848227
  endloop
endfacet
facet normal 0.9999999999998802 -4.883269350367517e-07 -3.339852968307381e-08
  outer loop
    vertex 27.70549290770015 8.651000157841342 10.969760808200522
    vertex 27.705493069816665 8.908913740433812 0.15910449890848227
    vertex 27.70549291722795 8.908913747236847 10.840877923057013
  endloop
endfacet
facet normal 0.9999999999998802 -4.883269350367517e-07 -3.339852968307381e-08
  outer loop
    vertex 27.70549291722795 8.908913747236847 10.840877923057013
    vertex 27.705493069816665 8.908913740433812 0.15910449890848227
    vertex 27.70549306997352 9.037798056088782 0.4170195188154131
  endloop
endfacet
facet normal 0.9999999999998802 -4.883269350367517e-07 -3.339852968307381e-08
  outer loop
    vertex 27.70549291722795 8.908913747236847 10.840877923057013
    vertex 27.70549306997352 9.037798056088782 0.4170195188154131
    vertex 27.70549292475331 9.037798062563192 10.582962902985924
  endloop
endfacet
facet normal 0.9999999999998802 -4.883269350367517e-07 -3.339852968307381e-08
  outer loop
    vertex 27.70549292475331 9.037798062563192 10.582962902985924
    vertex 27.70549306997352 9.037798056088782 0.4170195188154131
    vertex 27.70549306666843 9.066186079650267 0.7076112355636903
  endloop
endfacet
facet normal 0.9999999999998802 -4.883269350367517e-07 -3.339852968307381e-08
  outer loop
    vertex 27.70549292475331 9.037798062563192 10.582962902985924
    vertex 27.70549306666843 9.066186079650267 0.7076112355636903
    vertex 27.705492929750427 9.066186085754609 10.292371186201489
  endloop
endfacet
facet normal 0.9999999999998802 -4.883269350367517e-07 -3.339852968307381e-08
  outer loop
    vertex 27.705492929750427 9.066186085754609 10.292371186201489
    vertex 27.70549306666843 9.066186079650267 0.7076112355636903
    vertex 27.705493062546292 9.068018088198318 1.000001820508203
  endloop
endfacet
facet normal 0.9999999999998802 -4.883269350367517e-07 -3.339852968307381e-08
  outer loop
    vertex 27.705492929750427 9.066186085754609 10.292371186201489
    vertex 27.705493062546292 9.068018088198318 1.000001820508203
    vertex 27.705492933981844 9.068018093930284 9.999980839673217
  endloop
endfacet
facet normal 2.691020177189811e-07 0.9952621765764071 0.09722756747096178
  outer loop
    vertex 17.705492929750495 9.066188291133475 10.292376288560579
    vertex 27.70549292475331 9.037798062563192 10.582962902985924
    vertex 27.705492929750427 9.066186085754609 10.292371186201489
  endloop
endfacet
facet normal 2.691020177189811e-07 0.9952621765764071 0.09722756747096178
  outer loop
    vertex 27.70549292475331 9.037798062563192 10.582962902985924
    vertex 17.705492929750495 9.066188291133475 10.292376288560579
    vertex 17.70549292475341 9.037800267942108 10.582968005345023
  endloop
endfacet
facet normal 4.877808616967071e-07 0.006266308128660938 0.9999803664983623
  outer loop
    vertex 101.88207522631897 8.068005157028447 10.999946023365865
    vertex 91.92795078437612 8.360397588420925 10.99811862184938
    vertex 91.92795077563586 8.068006765057726 10.99995063039741
  endloop
endfacet
facet normal 4.877808616967071e-07 0.006266308128660938 0.9999803664983623
  outer loop
    vertex 91.92795078437612 8.360397588420925 10.99811862184938
    vertex 101.88207522631897 8.068005157028447 10.999946023365865
    vertex 101.88207523505938 8.360395980391685 10.99811353798066
  endloop
endfacet
facet normal -3.3651164648852056e-07 0.4470078466818917 -0.8945300358315005
  outer loop
    vertex 17.705485440422084 8.908915945812922 0.1591093628488915
    vertex 27.705493063971144 8.65100015087422 0.030221852512074238
    vertex 17.705485434576584 8.651002356253276 0.03022671645248253
  endloop
endfacet
facet normal -3.3651164648852056e-07 0.4470078466818917 -0.8945300358315005
  outer loop
    vertex 27.705493063971144 8.65100015087422 0.030221852512074238
    vertex 17.705485440422084 8.908915945812922 0.1591093628488915
    vertex 27.705493069816665 8.908913740433812 0.15910449890848227
  endloop
endfacet
facet normal -1.6154401401237664e-07 -0.9999999999999869 6.370087187181222e-10
  outer loop
    vertex 101.88207518552306 6.21982724654056 9.99994602454293
    vertex 91.92794510064613 6.219828850653101 3.849972381309304
    vertex 101.88206955132947 6.219827242623906 3.8499676103649776
  endloop
endfacet
facet normal -1.6154401401237664e-07 -0.9999999999999869 6.370087187181222e-10
  outer loop
    vertex 91.92794510064613 6.219828850653101 3.849972381309304
    vertex 101.88207518552306 6.21982724654056 9.99994602454293
    vertex 91.92795073483937 6.219828854569812 9.999950631574475
  endloop
endfacet
facet normal -2.3825976750554989e-07 -0.7071027355046644 -0.7071108268452435
  outer loop
    vertex 91.92795073483937 6.219828854569812 9.999950631574475
    vertex 101.882075174501 5.969827246699686 10.249946024702139
    vertex 91.92795072381767 5.969827901054761 10.249945863362118
  endloop
endfacet
facet normal -2.3825976750554989e-07 -0.7071027355046644 -0.7071108268452435
  outer loop
    vertex 101.882075174501 5.969827246699686 10.249946024702139
    vertex 91.92795073483937 6.219828854569812 9.999950631574475
    vertex 101.88207518552306 6.21982724654056 9.99994602454293
  endloop
endfacet
facet normal -4.1484265562110854e-08 -0.9999999999999992 6.369985028456201e-10
  outer loop
    vertex 101.88206914374865 -3.250004031300237 12.625000390009967
    vertex -2.932780824223182e-07 -3.249999804080788 13.749999525232651
    vertex -2.77207474871791e-07 -3.2499998047974508 12.624999525232617
  endloop
endfacet
facet normal -4.1484265562110854e-08 -0.9999999999999992 6.369985028456201e-10
  outer loop
    vertex -2.932780824223182e-07 -3.249999804080788 13.749999525232651
    vertex 101.88206914374865 -3.250004031300237 12.625000390009967
    vertex 101.88206912767781 -3.2500040305836246 13.75000039000999
  endloop
endfacet
facet normal -0.9999999999999994 2.980301907327116e-08 -1.4284964059103832e-08
  outer loop
    vertex -2.932780824223182e-07 -3.249999804080788 13.749999525232651
    vertex -2.6044326764370143e-07 -2.687499804797472 12.624999524874376
    vertex -2.77207474871791e-07 -3.2499998047974508 12.624999525232617
  endloop
endfacet
facet normal -0.9999999999999994 2.980301907327116e-08 -1.4284964059103832e-08
  outer loop
    vertex -2.6044326764370143e-07 -2.687499804797472 12.624999524874376
    vertex -2.932780824223182e-07 -3.249999804080788 13.749999525232651
    vertex -2.628585150867609e-07 -1.749999803443958 14.749999524277316
  endloop
endfacet
facet normal -0.9999999999999994 2.980301907327116e-08 -1.4284964059103832e-08
  outer loop
    vertex -2.6044326764370143e-07 -2.687499804797472 12.624999524874376
    vertex -2.628585150867609e-07 -1.749999803443958 14.749999524277316
    vertex -2.4143105601423347e-07 -1.749999804399301 13.24999952427731
  endloop
endfacet
facet normal -0.9999999999999994 2.980301907327116e-08 -1.4284964059103832e-08
  outer loop
    vertex -1.2721537420131225e-07 -3.249999998646761 2.12499988286057
    vertex -5.2155300280616254e-08 -1.7500000000000637 1.114541375564483e-09
    vertex -1.1114479379296244e-07 -3.249999999363185 1.000000002069864
  endloop
endfacet
facet normal -0.9999999999999994 2.980301907327116e-08 -1.4284964059103832e-08
  outer loop
    vertex -5.2155300280616254e-08 -1.7500000000000637 1.114541375564483e-09
    vertex -1.2721537420131225e-07 -3.249999998646761 2.12499988286057
    vertex -1.1045116928096871e-07 -2.687499998646793 2.124999882502326
  endloop
endfacet
facet normal -0.9999999999999994 2.980301907327116e-08 -1.4284964059103832e-08
  outer loop
    vertex -5.2155300280616254e-08 -1.7500000000000637 1.114541375564483e-09
    vertex -1.1045116928096871e-07 -2.687499998646793 2.124999882502326
    vertex -7.358273683747384e-08 -1.7499999990447563 1.500000001114543
  endloop
endfacet
facet normal -0.9999999999999994 2.980301907327116e-08 -1.4284964059103832e-08
  outer loop
    vertex -5.2155300280616254e-08 -1.7500000000000637 1.114541375564483e-09
    vertex -7.358273683747384e-08 -1.7499999990447563 1.500000001114543
    vertex -1.3251639369160627e-14 5.992428775414282e-15 -1.0505193779423451e-22
  endloop
endfacet
facet normal -0.9999999999999994 2.980301907327116e-08 -1.4284964059103832e-08
  outer loop
    vertex -1.3251639369160627e-14 5.992428775414282e-15 -1.0505193779423451e-22
    vertex -7.358273683747384e-08 -1.7499999990447563 1.500000001114543
    vertex -2.4143105601423347e-07 -1.749999804399301 13.24999952427731
  endloop
endfacet
facet normal -0.9999999999999994 2.980301907327116e-08 -1.4284964059103832e-08
  outer loop
    vertex -1.3251639369160627e-14 5.992428775414282e-15 -1.0505193779423451e-22
    vertex -2.4143105601423347e-07 -1.749999804399301 13.24999952427731
    vertex -2.628585150867609e-07 -1.749999803443958 14.749999524277316
  endloop
endfacet
facet normal -0.9999999999999994 2.980301907327116e-08 -1.4284964059103832e-08
  outer loop
    vertex -1.3251639369160627e-14 5.992428775414282e-15 -1.0505193779423451e-22
    vertex -2.628585150867609e-07 -1.749999803443958 14.749999524277316
    vertex -2.1070321988979517e-07 1.96556074569601e-07 14.74999952316278
  endloop
endfacet
facet normal 1.3474923031619716e-07 0.9999999999999241 -3.655892561731018e-07
  outer loop
    vertex 27.705485144537413 0.7499991767446351 3.8500024903974728
    vertex 91.92794880732191 0.7499868911088035 5.471331306077567e-06
    vertex 27.70549282892916 0.7499991742924197 1.8258057883576128e-06
  endloop
endfacet
facet normal 1.3474923031619716e-07 0.9999999999999241 -3.655892561731018e-07
  outer loop
    vertex 91.92794880732191 0.7499868911088035 5.471331306077567e-06
    vertex 27.705485144537413 0.7499991767446351 3.8500024903974728
    vertex 91.92794493762818 0.7499868935608546 3.849972384792941
  endloop
endfacet
facet normal 1.3474923031619716e-07 0.9999999999999241 -3.655892561731018e-07
  outer loop
    vertex 18.45548498883137 0.7499996465267493 14.749999786321062
    vertex 27.705485144537413 0.7499991767446351 3.8500024903974728
    vertex 18.45548514453744 0.7499994524226073 3.8500023582615537
  endloop
endfacet
facet normal 1.3474923031619716e-07 0.9999999999999241 -3.655892561731018e-07
  outer loop
    vertex 91.92794493762818 0.7499868935608546 3.849972384792941
    vertex 101.8820692326053 0.7499959700532727 14.750000387462453
    vertex 101.88206938831165 0.7499862392059025 3.849967613848607
  endloop
endfacet
facet normal 1.3474923031619716e-07 0.9999999999999241 -3.655892561731018e-07
  outer loop
    vertex 101.8820692326053 0.7499959700532727 14.750000387462453
    vertex 91.92794493762818 0.7499868935608546 3.849972384792941
    vertex 27.705485144537413 0.7499991767446351 3.8500024903974728
  endloop
endfacet
facet normal 1.3474923031619716e-07 0.9999999999999241 -3.655892561731018e-07
  outer loop
    vertex 101.8820692326053 0.7499959700532727 14.750000387462453
    vertex 27.705485144537413 0.7499991767446351 3.8500024903974728
    vertex 18.45548498883137 0.7499996465267493 14.749999786321062
  endloop
endfacet
facet normal -1.2517045372190369e-07 -0.9999999999999923 6.370105307334919e-10
  outer loop
    vertex 27.705492844627088 6.069840565548983 9.999980841582692
    vertex 17.705485303084775 6.0698418133368595 3.8500073062464044
    vertex 27.70548530308476 6.069840561632325 3.850002487009366
  endloop
endfacet
facet normal -1.2517045372190369e-07 -0.9999999999999923 6.370105307334919e-10
  outer loop
    vertex 17.705485303084775 6.0698418133368595 3.8500073062464044
    vertex 27.705492844627088 6.069840565548983 9.999980841582692
    vertex 17.705492844627134 6.069841817253517 9.999985943941812
  endloop
endfacet
facet normal 3.007379182372047e-08 0.554700195695283 -0.8320502946911407
  outer loop
    vertex -2.4143105601423347e-07 -1.749999804399301 13.24999952427731
    vertex 101.88206916051277 -2.687504031300145 12.62500038965172
    vertex -2.6044326764370143e-07 -2.687499804797472 12.624999524874376
  endloop
endfacet
facet normal 3.007379182372047e-08 0.554700195695283 -0.8320502946911407
  outer loop
    vertex 101.88206916051277 -2.687504031300145 12.62500038965172
    vertex -2.4143105601423347e-07 -1.749999804399301 13.24999952427731
    vertex 101.88206917952492 -1.7500040309021065 13.25000038905466
  endloop
endfacet
facet normal 2.1966479126939058e-07 -5.181566215734803e-07 0.9999999999998417
  outer loop
    vertex 18.45548514453744 0.7499994524226073 3.8500023582615537
    vertex 17.705485303084775 6.0698418133368595 3.8500073062464044
    vertex 17.70548512218521 -5.252251474185953e-07 3.8500023182231726
  endloop
endfacet
facet normal 2.1966479126939058e-07 -5.181566215734803e-07 0.9999999999998417
  outer loop
    vertex 17.705485303084775 6.0698418133368595 3.8500073062464044
    vertex 18.45548514453744 0.7499994524226073 3.8500023582615537
    vertex 27.70548530308476 6.069840561632325 3.850002487009366
  endloop
endfacet
facet normal 2.1966479126939058e-07 -5.181566215734803e-07 0.9999999999998417
  outer loop
    vertex 27.70548530308476 6.069840561632325 3.850002487009366
    vertex 18.45548514453744 0.7499994524226073 3.8500023582615537
    vertex 27.705485144537413 0.7499991767446351 3.8500024903974728
  endloop
endfacet
facet normal -2.3013728386779398e-07 -0.7071023983237253 -0.7071111640221661
  outer loop
    vertex 17.705492844627134 6.069841817253517 9.999985943941812
    vertex 27.705492833605195 5.819840565708094 10.249980841741936
    vertex 17.70549283360507 5.8198408637383245 10.249980698892285
  endloop
endfacet
facet normal -2.3013728386779398e-07 -0.7071023983237253 -0.7071111640221661
  outer loop
    vertex 27.705492833605195 5.819840565708094 10.249980841741936
    vertex 17.705492844627134 6.069841817253517 9.999985943941812
    vertex 27.705492844627088 6.069840565548983 9.999980841582692
  endloop
endfacet
facet normal 1.42849641098278e-08 -6.368475563234703e-10 -1.0
  outer loop
    vertex 17.70549283360507 5.8198408637383245 10.249980698892285
    vertex 27.70549282913478 5.669840565708126 10.249980841837452
    vertex 17.70549282913461 5.6698408637383295 10.249980698987816
  endloop
endfacet
facet normal 1.42849641098278e-08 -6.368475563234703e-10 -1.0
  outer loop
    vertex 27.70549282913478 5.669840565708126 10.249980841837452
    vertex 17.70549283360507 5.8198408637383245 10.249980698892285
    vertex 27.705492833605195 5.819840565708094 10.249980841741936
  endloop
endfacet
facet normal 1.620835860435643e-08 -6.36913412859128e-10 -0.9999999999999999
  outer loop
    vertex 91.92795072381767 5.969827901054761 10.249945863362118
    vertex 101.88207517003039 5.819827246699778 10.24994602479768
    vertex 91.92795071934717 5.819827901054662 10.249945863457656
  endloop
endfacet
facet normal 1.620835860435643e-08 -6.36913412859128e-10 -0.9999999999999999
  outer loop
    vertex 101.88207517003039 5.819827246699778 10.24994602479768
    vertex 91.92795072381767 5.969827901054761 10.249945863362118
    vertex 101.882075174501 5.969827246699686 10.249946024702139
  endloop
endfacet
facet normal -2.98030222197096e-08 -0.9999999999999996 6.370112028964342e-10
  outer loop
    vertex 27.70549282913478 5.669840565708126 10.249980841837452
    vertex 17.705492818420907 5.669840864216115 10.999980698987814
    vertex 17.70549282913461 5.6698408637383295 10.249980698987816
  endloop
endfacet
facet normal -2.98030222197096e-08 -0.9999999999999996 6.370112028964342e-10
  outer loop
    vertex 17.705492818420907 5.669840864216115 10.999980698987814
    vertex 27.70549282913478 5.669840565708126 10.249980841837452
    vertex 27.70549281842104 5.669840566185879 10.999980841837452
  endloop
endfacet
facet normal -0.9999999999997138 1.5455783403731371e-07 7.406778837284733e-07
  outer loop
    vertex 17.705492818420907 5.669840864216115 10.999980698987814
    vertex 17.70549283360507 5.8198408637383245 10.249980698892285
    vertex 17.70549282913461 5.6698408637383295 10.249980698987816
  endloop
endfacet
facet normal -0.9999999999997138 1.5455783403731371e-07 7.406778837284733e-07
  outer loop
    vertex 17.70549283360507 5.8198408637383245 10.249980698892285
    vertex 17.705492818420907 5.669840864216115 10.999980698987814
    vertex 17.70549288989392 8.068020299945996 10.999985942669193
  endloop
endfacet
facet normal -0.9999999999997138 1.5455783403731371e-07 7.406778837284733e-07
  outer loop
    vertex 17.70549283360507 5.8198408637383245 10.249980698892285
    vertex 17.70549288989392 8.068020299945996 10.999985942669193
    vertex 17.705492844627134 6.069841817253517 9.999985943941812
  endloop
endfacet
facet normal -0.9999999999997138 1.5455783403731371e-07 7.406778837284733e-07
  outer loop
    vertex 17.705492844627134 6.069841817253517 9.999985943941812
    vertex 17.70549288989392 8.068020299945996 10.999985942669193
    vertex 17.70548541763372 8.068020292940544 6.446666912127175e-06
  endloop
endfacet
facet normal -0.9999999999997138 1.5455783403731371e-07 7.406778837284733e-07
  outer loop
    vertex 17.70548541763372 8.068020292940544 6.446666912127175e-06
    vertex 17.70549288989392 8.068020299945996 10.999985942669193
    vertex 17.705485426321673 8.360411116305915 0.0018389316796685307
  endloop
endfacet
facet normal -0.9999999999997138 1.5455783403731371e-07 7.406778837284733e-07
  outer loop
    vertex 17.705485426321673 8.360411116305915 0.0018389316796685307
    vertex 17.70549288989392 8.068020299945996 10.999985942669193
    vertex 17.705492898634173 8.360411123309085 10.998153457284003
  endloop
endfacet
facet normal -0.9999999999997138 1.5455783403731371e-07 7.406778837284733e-07
  outer loop
    vertex 17.705485426321673 8.360411116305915 0.0018389316796685307
    vertex 17.705492898634173 8.360411123309085 10.998153457284003
    vertex 17.705485434576584 8.651002356253276 0.03022671645248253
  endloop
endfacet
facet normal -0.9999999999997138 1.5455783403731371e-07 7.406778837284733e-07
  outer loop
    vertex 17.705485434576584 8.651002356253276 0.03022671645248253
    vertex 17.705492898634173 8.360411123309085 10.998153457284003
    vertex 17.7054929077002 8.65100236322017 10.969765433722461
  endloop
endfacet
facet normal -0.9999999999997138 1.5455783403731371e-07 7.406778837284733e-07
  outer loop
    vertex 17.705485434576584 8.651002356253276 0.03022671645248253
    vertex 17.7054929077002 8.65100236322017 10.969765433722461
    vertex 17.705485440422084 8.908915945812922 0.1591093628488915
  endloop
endfacet
facet normal -0.9999999999997138 1.5455783403731371e-07 7.406778837284733e-07
  outer loop
    vertex 17.705485440422084 8.908915945812922 0.1591093628488915
    vertex 17.7054929077002 8.65100236322017 10.969765433722461
    vertex 17.705492917227915 8.908915952615718 10.84088302541612
  endloop
endfacet
facet normal -0.9999999999997138 1.5455783403731371e-07 7.406778837284733e-07
  outer loop
    vertex 17.705485440422084 8.908915945812922 0.1591093628488915
    vertex 17.705492917227915 8.908915952615718 10.84088302541612
    vertex 17.705485440578997 9.037800261467764 0.4170243827558215
  endloop
endfacet
facet normal -0.9999999999997138 1.5455783403731371e-07 7.406778837284733e-07
  outer loop
    vertex 17.705485440578997 9.037800261467764 0.4170243827558215
    vertex 17.705492917227915 8.908915952615718 10.84088302541612
    vertex 17.70549292475341 9.037800267942108 10.582968005345023
  endloop
endfacet
facet normal -0.9999999999997138 1.5455783403731371e-07 7.406778837284733e-07
  outer loop
    vertex 17.705485440578997 9.037800261467764 0.4170243827558215
    vertex 17.70549292475341 9.037800267942108 10.582968005345023
    vertex 17.70548543727389 9.066188285029453 0.7076160995040994
  endloop
endfacet
facet normal -0.9999999999997138 1.5455783403731371e-07 7.406778837284733e-07
  outer loop
    vertex 17.70548543727389 9.066188285029453 0.7076160995040994
    vertex 17.70549292475341 9.037800267942108 10.582968005345023
    vertex 17.705492929750495 9.066188291133475 10.292376288560579
  endloop
endfacet
facet normal -0.9999999999997138 1.5455783403731371e-07 7.406778837284733e-07
  outer loop
    vertex 17.70548543727389 9.066188285029453 0.7076160995040994
    vertex 17.705492929750495 9.066188291133475 10.292376288560579
    vertex 17.705485433151807 9.068020293577309 1.0000064460300329
  endloop
endfacet
facet normal -0.9999999999997138 1.5455783403731371e-07 7.406778837284733e-07
  outer loop
    vertex 17.705485433151807 9.068020293577309 1.0000064460300329
    vertex 17.705492929750495 9.066188291133475 10.292376288560579
    vertex 17.705492933981883 9.068020299309191 9.999985942032328
  endloop
endfacet
facet normal -0.9999999999997138 1.5455783403731371e-07 7.406778837284733e-07
  outer loop
    vertex 17.705485303084775 6.0698418133368595 3.8500073062464044
    vertex 17.70548517718235 1.379671494695922e-06 6.4518052783544076e-06
    vertex 17.70548512218521 -5.252251474185953e-07 3.8500023182231726
  endloop
endfacet
facet normal -0.9999999999997138 1.5455783403731371e-07 7.406778837284733e-07
  outer loop
    vertex 17.70548517718235 1.379671494695922e-06 6.4518052783544076e-06
    vertex 17.705485303084775 6.0698418133368595 3.8500073062464044
    vertex 17.70548541763372 8.068020292940544 6.446666912127175e-06
  endloop
endfacet
facet normal -0.9999999999997138 1.5455783403731371e-07 7.406778837284733e-07
  outer loop
    vertex 17.70548541763372 8.068020292940544 6.446666912127175e-06
    vertex 17.705485303084775 6.0698418133368595 3.8500073062464044
    vertex 17.705492844627134 6.069841817253517 9.999985943941812
  endloop
endfacet
facet normal -6.573705826852738e-08 -0.9999999999999979 6.368602913448497e-10
  outer loop
    vertex 101.88207517003039 5.819827246699778 10.24994602479768
    vertex 91.92795070863335 5.81982790153228 10.999945863457656
    vertex 91.92795071934717 5.819827901054662 10.249945863457656
  endloop
endfacet
facet normal -6.573705826852738e-08 -0.9999999999999979 6.368602913448497e-10
  outer loop
    vertex 91.92795070863335 5.81982790153228 10.999945863457656
    vertex 101.88207517003039 5.819827246699778 10.24994602479768
    vertex 101.88207515931664 5.8198272471774555 10.999946024797682
  endloop
endfacet
facet normal -4.1484265592751404e-08 -0.999999999999999 1.6565571585211195e-08
  outer loop
    vertex 101.88206934737329 -1.7500042255475767 1.50000086589189
    vertex -2.4143105601423347e-07 -1.749999804399301 13.24999952427731
    vertex -7.358273683747384e-08 -1.7499999990447563 1.500000001114543
  endloop
endfacet
facet normal -4.1484265592751404e-08 -0.999999999999999 1.6565571585211195e-08
  outer loop
    vertex -2.4143105601423347e-07 -1.749999804399301 13.24999952427731
    vertex 101.88206934737329 -1.7500042255475767 1.50000086589189
    vertex 101.88206917952492 -1.7500040309021065 13.25000038905466
  endloop
endfacet
facet normal 1.594886456720749e-08 0.5547001235085014 0.8320503428156575
  outer loop
    vertex 101.8820693105048 -2.6875042251495365 2.125000747279668
    vertex -7.358273683747384e-08 -1.7499999990447563 1.500000001114543
    vertex -1.1045116928096871e-07 -2.687499998646793 2.124999882502326
  endloop
endfacet
facet normal 1.594886456720749e-08 0.5547001235085014 0.8320503428156575
  outer loop
    vertex -7.358273683747384e-08 -1.7499999990447563 1.500000001114543
    vertex 101.8820693105048 -2.6875042251495365 2.125000747279668
    vertex 101.88206934737329 -1.7500042255475767 1.50000086589189
  endloop
endfacet
endsolid LED Strip Long Boom
