solid Ender 3 Feet
facet normal 9.079183947038488e-10 -9.635657024595603e-09 -1.0
  outer loop
    vertex 130.46457493638502 9.737674849370189 0.0
    vertex 124.21457684373365 7.237674849370188 0.0
    vertex 124.21457684373365 9.737674849370189 0.0
  endloop
endfacet
facet normal 9.079183947038488e-10 -9.635657024595603e-09 -1.0
  outer loop
    vertex 131.21457493638502 15.737674849370189 0.0
    vertex 128.1545792851399 11.717674391606517 0.0
    vertex 128.1545792851399 13.237674849370189 0.0
  endloop
endfacet
facet normal 9.079183947038488e-10 -9.635657024595603e-09 -1.0
  outer loop
    vertex 128.1545792851399 11.717674391606517 0.0
    vertex 131.21457493638502 15.737674849370189 0.0
    vertex 130.46457493638502 11.717674391606517 0.0
  endloop
endfacet
facet normal 9.079183947038488e-10 -9.635657024595603e-09 -1.0
  outer loop
    vertex 130.46457493638502 11.717674391606517 0.0
    vertex 131.21457493638502 15.737674849370189 0.0
    vertex 130.46457493638502 9.737674849370189 0.0
  endloop
endfacet
facet normal 9.079183947038488e-10 -9.635657024595603e-09 -1.0
  outer loop
    vertex 138.21457493638502 13.237674849370189 0.0
    vertex 135.96457493638502 11.717674391606517 0.0
    vertex 135.21457493638502 15.737674849370189 0.0
  endloop
endfacet
facet normal 9.079183947038488e-10 -9.635657024595603e-09 -1.0
  outer loop
    vertex 135.96457493638502 11.717674391606517 0.0
    vertex 138.21457493638502 13.237674849370189 0.0
    vertex 138.21457493638502 11.717674391606517 0.0
  endloop
endfacet
facet normal 9.079183947038488e-10 -9.635657024595603e-09 -1.0
  outer loop
    vertex 151.2145739827107 15.737674849370189 0.0
    vertex 148.1545745167683 11.717674391606517 0.0
    vertex 148.1545745167683 13.237674849370189 0.0
  endloop
endfacet
facet normal 9.079183947038488e-10 -9.635657024595603e-09 -1.0
  outer loop
    vertex 148.1545745167683 11.717674391606517 0.0
    vertex 151.2145739827107 15.737674849370189 0.0
    vertex 150.4645739827107 11.717674391606517 0.0
  endloop
endfacet
facet normal 9.079183947038488e-10 -9.635657024595603e-09 -1.0
  outer loop
    vertex 150.4645739827107 11.717674391606517 0.0
    vertex 151.2145739827107 15.737674849370189 0.0
    vertex 150.4645739827107 9.737674849370189 0.0
  endloop
endfacet
facet normal 9.079183947038488e-10 -9.635657024595603e-09 -1.0
  outer loop
    vertex 158.21457302903636 13.237674849370189 0.0
    vertex 155.9645730290364 11.717674391606517 0.0
    vertex 155.21457302903636 15.737674849370189 0.0
  endloop
endfacet
facet normal 9.079183947038488e-10 -9.635657024595603e-09 -1.0
  outer loop
    vertex 155.9645730290364 11.717674391606517 0.0
    vertex 158.21457302903636 13.237674849370189 0.0
    vertex 158.21457302903636 11.717674391606517 0.0
  endloop
endfacet
facet normal 9.079183947038488e-10 -9.635657024595603e-09 -1.0
  outer loop
    vertex 124.21457684373365 7.237674849370188 0.0
    vertex 120.09325802659498 -18.262325150629835 3.4679057055982784e-07
    vertex 120.09325802659498 -5.262325150629812 0.0
  endloop
endfacet
facet normal 9.079183947038488e-10 -9.635657024595603e-09 -1.0
  outer loop
    vertex 120.09325802659498 -18.262325150629835 3.4679057055982784e-07
    vertex 124.21457684373365 7.237674849370188 0.0
    vertex 162.214574936385 -18.262325150629835 3.4679057055982784e-07
  endloop
endfacet
facet normal 9.079183947038488e-10 -9.635657024595603e-09 -1.0
  outer loop
    vertex 162.214574936385 -18.262325150629835 3.4679057055982784e-07
    vertex 124.21457684373365 7.237674849370188 0.0
    vertex 130.46457493638502 9.737674849370189 0.0
  endloop
endfacet
facet normal 9.079183947038488e-10 -9.635657024595603e-09 -1.0
  outer loop
    vertex 162.214574936385 -18.262325150629835 3.4679057055982784e-07
    vertex 130.46457493638502 9.737674849370189 0.0
    vertex 135.96457493638502 9.737674849370189 0.0
  endloop
endfacet
facet normal 9.079183947038488e-10 -9.635657024595603e-09 -1.0
  outer loop
    vertex 135.96457493638502 9.737674849370189 0.0
    vertex 130.46457493638502 9.737674849370189 0.0
    vertex 131.21457493638502 15.737674849370189 0.0
  endloop
endfacet
facet normal 9.079183947038488e-10 -9.635657024595603e-09 -1.0
  outer loop
    vertex 135.96457493638502 9.737674849370189 0.0
    vertex 131.21457493638502 15.737674849370189 0.0
    vertex 135.21457493638502 15.737674849370189 0.0
  endloop
endfacet
facet normal 9.079183947038488e-10 -9.635657024595603e-09 -1.0
  outer loop
    vertex 135.96457493638502 9.737674849370189 0.0
    vertex 135.21457493638502 15.737674849370189 0.0
    vertex 135.96457493638502 11.717674391606517 0.0
  endloop
endfacet
facet normal 9.079183947038488e-10 -9.635657024595603e-09 -1.0
  outer loop
    vertex 162.214574936385 -18.262325150629835 3.4679057055982784e-07
    vertex 135.96457493638502 9.737674849370189 0.0
    vertex 150.4645739827107 9.737674849370189 0.0
  endloop
endfacet
facet normal 9.079183947038488e-10 -9.635657024595603e-09 -1.0
  outer loop
    vertex 162.214574936385 -18.262325150629835 3.4679057055982784e-07
    vertex 150.4645739827107 9.737674849370189 0.0
    vertex 151.2145739827107 15.737674849370189 0.0
  endloop
endfacet
facet normal 9.079183947038488e-10 -9.635657024595603e-09 -1.0
  outer loop
    vertex 162.214574936385 -18.262325150629835 3.4679057055982784e-07
    vertex 151.2145739827107 15.737674849370189 0.0
    vertex 155.9645730290364 9.737674849370189 0.0
  endloop
endfacet
facet normal 9.079183947038488e-10 -9.635657024595603e-09 -1.0
  outer loop
    vertex 155.9645730290364 9.737674849370189 0.0
    vertex 151.2145739827107 15.737674849370189 0.0
    vertex 155.21457302903636 15.737674849370189 0.0
  endloop
endfacet
facet normal 9.079183947038488e-10 -9.635657024595603e-09 -1.0
  outer loop
    vertex 155.9645730290364 9.737674849370189 0.0
    vertex 155.21457302903636 15.737674849370189 0.0
    vertex 155.9645730290364 11.717674391606517 0.0
  endloop
endfacet
facet normal 9.079183947038488e-10 -9.635657024595603e-09 -1.0
  outer loop
    vertex 162.214574936385 -18.262325150629835 3.4679057055982784e-07
    vertex 155.9645730290364 9.737674849370189 0.0
    vertex 162.2145730290364 9.737674849370189 0.0
  endloop
endfacet
facet normal 1.0 0.0 0.0
  outer loop
    vertex 135.96457493638502 11.717674391606517 0.0
    vertex 135.96457493638502 9.737674849370189 22.00000762939453
    vertex 135.96457493638502 9.737674849370189 0.0
  endloop
endfacet
facet normal 1.0 0.0 0.0
  outer loop
    vertex 135.96457493638502 9.737674849370189 22.00000762939453
    vertex 135.96457493638502 11.717674391606517 0.0
    vertex 135.96457493638502 11.717674391606517 22.00000762939453
  endloop
endfacet
facet normal 0.0 -1.0 0.0
  outer loop
    vertex 138.21457493638502 11.717674391606517 22.00000762939453
    vertex 135.96457493638502 11.717674391606517 0.0
    vertex 138.21457493638502 11.717674391606517 0.0
  endloop
endfacet
facet normal 0.0 -1.0 0.0
  outer loop
    vertex 135.96457493638502 11.717674391606517 0.0
    vertex 138.21457493638502 11.717674391606517 22.00000762939453
    vertex 135.96457493638502 11.717674391606517 22.00000762939453
  endloop
endfacet
facet normal -1.0 0.0 0.0
  outer loop
    vertex 150.4645739827107 11.717674391606517 22.00000762939453
    vertex 150.4645739827107 9.737674849370189 0.0
    vertex 150.4645739827107 9.737674849370189 22.00000762939453
  endloop
endfacet
facet normal -1.0 0.0 0.0
  outer loop
    vertex 150.4645739827107 9.737674849370189 0.0
    vertex 150.4645739827107 11.717674391606517 22.00000762939453
    vertex 150.4645739827107 11.717674391606517 0.0
  endloop
endfacet
facet normal 0.0 -1.0 0.0
  outer loop
    vertex 158.21457302903636 11.717674391606517 22.00000762939453
    vertex 155.9645730290364 11.717674391606517 0.0
    vertex 158.21457302903636 11.717674391606517 0.0
  endloop
endfacet
facet normal 0.0 -1.0 0.0
  outer loop
    vertex 155.9645730290364 11.717674391606517 0.0
    vertex 158.21457302903636 11.717674391606517 22.00000762939453
    vertex 155.9645730290364 11.717674391606517 22.00000762939453
  endloop
endfacet
facet normal 0.0 1.0 0.0
  outer loop
    vertex 151.2145739827107 15.737674849370189 22.00000762939453
    vertex 155.21457302903636 15.737674849370189 0.0
    vertex 151.2145739827107 15.737674849370189 0.0
  endloop
endfacet
facet normal 0.0 1.0 0.0
  outer loop
    vertex 155.21457302903636 15.737674849370189 0.0
    vertex 151.2145739827107 15.737674849370189 22.00000762939453
    vertex 155.21457302903636 15.737674849370189 22.00000762939453
  endloop
endfacet
facet normal 1.0 0.0 0.0
  outer loop
    vertex 155.9645730290364 11.717674391606517 0.0
    vertex 155.9645730290364 9.737674849370189 22.00000762939453
    vertex 155.9645730290364 9.737674849370189 0.0
  endloop
endfacet
facet normal 1.0 0.0 0.0
  outer loop
    vertex 155.9645730290364 9.737674849370189 22.00000762939453
    vertex 155.9645730290364 11.717674391606517 0.0
    vertex 155.9645730290364 11.717674391606517 22.00000762939453
  endloop
endfacet
facet normal -0.632686589099216 0.774407954487813 3.356966911327865e-08
  outer loop
    vertex 148.1545745167683 13.237672942021556 22.00000762939453
    vertex 151.2145739827107 15.737674849370189 0.0
    vertex 148.1545745167683 13.237674849370189 0.0
  endloop
endfacet
facet normal -0.632686589099216 0.774407954487813 3.356966911327865e-08
  outer loop
    vertex 151.2145739827107 15.737674849370189 0.0
    vertex 148.1545745167683 13.237672942021556 22.00000762939453
    vertex 151.2145739827107 15.737674849370189 22.00000762939453
  endloop
endfacet
facet normal -1.0 0.0 0.0
  outer loop
    vertex 120.09325802659498 -5.262325150629812 22.00000762939453
    vertex 120.09325802659498 -18.262325150629835 3.4679057055982784e-07
    vertex 120.09325802659498 -18.262328965327104 22.000006068836466
  endloop
endfacet
facet normal -1.0 0.0 0.0
  outer loop
    vertex 120.09325802659498 -18.262325150629835 3.4679057055982784e-07
    vertex 120.09325802659498 -5.262325150629812 22.00000762939453
    vertex 120.09325802659498 -5.262325150629812 0.0
  endloop
endfacet
facet normal 0.6401845437889516 0.7682211594936258 3.3301478865976874e-08
  outer loop
    vertex 155.21457302903636 15.737674849370189 22.00000762939453
    vertex 158.21457302903636 13.237674849370189 0.0
    vertex 155.21457302903636 15.737674849370189 0.0
  endloop
endfacet
facet normal 0.6401845437889516 0.7682211594936258 3.3301478865976874e-08
  outer loop
    vertex 158.21457302903636 13.237674849370189 0.0
    vertex 155.21457302903636 15.737674849370189 22.00000762939453
    vertex 158.21457302903636 13.237672942021556 22.00000762939453
  endloop
endfacet
facet normal -1.0 0.0 0.0
  outer loop
    vertex 148.1545745167683 13.237672942021556 22.00000762939453
    vertex 148.1545745167683 11.717674391606517 0.0
    vertex 148.1545745167683 11.717674391606517 22.00000762939453
  endloop
endfacet
facet normal -1.0 0.0 0.0
  outer loop
    vertex 148.1545745167683 11.717674391606517 0.0
    vertex 148.1545745167683 13.237672942021556 22.00000762939453
    vertex 148.1545745167683 13.237674849370189 0.0
  endloop
endfacet
facet normal 0.0 1.0 0.0
  outer loop
    vertex 135.96457493638502 9.737674849370189 22.00000762939453
    vertex 150.4645739827107 9.737674849370189 0.0
    vertex 135.96457493638502 9.737674849370189 0.0
  endloop
endfacet
facet normal 0.0 1.0 0.0
  outer loop
    vertex 150.4645739827107 9.737674849370189 0.0
    vertex 135.96457493638502 9.737674849370189 22.00000762939453
    vertex 150.4645739827107 9.737674849370189 22.00000762939453
  endloop
endfacet
facet normal 0.9999999999999991 3.260121637469868e-08 3.04428300440465e-08
  outer loop
    vertex 162.214574936385 -18.262325150629835 3.4679057055982784e-07
    vertex 162.2145730290364 9.737674849370189 22.00000762939453
    vertex 162.2145730290364 -18.262328965327104 22.000006068836466
  endloop
endfacet
facet normal 0.9999999999999991 3.260121637469868e-08 3.04428300440465e-08
  outer loop
    vertex 162.2145730290364 9.737674849370189 22.00000762939453
    vertex 162.214574936385 -18.262325150629835 3.4679057055982784e-07
    vertex 162.2145730290364 9.737674849370189 0.0
  endloop
endfacet
facet normal 0.0 1.0 0.0
  outer loop
    vertex 155.9645730290364 9.737674849370189 22.00000762939453
    vertex 162.2145730290364 9.737674849370189 0.0
    vertex 155.9645730290364 9.737674849370189 0.0
  endloop
endfacet
facet normal 0.0 1.0 0.0
  outer loop
    vertex 162.2145730290364 9.737674849370189 0.0
    vertex 155.9645730290364 9.737674849370189 22.00000762939453
    vertex 162.2145730290364 9.737674849370189 22.00000762939453
  endloop
endfacet
facet normal 2.0317531844497868e-24 -0.9999999999999851 -1.7339528527991392e-07
  outer loop
    vertex 162.214574936385 -18.262325150629835 3.4679057055982784e-07
    vertex 161.15391552781566 -18.262325150629835 1.0000041614878363
    vertex 120.09325802659498 -18.262325150629835 3.4679057055982784e-07
  endloop
endfacet
facet normal 2.0317531844497868e-24 -0.9999999999999851 -1.7339528527991392e-07
  outer loop
    vertex 161.15391552781566 -18.262325150629835 1.0000041614878363
    vertex 162.214574936385 -18.262325150629835 3.4679057055982784e-07
    vertex 162.2145730290364 -18.262328965327104 22.000006068836466
  endloop
endfacet
facet normal 2.0317531844497868e-24 -0.9999999999999851 -1.7339528527991392e-07
  outer loop
    vertex 161.15391552781566 -18.262325150629835 1.0000041614878363
    vertex 162.2145730290364 -18.262328965327104 22.000006068836466
    vertex 161.15391552781566 -18.262325150629835 21.0000022541392
  endloop
endfacet
facet normal 2.0317531844497868e-24 -0.9999999999999851 -1.7339528527991392e-07
  outer loop
    vertex 161.15391552781566 -18.262325150629835 21.0000022541392
    vertex 162.2145730290364 -18.262328965327104 22.000006068836466
    vertex 121.15391934251295 -18.262325150629835 21.0000022541392
  endloop
endfacet
facet normal 2.0317531844497868e-24 -0.9999999999999851 -1.7339528527991392e-07
  outer loop
    vertex 120.09325802659498 -18.262325150629835 3.4679057055982784e-07
    vertex 121.15391934251295 -18.262325150629835 1.0000041614878363
    vertex 120.09325802659498 -18.262328965327104 22.000006068836466
  endloop
endfacet
facet normal 2.0317531844497868e-24 -0.9999999999999851 -1.7339528527991392e-07
  outer loop
    vertex 121.15391934251295 -18.262325150629835 1.0000041614878363
    vertex 120.09325802659498 -18.262325150629835 3.4679057055982784e-07
    vertex 161.15391552781566 -18.262325150629835 1.0000041614878363
  endloop
endfacet
facet normal 2.0317531844497868e-24 -0.9999999999999851 -1.7339528527991392e-07
  outer loop
    vertex 120.09325802659498 -18.262328965327104 22.000006068836466
    vertex 121.15391934251295 -18.262325150629835 1.0000041614878363
    vertex 121.15391934251295 -18.262325150629835 21.0000022541392
  endloop
endfacet
facet normal 2.0317531844497868e-24 -0.9999999999999851 -1.7339528527991392e-07
  outer loop
    vertex 120.09325802659498 -18.262328965327104 22.000006068836466
    vertex 121.15391934251295 -18.262325150629835 21.0000022541392
    vertex 162.2145730290364 -18.262328965327104 22.000006068836466
  endloop
endfacet
facet normal 4.08563369908669e-09 -4.336046788889967e-08 0.9999999999999991
  outer loop
    vertex 130.46457493638502 11.717674391606517 22.00000762939453
    vertex 128.1545792851399 13.237672942021556 22.00000762939453
    vertex 128.1545792851399 11.717674391606517 22.00000762939453
  endloop
endfacet
facet normal 4.08563369908669e-09 -4.336046788889967e-08 0.9999999999999991
  outer loop
    vertex 128.1545792851399 13.237672942021556 22.00000762939453
    vertex 130.46457493638502 11.717674391606517 22.00000762939453
    vertex 131.21457493638502 15.737674849370189 22.00000762939453
  endloop
endfacet
facet normal 4.08563369908669e-09 -4.336046788889967e-08 0.9999999999999991
  outer loop
    vertex 150.4645739827107 11.717674391606517 22.00000762939453
    vertex 148.1545745167683 13.237672942021556 22.00000762939453
    vertex 148.1545745167683 11.717674391606517 22.00000762939453
  endloop
endfacet
facet normal 4.08563369908669e-09 -4.336046788889967e-08 0.9999999999999991
  outer loop
    vertex 148.1545745167683 13.237672942021556 22.00000762939453
    vertex 150.4645739827107 11.717674391606517 22.00000762939453
    vertex 151.2145739827107 15.737674849370189 22.00000762939453
  endloop
endfacet
facet normal 4.08563369908669e-09 -4.336046788889967e-08 0.9999999999999991
  outer loop
    vertex 162.2145730290364 -18.262328965327104 22.000006068836466
    vertex 120.09325802659498 -5.262325150629812 22.00000762939453
    vertex 120.09325802659498 -18.262328965327104 22.000006068836466
  endloop
endfacet
facet normal 4.08563369908669e-09 -4.336046788889967e-08 0.9999999999999991
  outer loop
    vertex 120.09325802659498 -5.262325150629812 22.00000762939453
    vertex 162.2145730290364 -18.262328965327104 22.000006068836466
    vertex 124.21457684373365 7.237674849370188 22.00000762939453
  endloop
endfacet
facet normal 4.08563369908669e-09 -4.336046788889967e-08 0.9999999999999991
  outer loop
    vertex 124.21457684373365 7.237674849370188 22.00000762939453
    vertex 162.2145730290364 -18.262328965327104 22.000006068836466
    vertex 124.21457684373365 9.737674849370189 22.00000762939453
  endloop
endfacet
facet normal 4.08563369908669e-09 -4.336046788889967e-08 0.9999999999999991
  outer loop
    vertex 124.21457684373365 9.737674849370189 22.00000762939453
    vertex 162.2145730290364 -18.262328965327104 22.000006068836466
    vertex 130.46457493638502 9.737674849370189 22.00000762939453
  endloop
endfacet
facet normal 4.08563369908669e-09 -4.336046788889967e-08 0.9999999999999991
  outer loop
    vertex 130.46457493638502 9.737674849370189 22.00000762939453
    vertex 162.2145730290364 -18.262328965327104 22.000006068836466
    vertex 130.46457493638502 11.717674391606517 22.00000762939453
  endloop
endfacet
facet normal 4.08563369908669e-09 -4.336046788889967e-08 0.9999999999999991
  outer loop
    vertex 130.46457493638502 11.717674391606517 22.00000762939453
    vertex 162.2145730290364 -18.262328965327104 22.000006068836466
    vertex 135.96457493638502 9.737674849370189 22.00000762939453
  endloop
endfacet
facet normal 4.08563369908669e-09 -4.336046788889967e-08 0.9999999999999991
  outer loop
    vertex 130.46457493638502 11.717674391606517 22.00000762939453
    vertex 135.96457493638502 9.737674849370189 22.00000762939453
    vertex 131.21457493638502 15.737674849370189 22.00000762939453
  endloop
endfacet
facet normal 4.08563369908669e-09 -4.336046788889967e-08 0.9999999999999991
  outer loop
    vertex 131.21457493638502 15.737674849370189 22.00000762939453
    vertex 135.96457493638502 9.737674849370189 22.00000762939453
    vertex 135.21457493638502 15.737674849370189 22.00000762939453
  endloop
endfacet
facet normal 4.08563369908669e-09 -4.336046788889967e-08 0.9999999999999991
  outer loop
    vertex 135.96457493638502 9.737674849370189 22.00000762939453
    vertex 162.2145730290364 -18.262328965327104 22.000006068836466
    vertex 150.4645739827107 9.737674849370189 22.00000762939453
  endloop
endfacet
facet normal 4.08563369908669e-09 -4.336046788889967e-08 0.9999999999999991
  outer loop
    vertex 150.4645739827107 9.737674849370189 22.00000762939453
    vertex 162.2145730290364 -18.262328965327104 22.000006068836466
    vertex 150.4645739827107 11.717674391606517 22.00000762939453
  endloop
endfacet
facet normal 4.08563369908669e-09 -4.336046788889967e-08 0.9999999999999991
  outer loop
    vertex 150.4645739827107 11.717674391606517 22.00000762939453
    vertex 162.2145730290364 -18.262328965327104 22.000006068836466
    vertex 151.2145739827107 15.737674849370189 22.00000762939453
  endloop
endfacet
facet normal 4.08563369908669e-09 -4.336046788889967e-08 0.9999999999999991
  outer loop
    vertex 151.2145739827107 15.737674849370189 22.00000762939453
    vertex 162.2145730290364 -18.262328965327104 22.000006068836466
    vertex 155.9645730290364 9.737674849370189 22.00000762939453
  endloop
endfacet
facet normal 4.08563369908669e-09 -4.336046788889967e-08 0.9999999999999991
  outer loop
    vertex 151.2145739827107 15.737674849370189 22.00000762939453
    vertex 155.9645730290364 9.737674849370189 22.00000762939453
    vertex 155.21457302903636 15.737674849370189 22.00000762939453
  endloop
endfacet
facet normal 4.08563369908669e-09 -4.336046788889967e-08 0.9999999999999991
  outer loop
    vertex 155.9645730290364 9.737674849370189 22.00000762939453
    vertex 162.2145730290364 -18.262328965327104 22.000006068836466
    vertex 162.2145730290364 9.737674849370189 22.00000762939453
  endloop
endfacet
facet normal 4.08563369908669e-09 -4.336046788889967e-08 0.9999999999999991
  outer loop
    vertex 155.21457302903636 15.737674849370189 22.00000762939453
    vertex 155.9645730290364 11.717674391606517 22.00000762939453
    vertex 158.21457302903636 13.237672942021556 22.00000762939453
  endloop
endfacet
facet normal 4.08563369908669e-09 -4.336046788889967e-08 0.9999999999999991
  outer loop
    vertex 155.9645730290364 11.717674391606517 22.00000762939453
    vertex 155.21457302903636 15.737674849370189 22.00000762939453
    vertex 155.9645730290364 9.737674849370189 22.00000762939453
  endloop
endfacet
facet normal 4.08563369908669e-09 -4.336046788889967e-08 0.9999999999999991
  outer loop
    vertex 158.21457302903636 13.237672942021556 22.00000762939453
    vertex 155.9645730290364 11.717674391606517 22.00000762939453
    vertex 158.21457302903636 11.717674391606517 22.00000762939453
  endloop
endfacet
facet normal 4.08563369908669e-09 -4.336046788889967e-08 0.9999999999999991
  outer loop
    vertex 135.21457493638502 15.737674849370189 22.00000762939453
    vertex 135.96457493638502 11.717674391606517 22.00000762939453
    vertex 138.21457493638502 13.237672942021556 22.00000762939453
  endloop
endfacet
facet normal 4.08563369908669e-09 -4.336046788889967e-08 0.9999999999999991
  outer loop
    vertex 135.96457493638502 11.717674391606517 22.00000762939453
    vertex 135.21457493638502 15.737674849370189 22.00000762939453
    vertex 135.96457493638502 9.737674849370189 22.00000762939453
  endloop
endfacet
facet normal 4.08563369908669e-09 -4.336046788889967e-08 0.9999999999999991
  outer loop
    vertex 138.21457493638502 13.237672942021556 22.00000762939453
    vertex 135.96457493638502 11.717674391606517 22.00000762939453
    vertex 138.21457493638502 11.717674391606517 22.00000762939453
  endloop
endfacet
facet normal 1.0 0.0 0.0
  outer loop
    vertex 138.21457493638502 13.237674849370189 0.0
    vertex 138.21457493638502 11.717674391606517 22.00000762939453
    vertex 138.21457493638502 11.717674391606517 0.0
  endloop
endfacet
facet normal 1.0 0.0 0.0
  outer loop
    vertex 138.21457493638502 11.717674391606517 22.00000762939453
    vertex 138.21457493638502 13.237674849370189 0.0
    vertex 138.21457493638502 13.237672942021556 22.00000762939453
  endloop
endfacet
facet normal -1.0 0.0 0.0
  outer loop
    vertex 130.46457493638502 11.717674391606517 22.00000762939453
    vertex 130.46457493638502 9.737674849370189 0.0
    vertex 130.46457493638502 9.737674849370189 22.00000762939453
  endloop
endfacet
facet normal -1.0 0.0 0.0
  outer loop
    vertex 130.46457493638502 9.737674849370189 0.0
    vertex 130.46457493638502 11.717674391606517 22.00000762939453
    vertex 130.46457493638502 11.717674391606517 0.0
  endloop
endfacet
facet normal 0.0 1.0 0.0
  outer loop
    vertex 124.21457684373365 9.737674849370189 22.00000762939453
    vertex 130.46457493638502 9.737674849370189 0.0
    vertex 124.21457684373365 9.737674849370189 0.0
  endloop
endfacet
facet normal 0.0 1.0 0.0
  outer loop
    vertex 130.46457493638502 9.737674849370189 0.0
    vertex 124.21457684373365 9.737674849370189 22.00000762939453
    vertex 130.46457493638502 9.737674849370189 22.00000762939453
  endloop
endfacet
facet normal -0.9497118476966978 0.31312522470175486 0.0
  outer loop
    vertex 124.21457684373365 7.237674849370188 22.00000762939453
    vertex 120.09325802659498 -5.262325150629812 0.0
    vertex 120.09325802659498 -5.262325150629812 22.00000762939453
  endloop
endfacet
facet normal -0.9497118476966978 0.31312522470175486 0.0
  outer loop
    vertex 120.09325802659498 -5.262325150629812 0.0
    vertex 124.21457684373365 7.237674849370188 22.00000762939453
    vertex 124.21457684373365 7.237674849370188 0.0
  endloop
endfacet
facet normal -1.0 0.0 0.0
  outer loop
    vertex 124.21457684373365 9.737674849370189 22.00000762939453
    vertex 124.21457684373365 7.237674849370188 0.0
    vertex 124.21457684373365 7.237674849370188 22.00000762939453
  endloop
endfacet
facet normal -1.0 0.0 0.0
  outer loop
    vertex 124.21457684373365 7.237674849370188 0.0
    vertex 124.21457684373365 9.737674849370189 22.00000762939453
    vertex 124.21457684373365 9.737674849370189 0.0
  endloop
endfacet
facet normal 0.0 -1.0 0.0
  outer loop
    vertex 130.46457493638502 11.717674391606517 22.00000762939453
    vertex 128.1545792851399 11.717674391606517 0.0
    vertex 130.46457493638502 11.717674391606517 0.0
  endloop
endfacet
facet normal 0.0 -1.0 0.0
  outer loop
    vertex 128.1545792851399 11.717674391606517 0.0
    vertex 130.46457493638502 11.717674391606517 22.00000762939453
    vertex 128.1545792851399 11.717674391606517 22.00000762939453
  endloop
endfacet
facet normal 0.0 1.0 0.0
  outer loop
    vertex 131.21457493638502 15.737674849370189 22.00000762939453
    vertex 135.21457493638502 15.737674849370189 0.0
    vertex 131.21457493638502 15.737674849370189 0.0
  endloop
endfacet
facet normal 0.0 1.0 0.0
  outer loop
    vertex 135.21457493638502 15.737674849370189 0.0
    vertex 131.21457493638502 15.737674849370189 22.00000762939453
    vertex 135.21457493638502 15.737674849370189 22.00000762939453
  endloop
endfacet
facet normal 1.0 0.0 0.0
  outer loop
    vertex 158.21457302903636 13.237674849370189 0.0
    vertex 158.21457302903636 11.717674391606517 22.00000762939453
    vertex 158.21457302903636 11.717674391606517 0.0
  endloop
endfacet
facet normal 1.0 0.0 0.0
  outer loop
    vertex 158.21457302903636 11.717674391606517 22.00000762939453
    vertex 158.21457302903636 13.237674849370189 0.0
    vertex 158.21457302903636 13.237672942021556 22.00000762939453
  endloop
endfacet
facet normal -0.632687062105797 0.7744075680440723 3.356965236139945e-08
  outer loop
    vertex 128.1545792851399 13.237672942021556 22.00000762939453
    vertex 131.21457493638502 15.737674849370189 0.0
    vertex 128.1545792851399 13.237674849370189 0.0
  endloop
endfacet
facet normal -0.632687062105797 0.7744075680440723 3.356965236139945e-08
  outer loop
    vertex 131.21457493638502 15.737674849370189 0.0
    vertex 128.1545792851399 13.237672942021556 22.00000762939453
    vertex 131.21457493638502 15.737674849370189 22.00000762939453
  endloop
endfacet
facet normal -1.0 0.0 0.0
  outer loop
    vertex 128.1545792851399 13.237672942021556 22.00000762939453
    vertex 128.1545792851399 11.717674391606517 0.0
    vertex 128.1545792851399 11.717674391606517 22.00000762939453
  endloop
endfacet
facet normal -1.0 0.0 0.0
  outer loop
    vertex 128.1545792851399 11.717674391606517 0.0
    vertex 128.1545792851399 13.237672942021556 22.00000762939453
    vertex 128.1545792851399 13.237674849370189 0.0
  endloop
endfacet
facet normal 0.0 -1.0 0.0
  outer loop
    vertex 150.4645739827107 11.717674391606517 22.00000762939453
    vertex 148.1545745167683 11.717674391606517 0.0
    vertex 150.4645739827107 11.717674391606517 0.0
  endloop
endfacet
facet normal 0.0 -1.0 0.0
  outer loop
    vertex 148.1545745167683 11.717674391606517 0.0
    vertex 150.4645739827107 11.717674391606517 22.00000762939453
    vertex 148.1545745167683 11.717674391606517 22.00000762939453
  endloop
endfacet
facet normal 0.6401845437889513 0.768221159493626 3.330147886597688e-08
  outer loop
    vertex 135.21457493638502 15.737674849370189 22.00000762939453
    vertex 138.21457493638502 13.237674849370189 0.0
    vertex 135.21457493638502 15.737674849370189 0.0
  endloop
endfacet
facet normal 0.6401845437889513 0.768221159493626 3.330147886597688e-08
  outer loop
    vertex 138.21457493638502 13.237674849370189 0.0
    vertex 135.21457493638502 15.737674849370189 22.00000762939453
    vertex 138.21457493638502 13.237672942021556 22.00000762939453
  endloop
endfacet
facet normal -1.0 0.0 0.0
  outer loop
    vertex 161.15391552781566 -15.262325150629811 21.000001907348633
    vertex 161.15391552781566 -18.262325150629835 1.0000041614878363
    vertex 161.15391552781566 -18.262325150629835 21.0000022541392
  endloop
endfacet
facet normal -1.0 0.0 0.0
  outer loop
    vertex 161.15391552781566 -18.262325150629835 1.0000041614878363
    vertex 161.15391552781566 -15.262325150629811 21.000001907348633
    vertex 161.15391552781566 -15.262325150629811 1.0000038146972656
  endloop
endfacet
facet normal 0.0 0.0 -1.0
  outer loop
    vertex 161.15391552781566 -15.262325150629811 21.000001907348633
    vertex 121.15391934251295 -18.262325150629835 21.0000022541392
    vertex 121.15391934251295 -15.262325150629811 21.000001907348633
  endloop
endfacet
facet normal 0.0 0.0 -1.0
  outer loop
    vertex 121.15391934251295 -18.262325150629835 21.0000022541392
    vertex 161.15391552781566 -15.262325150629811 21.000001907348633
    vertex 161.15391552781566 -18.262325150629835 21.0000022541392
  endloop
endfacet
facet normal 1.0 0.0 0.0
  outer loop
    vertex 121.15391934251295 -15.262325150629811 1.0000038146972656
    vertex 121.15391934251295 -18.262325150629835 21.0000022541392
    vertex 121.15391934251295 -18.262325150629835 1.0000041614878363
  endloop
endfacet
facet normal 1.0 0.0 0.0
  outer loop
    vertex 121.15391934251295 -18.262325150629835 21.0000022541392
    vertex 121.15391934251295 -15.262325150629811 1.0000038146972656
    vertex 121.15391934251295 -15.262325150629811 21.000001907348633
  endloop
endfacet
facet normal 0.0 0.0 1.0
  outer loop
    vertex 161.15391552781566 -18.262325150629835 1.0000041614878363
    vertex 121.15391934251295 -15.262325150629811 1.0000038146972656
    vertex 121.15391934251295 -18.262325150629835 1.0000041614878363
  endloop
endfacet
facet normal 0.0 0.0 1.0
  outer loop
    vertex 121.15391934251295 -15.262325150629811 1.0000038146972656
    vertex 161.15391552781566 -18.262325150629835 1.0000041614878363
    vertex 161.15391552781566 -15.262325150629811 1.0000038146972656
  endloop
endfacet
facet normal 0.0 -1.0 0.0
  outer loop
    vertex 161.15391552781566 -15.262325150629811 21.000001907348633
    vertex 121.15391934251295 -15.262325150629811 1.0000038146972656
    vertex 161.15391552781566 -15.262325150629811 1.0000038146972656
  endloop
endfacet
facet normal 0.0 -1.0 0.0
  outer loop
    vertex 121.15391934251295 -15.262325150629811 1.0000038146972656
    vertex 161.15391552781566 -15.262325150629811 21.000001907348633
    vertex 121.15391934251295 -15.262325150629811 21.000001907348633
  endloop
endfacet
endsolid Ender 3 Feet
