solid corrected dual Z 1mm
facet normal 0.0 -0.4997252864909174 0.8661839516185754
  outer loop
    vertex 100.0 -7.050000190734862 3.099989891052246
    vertex -100.00000000000001 -5.75001001358031 3.8499898910522337
    vertex -100.00000000000001 -7.050000190734853 3.0999898910522328
  endloop
endfacet
facet normal 0.0 -0.4997252864909174 0.8661839516185754
  outer loop
    vertex -100.00000000000001 -5.75001001358031 3.8499898910522337
    vertex 100.0 -7.050000190734862 3.099989891052246
    vertex 100.0 -5.750010013580321 3.8499898910522456
  endloop
endfacet
facet normal 0.0 -1.0 0.0
  outer loop
    vertex 100.0 -7.050000190734862 2.2204499456018705e-14
    vertex -100.00000000000001 -7.050000190734853 0.749999999999979
    vertex -100.0 -7.050000190734853 -2.220453850673107e-14
  endloop
endfacet
facet normal 0.0 -1.0 0.0
  outer loop
    vertex -100.00000000000001 -7.050000190734853 0.749999999999979
    vertex 100.0 -7.050000190734862 2.2204499456018705e-14
    vertex 100.0 -7.050000190734862 0.75
  endloop
endfacet
facet normal 0.0 -1.0 0.0
  outer loop
    vertex 100.0 -6.550000190734863 0.75
    vertex -100.00000000000001 -6.5500001907348535 2.8499898910522328
    vertex -100.0 -6.5500001907348535 0.749999999999979
  endloop
endfacet
facet normal 0.0 -1.0 0.0
  outer loop
    vertex -100.00000000000001 -6.5500001907348535 2.8499898910522328
    vertex 100.0 -6.550000190734863 0.75
    vertex 100.0 -6.550000190734863 2.8499898910522456
  endloop
endfacet
facet normal 0.0 -0.44721359549995904 -0.8944271909999155
  outer loop
    vertex 100.0 -6.550000190734863 2.8499898910522456
    vertex -100.00000000000001 -7.050000190734853 3.0999898910522328
    vertex -100.00000000000001 -6.5500001907348535 2.8499898910522328
  endloop
endfacet
facet normal 0.0 -0.44721359549995904 -0.8944271909999155
  outer loop
    vertex -100.00000000000001 -7.050000190734853 3.0999898910522328
    vertex 100.0 -6.550000190734863 2.8499898910522456
    vertex 100.0 -7.050000190734862 3.099989891052246
  endloop
endfacet
facet normal 2.2204467233941977e-16 1.1010081385987606e-20 -1.0
  outer loop
    vertex 100.0 -2.2204499456018705e-14 2.2204499456018705e-14
    vertex -100.0 -7.050000190734853 -2.220453850673107e-14
    vertex -100.0 2.2204401893475072e-14 -2.220438326443233e-14
  endloop
endfacet
facet normal 2.2204467233941977e-16 1.1010081385987606e-20 -1.0
  outer loop
    vertex -100.0 -7.050000190734853 -2.220453850673107e-14
    vertex 100.0 -2.2204499456018705e-14 2.2204499456018705e-14
    vertex 100.0 -7.050000190734862 2.2204499456018705e-14
  endloop
endfacet
facet normal 0.0 1.0 0.0
  outer loop
    vertex -100.00000000000001 -5.75001001358031 3.8499898910522337
    vertex 100.0 -5.750010013580321 0.75
    vertex -100.0 -5.75001001358031 0.749999999999979
  endloop
endfacet
facet normal 0.0 1.0 0.0
  outer loop
    vertex 100.0 -5.750010013580321 0.75
    vertex -100.00000000000001 -5.75001001358031 3.8499898910522337
    vertex 100.0 -5.750010013580321 3.8499898910522456
  endloop
endfacet
facet normal 0.0 0.0 1.0
  outer loop
    vertex 100.0 -7.050000190734862 0.75
    vertex -100.0 -6.5500001907348535 0.749999999999979
    vertex -100.00000000000001 -7.050000190734853 0.749999999999979
  endloop
endfacet
facet normal 0.0 0.0 1.0
  outer loop
    vertex -100.0 -6.5500001907348535 0.749999999999979
    vertex 100.0 -7.050000190734862 0.75
    vertex 100.0 -6.550000190734863 0.75
  endloop
endfacet
facet normal 1.0 0.0 0.0
  outer loop
    vertex 100.0 -2.2204499456018705e-14 2.2204499456018705e-14
    vertex 100.0 -7.050000190734862 0.75
    vertex 100.0 -7.050000190734862 2.2204499456018705e-14
  endloop
endfacet
facet normal 1.0 0.0 0.0
  outer loop
    vertex 100.0 -7.050000190734862 0.75
    vertex 100.0 -2.2204499456018705e-14 2.2204499456018705e-14
    vertex 100.0 -6.550000190734863 0.75
  endloop
endfacet
facet normal 1.0 0.0 0.0
  outer loop
    vertex 100.0 -6.550000190734863 0.75
    vertex 100.0 -2.2204499456018705e-14 2.2204499456018705e-14
    vertex 100.0 -5.750010013580321 0.75
  endloop
endfacet
facet normal 1.0 0.0 0.0
  outer loop
    vertex 100.0 -6.550000190734863 0.75
    vertex 100.0 -5.750010013580321 0.75
    vertex 100.0 -6.550000190734863 2.8499898910522456
  endloop
endfacet
facet normal 1.0 0.0 0.0
  outer loop
    vertex 100.0 -5.750010013580321 0.75
    vertex 100.0 -2.2204499456018705e-14 2.2204499456018705e-14
    vertex 100.0 -1.2999900579452515 0.75
  endloop
endfacet
facet normal 1.0 0.0 0.0
  outer loop
    vertex 100.0 -1.2999900579452515 0.75
    vertex 100.0 -2.2204499456018705e-14 2.2204499456018705e-14
    vertex 100.0 -0.49999999999999994 0.75
  endloop
endfacet
facet normal 1.0 0.0 0.0
  outer loop
    vertex 100.0 -1.2999900579452515 0.75
    vertex 100.0 -0.49999999999999994 0.75
    vertex 100.0 -1.2999900579452515 3.8499898910522456
  endloop
endfacet
facet normal 1.0 0.0 0.0
  outer loop
    vertex 100.0 -0.49999999999999994 0.75
    vertex 100.0 -2.2204499456018705e-14 2.2204499456018705e-14
    vertex 100.0 -2.2204499456018705e-14 0.75
  endloop
endfacet
facet normal 1.0 0.0 0.0
  outer loop
    vertex 100.0 -1.2999900579452515 3.8499898910522456
    vertex 100.0 -0.49999999999999994 2.8499898910522456
    vertex 100.0 -2.2204499456018705e-14 3.099989891052246
  endloop
endfacet
facet normal 1.0 0.0 0.0
  outer loop
    vertex 100.0 -0.49999999999999994 2.8499898910522456
    vertex 100.0 -1.2999900579452515 3.8499898910522456
    vertex 100.0 -0.49999999999999994 0.75
  endloop
endfacet
facet normal 1.0 0.0 0.0
  outer loop
    vertex 100.0 -6.550000190734863 2.8499898910522456
    vertex 100.0 -5.750010013580321 3.8499898910522456
    vertex 100.0 -7.050000190734862 3.099989891052246
  endloop
endfacet
facet normal 1.0 0.0 0.0
  outer loop
    vertex 100.0 -5.750010013580321 3.8499898910522456
    vertex 100.0 -6.550000190734863 2.8499898910522456
    vertex 100.0 -5.750010013580321 0.75
  endloop
endfacet
facet normal -1.0707060238424049e-16 1.782276884141522e-16 1.0
  outer loop
    vertex 100.0 -5.750010013580321 0.75
    vertex -100.0 -1.2999900579452295 0.7499999999999775
    vertex -100.0 -5.75001001358031 0.749999999999979
  endloop
endfacet
facet normal -1.0707060238424049e-16 1.782276884141522e-16 1.0
  outer loop
    vertex -100.0 -1.2999900579452295 0.7499999999999775
    vertex 100.0 -5.750010013580321 0.75
    vertex 100.0 -1.2999900579452515 0.75
  endloop
endfacet
facet normal 2.22044994560187e-16 1.0 -7.6903298832917925e-34
  outer loop
    vertex -100.0 2.2204401893475072e-14 0.7499999999999775
    vertex 100.0 -2.2204499456018705e-14 2.2204499456018705e-14
    vertex -100.0 2.2204401893475072e-14 -2.220438326443233e-14
  endloop
endfacet
facet normal 2.22044994560187e-16 1.0 -7.6903298832917925e-34
  outer loop
    vertex 100.0 -2.2204499456018705e-14 2.2204499456018705e-14
    vertex -100.0 2.2204401893475072e-14 0.7499999999999775
    vertex 100.0 -2.2204499456018705e-14 0.75
  endloop
endfacet
facet normal 0.0 0.0 1.0
  outer loop
    vertex 100.0 -0.49999999999999994 0.75
    vertex -100.0 2.2204401893475072e-14 0.7499999999999775
    vertex -100.0 -0.4999999999999775 0.7499999999999775
  endloop
endfacet
facet normal 0.0 0.0 1.0
  outer loop
    vertex -100.0 2.2204401893475072e-14 0.7499999999999775
    vertex 100.0 -0.49999999999999994 0.75
    vertex 100.0 -2.2204499456018705e-14 0.75
  endloop
endfacet
facet normal 4.965058376358025e-17 0.4472135954999662 -0.8944271909999117
  outer loop
    vertex 100.0 -2.2204499456018705e-14 3.099989891052246
    vertex -100.0 -0.4999999999999775 2.8499898910522248
    vertex -100.0 2.2204401893475072e-14 3.099989891052225
  endloop
endfacet
facet normal 4.965058376358025e-17 0.4472135954999662 -0.8944271909999117
  outer loop
    vertex -100.0 -0.4999999999999775 2.8499898910522248
    vertex 100.0 -2.2204499456018705e-14 3.099989891052246
    vertex 100.0 -0.49999999999999994 2.8499898910522456
  endloop
endfacet
facet normal 0.0 1.0 0.0
  outer loop
    vertex -100.0 -0.4999999999999775 2.8499898910522248
    vertex 100.0 -0.49999999999999994 0.75
    vertex -100.0 -0.4999999999999775 0.7499999999999775
  endloop
endfacet
facet normal 0.0 1.0 0.0
  outer loop
    vertex 100.0 -0.49999999999999994 0.75
    vertex -100.0 -0.4999999999999775 2.8499898910522248
    vertex 100.0 -0.49999999999999994 2.8499898910522456
  endloop
endfacet
facet normal 0.0 -1.0 0.0
  outer loop
    vertex 100.0 -1.2999900579452515 0.75
    vertex -100.0 -1.2999900579452295 3.8499898910522314
    vertex -100.0 -1.2999900579452295 0.7499999999999775
  endloop
endfacet
facet normal 0.0 -1.0 0.0
  outer loop
    vertex -100.0 -1.2999900579452295 3.8499898910522314
    vertex 100.0 -1.2999900579452515 0.75
    vertex 100.0 -1.2999900579452515 3.8499898910522456
  endloop
endfacet
facet normal 5.54805447607362e-17 0.4997253208721691 0.8661839317830871
  outer loop
    vertex 100.0 -1.2999900579452515 3.8499898910522456
    vertex -100.0 2.2204401893475072e-14 3.099989891052225
    vertex -100.0 -1.2999900579452295 3.8499898910522314
  endloop
endfacet
facet normal 5.54805447607362e-17 0.4997253208721691 0.8661839317830871
  outer loop
    vertex -100.0 2.2204401893475072e-14 3.099989891052225
    vertex 100.0 -1.2999900579452515 3.8499898910522456
    vertex 100.0 -2.2204499456018705e-14 3.099989891052246
  endloop
endfacet
facet normal -1.0 1.0594347728187007e-15 -1.6066614440701268e-15
  outer loop
    vertex -100.00000000000001 -5.75001001358031 3.8499898910522337
    vertex -100.00000000000001 -6.5500001907348535 2.8499898910522328
    vertex -100.00000000000001 -7.050000190734853 3.0999898910522328
  endloop
endfacet
facet normal -1.0 1.0594347728187007e-15 -1.6066614440701268e-15
  outer loop
    vertex -100.00000000000001 -6.5500001907348535 2.8499898910522328
    vertex -100.00000000000001 -5.75001001358031 3.8499898910522337
    vertex -100.0 -6.5500001907348535 0.749999999999979
  endloop
endfacet
facet normal -1.0 1.0594347728187007e-15 -1.6066614440701268e-15
  outer loop
    vertex -100.0 -1.2999900579452295 3.8499898910522314
    vertex -100.0 -0.4999999999999775 2.8499898910522248
    vertex -100.0 -1.2999900579452295 0.7499999999999775
  endloop
endfacet
facet normal -1.0 1.0594347728187007e-15 -1.6066614440701268e-15
  outer loop
    vertex -100.0 -0.4999999999999775 2.8499898910522248
    vertex -100.0 -1.2999900579452295 3.8499898910522314
    vertex -100.0 2.2204401893475072e-14 3.099989891052225
  endloop
endfacet
facet normal -1.0 1.0594347728187007e-15 -1.6066614440701268e-15
  outer loop
    vertex -100.0 -6.5500001907348535 0.749999999999979
    vertex -100.0 -7.050000190734853 -2.220453850673107e-14
    vertex -100.00000000000001 -7.050000190734853 0.749999999999979
  endloop
endfacet
facet normal -1.0 1.0594347728187007e-15 -1.6066614440701268e-15
  outer loop
    vertex -100.0 -7.050000190734853 -2.220453850673107e-14
    vertex -100.0 -6.5500001907348535 0.749999999999979
    vertex -100.0 2.2204401893475072e-14 -2.220438326443233e-14
  endloop
endfacet
facet normal -1.0 1.0594347728187007e-15 -1.6066614440701268e-15
  outer loop
    vertex -100.0 2.2204401893475072e-14 -2.220438326443233e-14
    vertex -100.0 -6.5500001907348535 0.749999999999979
    vertex -100.0 -5.75001001358031 0.749999999999979
  endloop
endfacet
facet normal -1.0 1.0594347728187007e-15 -1.6066614440701268e-15
  outer loop
    vertex -100.0 -5.75001001358031 0.749999999999979
    vertex -100.0 -6.5500001907348535 0.749999999999979
    vertex -100.00000000000001 -5.75001001358031 3.8499898910522337
  endloop
endfacet
facet normal -1.0 1.0594347728187007e-15 -1.6066614440701268e-15
  outer loop
    vertex -100.0 2.2204401893475072e-14 -2.220438326443233e-14
    vertex -100.0 -5.75001001358031 0.749999999999979
    vertex -100.0 -1.2999900579452295 0.7499999999999775
  endloop
endfacet
facet normal -1.0 1.0594347728187007e-15 -1.6066614440701268e-15
  outer loop
    vertex -100.0 2.2204401893475072e-14 -2.220438326443233e-14
    vertex -100.0 -1.2999900579452295 0.7499999999999775
    vertex -100.0 -0.4999999999999775 0.7499999999999775
  endloop
endfacet
facet normal -1.0 1.0594347728187007e-15 -1.6066614440701268e-15
  outer loop
    vertex -100.0 -0.4999999999999775 0.7499999999999775
    vertex -100.0 -1.2999900579452295 0.7499999999999775
    vertex -100.0 -0.4999999999999775 2.8499898910522248
  endloop
endfacet
facet normal -1.0 1.0594347728187007e-15 -1.6066614440701268e-15
  outer loop
    vertex -100.0 2.2204401893475072e-14 -2.220438326443233e-14
    vertex -100.0 -0.4999999999999775 0.7499999999999775
    vertex -100.0 2.2204401893475072e-14 0.7499999999999775
  endloop
endfacet
endsolid corrected dual Z 1mm
